%TF.GenerationSoftware,KiCad,Pcbnew,7.0.1*%
%TF.CreationDate,2023-05-04T12:41:10+02:00*%
%TF.ProjectId,traco_breakout_minimal,74726163-6f5f-4627-9265-616b6f75745f,rev?*%
%TF.SameCoordinates,Original*%
%TF.FileFunction,Legend,Bot*%
%TF.FilePolarity,Positive*%
%FSLAX46Y46*%
G04 Gerber Fmt 4.6, Leading zero omitted, Abs format (unit mm)*
G04 Created by KiCad (PCBNEW 7.0.1) date 2023-05-04 12:41:10*
%MOMM*%
%LPD*%
G01*
G04 APERTURE LIST*
%ADD10C,0.300000*%
G04 APERTURE END LIST*
D10*
X135071427Y-99908214D02*
X134857141Y-99979642D01*
X134857141Y-99979642D02*
X134785712Y-100051071D01*
X134785712Y-100051071D02*
X134714284Y-100193928D01*
X134714284Y-100193928D02*
X134714284Y-100408214D01*
X134714284Y-100408214D02*
X134785712Y-100551071D01*
X134785712Y-100551071D02*
X134857141Y-100622500D01*
X134857141Y-100622500D02*
X134999998Y-100693928D01*
X134999998Y-100693928D02*
X135571427Y-100693928D01*
X135571427Y-100693928D02*
X135571427Y-99193928D01*
X135571427Y-99193928D02*
X135071427Y-99193928D01*
X135071427Y-99193928D02*
X134928570Y-99265357D01*
X134928570Y-99265357D02*
X134857141Y-99336785D01*
X134857141Y-99336785D02*
X134785712Y-99479642D01*
X134785712Y-99479642D02*
X134785712Y-99622500D01*
X134785712Y-99622500D02*
X134857141Y-99765357D01*
X134857141Y-99765357D02*
X134928570Y-99836785D01*
X134928570Y-99836785D02*
X135071427Y-99908214D01*
X135071427Y-99908214D02*
X135571427Y-99908214D01*
X133571427Y-99908214D02*
X133357141Y-99979642D01*
X133357141Y-99979642D02*
X133285712Y-100051071D01*
X133285712Y-100051071D02*
X133214284Y-100193928D01*
X133214284Y-100193928D02*
X133214284Y-100408214D01*
X133214284Y-100408214D02*
X133285712Y-100551071D01*
X133285712Y-100551071D02*
X133357141Y-100622500D01*
X133357141Y-100622500D02*
X133499998Y-100693928D01*
X133499998Y-100693928D02*
X134071427Y-100693928D01*
X134071427Y-100693928D02*
X134071427Y-99193928D01*
X134071427Y-99193928D02*
X133571427Y-99193928D01*
X133571427Y-99193928D02*
X133428570Y-99265357D01*
X133428570Y-99265357D02*
X133357141Y-99336785D01*
X133357141Y-99336785D02*
X133285712Y-99479642D01*
X133285712Y-99479642D02*
X133285712Y-99622500D01*
X133285712Y-99622500D02*
X133357141Y-99765357D01*
X133357141Y-99765357D02*
X133428570Y-99836785D01*
X133428570Y-99836785D02*
X133571427Y-99908214D01*
X133571427Y-99908214D02*
X134071427Y-99908214D01*
X131499998Y-99336785D02*
X131428570Y-99265357D01*
X131428570Y-99265357D02*
X131285713Y-99193928D01*
X131285713Y-99193928D02*
X130928570Y-99193928D01*
X130928570Y-99193928D02*
X130785713Y-99265357D01*
X130785713Y-99265357D02*
X130714284Y-99336785D01*
X130714284Y-99336785D02*
X130642855Y-99479642D01*
X130642855Y-99479642D02*
X130642855Y-99622500D01*
X130642855Y-99622500D02*
X130714284Y-99836785D01*
X130714284Y-99836785D02*
X131571427Y-100693928D01*
X131571427Y-100693928D02*
X130642855Y-100693928D01*
X129714284Y-99193928D02*
X129571427Y-99193928D01*
X129571427Y-99193928D02*
X129428570Y-99265357D01*
X129428570Y-99265357D02*
X129357142Y-99336785D01*
X129357142Y-99336785D02*
X129285713Y-99479642D01*
X129285713Y-99479642D02*
X129214284Y-99765357D01*
X129214284Y-99765357D02*
X129214284Y-100122500D01*
X129214284Y-100122500D02*
X129285713Y-100408214D01*
X129285713Y-100408214D02*
X129357142Y-100551071D01*
X129357142Y-100551071D02*
X129428570Y-100622500D01*
X129428570Y-100622500D02*
X129571427Y-100693928D01*
X129571427Y-100693928D02*
X129714284Y-100693928D01*
X129714284Y-100693928D02*
X129857142Y-100622500D01*
X129857142Y-100622500D02*
X129928570Y-100551071D01*
X129928570Y-100551071D02*
X129999999Y-100408214D01*
X129999999Y-100408214D02*
X130071427Y-100122500D01*
X130071427Y-100122500D02*
X130071427Y-99765357D01*
X130071427Y-99765357D02*
X129999999Y-99479642D01*
X129999999Y-99479642D02*
X129928570Y-99336785D01*
X129928570Y-99336785D02*
X129857142Y-99265357D01*
X129857142Y-99265357D02*
X129714284Y-99193928D01*
X128642856Y-99336785D02*
X128571428Y-99265357D01*
X128571428Y-99265357D02*
X128428571Y-99193928D01*
X128428571Y-99193928D02*
X128071428Y-99193928D01*
X128071428Y-99193928D02*
X127928571Y-99265357D01*
X127928571Y-99265357D02*
X127857142Y-99336785D01*
X127857142Y-99336785D02*
X127785713Y-99479642D01*
X127785713Y-99479642D02*
X127785713Y-99622500D01*
X127785713Y-99622500D02*
X127857142Y-99836785D01*
X127857142Y-99836785D02*
X128714285Y-100693928D01*
X128714285Y-100693928D02*
X127785713Y-100693928D01*
X127285714Y-99193928D02*
X126357142Y-99193928D01*
X126357142Y-99193928D02*
X126857142Y-99765357D01*
X126857142Y-99765357D02*
X126642857Y-99765357D01*
X126642857Y-99765357D02*
X126500000Y-99836785D01*
X126500000Y-99836785D02*
X126428571Y-99908214D01*
X126428571Y-99908214D02*
X126357142Y-100051071D01*
X126357142Y-100051071D02*
X126357142Y-100408214D01*
X126357142Y-100408214D02*
X126428571Y-100551071D01*
X126428571Y-100551071D02*
X126500000Y-100622500D01*
X126500000Y-100622500D02*
X126642857Y-100693928D01*
X126642857Y-100693928D02*
X127071428Y-100693928D01*
X127071428Y-100693928D02*
X127214285Y-100622500D01*
X127214285Y-100622500D02*
X127285714Y-100551071D01*
M02*
