%TF.GenerationSoftware,KiCad,Pcbnew,7.0.1*%
%TF.CreationDate,2023-05-04T12:41:10+02:00*%
%TF.ProjectId,traco_breakout_minimal,74726163-6f5f-4627-9265-616b6f75745f,rev?*%
%TF.SameCoordinates,Original*%
%TF.FileFunction,Copper,L1,Top*%
%TF.FilePolarity,Positive*%
%FSLAX46Y46*%
G04 Gerber Fmt 4.6, Leading zero omitted, Abs format (unit mm)*
G04 Created by KiCad (PCBNEW 7.0.1) date 2023-05-04 12:41:10*
%MOMM*%
%LPD*%
G01*
G04 APERTURE LIST*
%TA.AperFunction,ComponentPad*%
%ADD10R,1.700000X1.700000*%
%TD*%
%TA.AperFunction,ComponentPad*%
%ADD11O,1.700000X1.700000*%
%TD*%
%TA.AperFunction,ComponentPad*%
%ADD12C,1.950000*%
%TD*%
%TA.AperFunction,ComponentPad*%
%ADD13C,1.800000*%
%TD*%
%TA.AperFunction,ComponentPad*%
%ADD14C,3.300000*%
%TD*%
%TA.AperFunction,ComponentPad*%
%ADD15C,4.700000*%
%TD*%
%TA.AperFunction,SMDPad,CuDef*%
%ADD16R,2.730000X2.040000*%
%TD*%
%TA.AperFunction,ComponentPad*%
%ADD17R,2.000000X2.000000*%
%TD*%
%TA.AperFunction,ComponentPad*%
%ADD18O,2.000000X2.000000*%
%TD*%
%TA.AperFunction,Conductor*%
%ADD19C,0.500000*%
%TD*%
%TA.AperFunction,Conductor*%
%ADD20C,0.300000*%
%TD*%
G04 APERTURE END LIST*
D10*
%TO.P,J2,1,Pin_1*%
%TO.N,/GND*%
X141160000Y-141690000D03*
D11*
%TO.P,J2,2,Pin_2*%
%TO.N,/SYNC*%
X141160000Y-139150000D03*
%TO.P,J2,3,Pin_3*%
%TO.N,/REMOTE*%
X141160000Y-136610000D03*
%TD*%
D12*
%TO.P,J3,1,1*%
%TO.N,/Vout+*%
X128500000Y-60890000D03*
%TO.P,J3,2,2*%
%TO.N,/Vout-*%
X133500000Y-60890000D03*
%TD*%
%TO.P,J1,1,1*%
%TO.N,/GND*%
X133500000Y-139150000D03*
%TO.P,J1,2,2*%
%TO.N,/Vin*%
X128500000Y-139150000D03*
%TD*%
D13*
%TO.P,PS1,1,-VIN_(GND)*%
%TO.N,/GND*%
X148780000Y-124150000D03*
%TO.P,PS1,2,CASE*%
%TO.N,/shielding*%
X138620000Y-124150000D03*
%TO.P,PS1,3,REMOTE*%
%TO.N,/REMOTE*%
X123380000Y-124150000D03*
%TO.P,PS1,4,+VIN_(VCC)*%
%TO.N,/Vin_fuse*%
X113220000Y-124150000D03*
D14*
%TO.P,PS1,5,-VOUT*%
%TO.N,/Vout-*%
X148780000Y-75890000D03*
D13*
%TO.P,PS1,6,-SENSE*%
%TO.N,Net-(PS1--SENSE)*%
X138620000Y-75890000D03*
%TO.P,PS1,7,TRIM*%
%TO.N,Net-(PS1-TRIM)*%
X131000000Y-75890000D03*
%TO.P,PS1,8,+SENSE*%
%TO.N,Net-(PS1-+SENSE)*%
X123380000Y-75890000D03*
D14*
%TO.P,PS1,9,+VOUT*%
%TO.N,/Vout+*%
X113220000Y-75890000D03*
D13*
%TO.P,PS1,10,SYNC_(ON_DEMAND)*%
%TO.N,/SYNC*%
X131000000Y-124150000D03*
D15*
%TO.P,PS1,MH1,MH1*%
%TO.N,/shielding*%
X156400000Y-124150000D03*
%TO.P,PS1,MH2,MH2*%
X105600000Y-124150000D03*
%TO.P,PS1,MH3,MH3*%
X105600000Y-75890000D03*
%TO.P,PS1,MH4,MH4*%
X156400000Y-75890000D03*
%TD*%
D16*
%TO.P,F1,1,1*%
%TO.N,/Vin*%
X113220000Y-141640000D03*
%TO.P,F1,2,2*%
%TO.N,/Vin_fuse*%
X113220000Y-136660000D03*
%TD*%
D17*
%TO.P,R1,1*%
%TO.N,Net-(PS1-+SENSE)*%
X122500000Y-65800000D03*
D18*
%TO.P,R1,2*%
%TO.N,Net-(PS1-TRIM)*%
X122500000Y-60720000D03*
%TD*%
D17*
%TO.P,R2,1*%
%TO.N,Net-(PS1--SENSE)*%
X139500000Y-60900000D03*
D18*
%TO.P,R2,2*%
%TO.N,Net-(PS1-TRIM)*%
X139500000Y-65980000D03*
%TD*%
D19*
%TO.N,Net-(PS1--SENSE)*%
X139500000Y-62570000D02*
X141430000Y-64500000D01*
X138620000Y-70190000D02*
X138620000Y-75890000D01*
X141430000Y-64500000D02*
X141430000Y-67380000D01*
X139500000Y-60900000D02*
X139500000Y-62570000D01*
X141430000Y-67380000D02*
X138620000Y-70190000D01*
%TO.N,Net-(PS1-TRIM)*%
X139500000Y-65980000D02*
X136380000Y-69100000D01*
X127760000Y-65980000D02*
X122500000Y-60720000D01*
X131000000Y-72310000D02*
X131000000Y-75890000D01*
X134210000Y-69100000D02*
X131000000Y-72310000D01*
X139500000Y-65980000D02*
X127760000Y-65980000D01*
X136380000Y-69100000D02*
X134210000Y-69100000D01*
%TO.N,Net-(PS1-+SENSE)*%
X123380000Y-66680000D02*
X122500000Y-65800000D01*
X123380000Y-75890000D02*
X123380000Y-66680000D01*
D20*
%TO.N,/SYNC*%
X142360000Y-134830000D02*
X131680000Y-124150000D01*
X131680000Y-124150000D02*
X131000000Y-124150000D01*
X141160000Y-139150000D02*
X142360000Y-137950000D01*
X142360000Y-137950000D02*
X142360000Y-134830000D01*
%TO.N,/REMOTE*%
X141160000Y-134860000D02*
X132120000Y-125820000D01*
X125050000Y-125820000D02*
X123380000Y-124150000D01*
X132120000Y-125820000D02*
X125050000Y-125820000D01*
X141160000Y-136610000D02*
X141160000Y-134860000D01*
%TD*%
%TA.AperFunction,Conductor*%
%TO.N,/Vin_fuse*%
G36*
X116304418Y-104990316D02*
G01*
X116575790Y-105009724D01*
X116593291Y-105012241D01*
X116854803Y-105069129D01*
X116871762Y-105074108D01*
X117122524Y-105167638D01*
X117138616Y-105174987D01*
X117373501Y-105303244D01*
X117388375Y-105312802D01*
X117602624Y-105473188D01*
X117615994Y-105484774D01*
X117805225Y-105674005D01*
X117816811Y-105687375D01*
X117977193Y-105901619D01*
X117986758Y-105916503D01*
X118115011Y-106151382D01*
X118122361Y-106167475D01*
X118215888Y-106418229D01*
X118220872Y-106435205D01*
X118277757Y-106696702D01*
X118280275Y-106714214D01*
X118299684Y-106985582D01*
X118300000Y-106994428D01*
X118300000Y-135885572D01*
X118299684Y-135894418D01*
X118280275Y-136165785D01*
X118277757Y-136183297D01*
X118220872Y-136444794D01*
X118215888Y-136461770D01*
X118122361Y-136712524D01*
X118115011Y-136728617D01*
X117986758Y-136963496D01*
X117977193Y-136978380D01*
X117816811Y-137192624D01*
X117805225Y-137205994D01*
X117615994Y-137395225D01*
X117602624Y-137406811D01*
X117388380Y-137567193D01*
X117373496Y-137576758D01*
X117138617Y-137705011D01*
X117122524Y-137712361D01*
X116871770Y-137805888D01*
X116854794Y-137810872D01*
X116593297Y-137867757D01*
X116575785Y-137870275D01*
X116304418Y-137889684D01*
X116295572Y-137890000D01*
X112604428Y-137890000D01*
X112595582Y-137889684D01*
X112324214Y-137870275D01*
X112306702Y-137867757D01*
X112045205Y-137810872D01*
X112028229Y-137805888D01*
X111777475Y-137712361D01*
X111761382Y-137705011D01*
X111526503Y-137576758D01*
X111511619Y-137567193D01*
X111297375Y-137406811D01*
X111284005Y-137395225D01*
X111094774Y-137205994D01*
X111083188Y-137192624D01*
X110922802Y-136978375D01*
X110913244Y-136963501D01*
X110784987Y-136728616D01*
X110777638Y-136712524D01*
X110684108Y-136461762D01*
X110679129Y-136444803D01*
X110622241Y-136183291D01*
X110619724Y-136165785D01*
X110600316Y-135894418D01*
X110600000Y-135885572D01*
X110600000Y-125302351D01*
X112421199Y-125302351D01*
X112451650Y-125326051D01*
X112655700Y-125436477D01*
X112875140Y-125511811D01*
X113103993Y-125550000D01*
X113336007Y-125550000D01*
X113564859Y-125511811D01*
X113784296Y-125436478D01*
X113988353Y-125326048D01*
X114018798Y-125302351D01*
X113220000Y-124503553D01*
X112421199Y-125302351D01*
X110600000Y-125302351D01*
X110600000Y-124150000D01*
X111815201Y-124150000D01*
X111834361Y-124381217D01*
X111891319Y-124606139D01*
X111984516Y-124818609D01*
X112068812Y-124947633D01*
X112866447Y-124150001D01*
X112866447Y-124150000D01*
X113573553Y-124150000D01*
X114371186Y-124947634D01*
X114455483Y-124818607D01*
X114548680Y-124606138D01*
X114605638Y-124381217D01*
X114624798Y-124150000D01*
X114605638Y-123918782D01*
X114548680Y-123693860D01*
X114455484Y-123481392D01*
X114371186Y-123352364D01*
X113573553Y-124150000D01*
X112866447Y-124150000D01*
X112068812Y-123352365D01*
X111984516Y-123481390D01*
X111891319Y-123693860D01*
X111834361Y-123918782D01*
X111815201Y-124150000D01*
X110600000Y-124150000D01*
X110600000Y-122997647D01*
X112421200Y-122997647D01*
X113220000Y-123796447D01*
X113220001Y-123796447D01*
X114018799Y-122997648D01*
X114018799Y-122997647D01*
X113988349Y-122973948D01*
X113784299Y-122863522D01*
X113564859Y-122788188D01*
X113336007Y-122750000D01*
X113103993Y-122750000D01*
X112875140Y-122788188D01*
X112655703Y-122863521D01*
X112451645Y-122973952D01*
X112421200Y-122997646D01*
X112421200Y-122997647D01*
X110600000Y-122997647D01*
X110600000Y-121149999D01*
X110600000Y-119150000D01*
X108600001Y-119150000D01*
X99604428Y-119150000D01*
X99595582Y-119149684D01*
X99324214Y-119130275D01*
X99306702Y-119127757D01*
X99045205Y-119070872D01*
X99028229Y-119065888D01*
X98777475Y-118972361D01*
X98761382Y-118965011D01*
X98526503Y-118836758D01*
X98511619Y-118827193D01*
X98297375Y-118666811D01*
X98284005Y-118655225D01*
X98094774Y-118465994D01*
X98083188Y-118452624D01*
X97922802Y-118238375D01*
X97913244Y-118223501D01*
X97784987Y-117988616D01*
X97777638Y-117972524D01*
X97684108Y-117721762D01*
X97679129Y-117704803D01*
X97622241Y-117443291D01*
X97619724Y-117425785D01*
X97600316Y-117154418D01*
X97600000Y-117145572D01*
X97600000Y-106994428D01*
X97600316Y-106985582D01*
X97619724Y-106714214D01*
X97622240Y-106696710D01*
X97679130Y-106435192D01*
X97684107Y-106418241D01*
X97777640Y-106167470D01*
X97784985Y-106151388D01*
X97913248Y-105916491D01*
X97922798Y-105901630D01*
X98083195Y-105687366D01*
X98094767Y-105674012D01*
X98284012Y-105484767D01*
X98297366Y-105473195D01*
X98511630Y-105312798D01*
X98526491Y-105303248D01*
X98761388Y-105174985D01*
X98777470Y-105167640D01*
X99028241Y-105074107D01*
X99045192Y-105069130D01*
X99306710Y-105012240D01*
X99324207Y-105009724D01*
X99595581Y-104990316D01*
X99604428Y-104990000D01*
X116295572Y-104990000D01*
X116304418Y-104990316D01*
G37*
%TD.AperFunction*%
%TD*%
%TA.AperFunction,Conductor*%
%TO.N,/shielding*%
G36*
X107604418Y-120150316D02*
G01*
X107875790Y-120169724D01*
X107893291Y-120172241D01*
X108154803Y-120229129D01*
X108171762Y-120234108D01*
X108422524Y-120327638D01*
X108438616Y-120334987D01*
X108673501Y-120463244D01*
X108688375Y-120472802D01*
X108902624Y-120633188D01*
X108915994Y-120644774D01*
X109105225Y-120834005D01*
X109116811Y-120847375D01*
X109277193Y-121061619D01*
X109286758Y-121076503D01*
X109415011Y-121311382D01*
X109422361Y-121327475D01*
X109515888Y-121578229D01*
X109520872Y-121595205D01*
X109577757Y-121856702D01*
X109580275Y-121874214D01*
X109599684Y-122145582D01*
X109600000Y-122154428D01*
X109600000Y-131645572D01*
X109599684Y-131654418D01*
X109580275Y-131925785D01*
X109577757Y-131943297D01*
X109520872Y-132204794D01*
X109515888Y-132221770D01*
X109422361Y-132472524D01*
X109415011Y-132488617D01*
X109286758Y-132723496D01*
X109277193Y-132738380D01*
X109116811Y-132952624D01*
X109105225Y-132965994D01*
X108915994Y-133155225D01*
X108902624Y-133166811D01*
X108688380Y-133327193D01*
X108673496Y-133336758D01*
X108438617Y-133465011D01*
X108422524Y-133472361D01*
X108171770Y-133565888D01*
X108154794Y-133570872D01*
X107893297Y-133627757D01*
X107875785Y-133630275D01*
X107604418Y-133649684D01*
X107595572Y-133650000D01*
X99604428Y-133650000D01*
X99595582Y-133649684D01*
X99324214Y-133630275D01*
X99306702Y-133627757D01*
X99045205Y-133570872D01*
X99028229Y-133565888D01*
X98777475Y-133472361D01*
X98761382Y-133465011D01*
X98526503Y-133336758D01*
X98511619Y-133327193D01*
X98297375Y-133166811D01*
X98284005Y-133155225D01*
X98094774Y-132965994D01*
X98083188Y-132952624D01*
X97922802Y-132738375D01*
X97913244Y-132723501D01*
X97784987Y-132488616D01*
X97777638Y-132472524D01*
X97684108Y-132221762D01*
X97679129Y-132204803D01*
X97622241Y-131943291D01*
X97619724Y-131925785D01*
X97600316Y-131654418D01*
X97600000Y-131645572D01*
X97600000Y-126334261D01*
X103769289Y-126334261D01*
X103769290Y-126334262D01*
X103895216Y-126439926D01*
X104172584Y-126622355D01*
X104469257Y-126771350D01*
X104781220Y-126884895D01*
X105104265Y-126961458D01*
X105434009Y-127000000D01*
X105765991Y-127000000D01*
X106095734Y-126961458D01*
X106418779Y-126884895D01*
X106730742Y-126771350D01*
X107027415Y-126622355D01*
X107304783Y-126439927D01*
X107430708Y-126334262D01*
X107430709Y-126334261D01*
X105600000Y-124503553D01*
X103769289Y-126334261D01*
X97600000Y-126334261D01*
X97600000Y-124150000D01*
X102745169Y-124150000D01*
X102764473Y-124481426D01*
X102822120Y-124808363D01*
X102917338Y-125126409D01*
X103048832Y-125431247D01*
X103214823Y-125718754D01*
X103412358Y-125984088D01*
X105246447Y-124150000D01*
X105953553Y-124150000D01*
X107787640Y-125984088D01*
X107985176Y-125718754D01*
X108151167Y-125431247D01*
X108282661Y-125126409D01*
X108377879Y-124808363D01*
X108435526Y-124481426D01*
X108454830Y-124150000D01*
X108435526Y-123818573D01*
X108377879Y-123491636D01*
X108282661Y-123173590D01*
X108151167Y-122868752D01*
X107985176Y-122581245D01*
X107787640Y-122315910D01*
X105953553Y-124150000D01*
X105246447Y-124150000D01*
X103412357Y-122315910D01*
X103214826Y-122581241D01*
X103048832Y-122868752D01*
X102917338Y-123173590D01*
X102822120Y-123491636D01*
X102764473Y-123818573D01*
X102745169Y-124150000D01*
X97600000Y-124150000D01*
X97600000Y-122154428D01*
X97600316Y-122145582D01*
X97601131Y-122134180D01*
X97613178Y-121965736D01*
X103769289Y-121965736D01*
X105600000Y-123796447D01*
X105600001Y-123796447D01*
X107430709Y-121965737D01*
X107430708Y-121965736D01*
X107304783Y-121860073D01*
X107027415Y-121677644D01*
X106730742Y-121528649D01*
X106418779Y-121415104D01*
X106095734Y-121338541D01*
X105765991Y-121300000D01*
X105434009Y-121300000D01*
X105104265Y-121338541D01*
X104781220Y-121415104D01*
X104469257Y-121528649D01*
X104172584Y-121677644D01*
X103895216Y-121860072D01*
X103769289Y-121965736D01*
X97613178Y-121965736D01*
X97619724Y-121874207D01*
X97622240Y-121856710D01*
X97679130Y-121595192D01*
X97684107Y-121578241D01*
X97777640Y-121327470D01*
X97784985Y-121311388D01*
X97913248Y-121076491D01*
X97922798Y-121061630D01*
X98083195Y-120847366D01*
X98094767Y-120834012D01*
X98284012Y-120644767D01*
X98297366Y-120633195D01*
X98511630Y-120472798D01*
X98526491Y-120463248D01*
X98761388Y-120334985D01*
X98777470Y-120327640D01*
X99028241Y-120234107D01*
X99045192Y-120229130D01*
X99306710Y-120172240D01*
X99324207Y-120169724D01*
X99595581Y-120150316D01*
X99604428Y-120150000D01*
X107595572Y-120150000D01*
X107604418Y-120150316D01*
G37*
%TD.AperFunction*%
%TD*%
%TA.AperFunction,Conductor*%
%TO.N,/GND*%
G36*
X162404418Y-105000316D02*
G01*
X162675790Y-105019724D01*
X162693291Y-105022241D01*
X162954803Y-105079129D01*
X162971762Y-105084108D01*
X163222524Y-105177638D01*
X163238616Y-105184987D01*
X163473501Y-105313244D01*
X163488375Y-105322802D01*
X163702624Y-105483188D01*
X163715994Y-105494774D01*
X163905225Y-105684005D01*
X163916811Y-105697375D01*
X164077193Y-105911619D01*
X164086758Y-105926503D01*
X164215011Y-106161382D01*
X164222361Y-106177475D01*
X164315888Y-106428229D01*
X164320872Y-106445205D01*
X164377757Y-106706702D01*
X164380275Y-106724214D01*
X164399684Y-106995582D01*
X164400000Y-107004428D01*
X164400000Y-117145572D01*
X164399684Y-117154418D01*
X164380275Y-117425785D01*
X164377757Y-117443297D01*
X164320872Y-117704794D01*
X164315888Y-117721770D01*
X164222361Y-117972524D01*
X164215011Y-117988617D01*
X164086758Y-118223496D01*
X164077193Y-118238380D01*
X163916811Y-118452624D01*
X163905225Y-118465994D01*
X163715994Y-118655225D01*
X163702624Y-118666811D01*
X163488380Y-118827193D01*
X163473496Y-118836758D01*
X163238617Y-118965011D01*
X163222524Y-118972361D01*
X162971770Y-119065888D01*
X162954794Y-119070872D01*
X162693297Y-119127757D01*
X162675785Y-119130275D01*
X162404418Y-119149684D01*
X162395572Y-119150000D01*
X151400000Y-119150000D01*
X151400000Y-121149999D01*
X151400000Y-145145572D01*
X151399684Y-145154418D01*
X151380275Y-145425785D01*
X151377757Y-145443297D01*
X151320872Y-145704794D01*
X151315888Y-145721770D01*
X151222361Y-145972524D01*
X151215011Y-145988617D01*
X151086758Y-146223496D01*
X151077193Y-146238380D01*
X150916811Y-146452624D01*
X150905225Y-146465994D01*
X150715994Y-146655225D01*
X150702624Y-146666811D01*
X150488380Y-146827193D01*
X150473496Y-146836758D01*
X150238617Y-146965011D01*
X150222524Y-146972361D01*
X149971770Y-147065888D01*
X149954794Y-147070872D01*
X149693297Y-147127757D01*
X149675785Y-147130275D01*
X149404418Y-147149684D01*
X149395572Y-147150000D01*
X133504428Y-147150000D01*
X133495582Y-147149684D01*
X133224214Y-147130275D01*
X133206702Y-147127757D01*
X132945205Y-147070872D01*
X132928229Y-147065888D01*
X132677475Y-146972361D01*
X132661382Y-146965011D01*
X132426503Y-146836758D01*
X132411619Y-146827193D01*
X132197375Y-146666811D01*
X132184005Y-146655225D01*
X131994774Y-146465994D01*
X131983188Y-146452624D01*
X131822802Y-146238375D01*
X131813244Y-146223501D01*
X131684987Y-145988616D01*
X131677638Y-145972524D01*
X131584108Y-145721762D01*
X131579129Y-145704803D01*
X131522241Y-145443291D01*
X131519724Y-145425785D01*
X131500316Y-145154418D01*
X131500000Y-145145572D01*
X131500000Y-141940000D01*
X139810000Y-141940000D01*
X139810000Y-142587824D01*
X139816402Y-142647375D01*
X139866647Y-142782089D01*
X139952811Y-142897188D01*
X140067910Y-142983352D01*
X140202624Y-143033597D01*
X140262176Y-143040000D01*
X140910000Y-143040000D01*
X140910000Y-141940000D01*
X141410000Y-141940000D01*
X141410000Y-143040000D01*
X142057824Y-143040000D01*
X142117375Y-143033597D01*
X142252089Y-142983352D01*
X142367188Y-142897188D01*
X142453352Y-142782089D01*
X142503597Y-142647375D01*
X142510000Y-142587824D01*
X142510000Y-141940000D01*
X141410000Y-141940000D01*
X140910000Y-141940000D01*
X139810000Y-141940000D01*
X131500000Y-141940000D01*
X131500000Y-140355793D01*
X132647757Y-140355793D01*
X132647758Y-140355794D01*
X132690484Y-140389050D01*
X132905473Y-140505396D01*
X133136665Y-140584766D01*
X133377778Y-140625000D01*
X133622222Y-140625000D01*
X133863334Y-140584766D01*
X134094526Y-140505396D01*
X134309515Y-140389050D01*
X134352240Y-140355794D01*
X134352241Y-140355793D01*
X133500000Y-139503553D01*
X132647757Y-140355793D01*
X131500000Y-140355793D01*
X131500000Y-139150000D01*
X132019944Y-139150000D01*
X132040130Y-139393604D01*
X132100139Y-139630574D01*
X132198330Y-139854428D01*
X132294626Y-140001820D01*
X133146447Y-139150001D01*
X133146447Y-139150000D01*
X133853553Y-139150000D01*
X134705372Y-140001820D01*
X134801668Y-139854429D01*
X134899860Y-139630574D01*
X134959869Y-139393604D01*
X134980055Y-139149999D01*
X134959869Y-138906395D01*
X134899860Y-138669425D01*
X134801669Y-138445571D01*
X134705372Y-138298178D01*
X133853553Y-139150000D01*
X133146447Y-139150000D01*
X132294625Y-138298178D01*
X132198329Y-138445571D01*
X132100139Y-138669424D01*
X132040130Y-138906395D01*
X132019944Y-139150000D01*
X131500000Y-139150000D01*
X131500000Y-137944205D01*
X132647758Y-137944205D01*
X133500000Y-138796447D01*
X133500001Y-138796447D01*
X134352240Y-137944205D01*
X134309514Y-137910949D01*
X134094526Y-137794603D01*
X133863334Y-137715233D01*
X133622222Y-137675000D01*
X133377778Y-137675000D01*
X133136665Y-137715233D01*
X132905473Y-137794603D01*
X132690485Y-137910949D01*
X132647758Y-137944205D01*
X131500000Y-137944205D01*
X131500000Y-130949999D01*
X131500000Y-128950000D01*
X129500001Y-128950000D01*
X121504428Y-128950000D01*
X121495582Y-128949684D01*
X121224214Y-128930275D01*
X121206702Y-128927757D01*
X120945205Y-128870872D01*
X120928229Y-128865888D01*
X120677475Y-128772361D01*
X120661382Y-128765011D01*
X120426503Y-128636758D01*
X120411619Y-128627193D01*
X120197375Y-128466811D01*
X120184005Y-128455225D01*
X119994774Y-128265994D01*
X119983188Y-128252624D01*
X119822802Y-128038375D01*
X119813244Y-128023501D01*
X119684987Y-127788616D01*
X119677638Y-127772524D01*
X119584108Y-127521762D01*
X119579129Y-127504803D01*
X119522241Y-127243291D01*
X119519724Y-127225785D01*
X119500316Y-126954418D01*
X119500000Y-126945572D01*
X119500000Y-124149999D01*
X121474644Y-124149999D01*
X121494039Y-124421161D01*
X121551823Y-124686796D01*
X121551825Y-124686801D01*
X121646828Y-124941513D01*
X121646830Y-124941517D01*
X121646831Y-124941519D01*
X121777109Y-125180108D01*
X121832219Y-125253726D01*
X121940029Y-125397742D01*
X122132258Y-125589971D01*
X122348281Y-125751685D01*
X122349891Y-125752890D01*
X122545802Y-125859864D01*
X122588487Y-125883172D01*
X122843199Y-125978175D01*
X122843202Y-125978175D01*
X122843203Y-125978176D01*
X122892852Y-125988976D01*
X123108840Y-126035961D01*
X123359110Y-126053860D01*
X123379999Y-126055355D01*
X123379999Y-126055354D01*
X123380000Y-126055355D01*
X123583241Y-126040818D01*
X123635421Y-126048320D01*
X123679769Y-126076821D01*
X124215635Y-126612687D01*
X124219591Y-126616829D01*
X124271594Y-126673873D01*
X124333158Y-126720364D01*
X124337649Y-126723921D01*
X124397025Y-126773227D01*
X124412880Y-126782058D01*
X124427270Y-126791434D01*
X124441745Y-126802366D01*
X124488354Y-126825574D01*
X124510838Y-126836770D01*
X124515863Y-126839418D01*
X124583298Y-126876979D01*
X124600502Y-126882745D01*
X124616368Y-126889317D01*
X124621982Y-126892112D01*
X124632611Y-126897405D01*
X124706869Y-126918533D01*
X124712247Y-126920198D01*
X124785464Y-126944739D01*
X124803436Y-126947245D01*
X124820228Y-126950787D01*
X124837690Y-126955756D01*
X124914525Y-126962875D01*
X124920210Y-126963534D01*
X124996638Y-126974196D01*
X125073727Y-126970632D01*
X125079454Y-126970500D01*
X131592085Y-126970500D01*
X131639538Y-126979939D01*
X131679766Y-127006819D01*
X139825291Y-135152344D01*
X139857385Y-135207931D01*
X139857385Y-135272118D01*
X139825292Y-135327706D01*
X139757913Y-135395085D01*
X139599282Y-135606990D01*
X139472428Y-135839307D01*
X139472426Y-135839311D01*
X139426174Y-135963316D01*
X139379921Y-136087326D01*
X139323657Y-136345972D01*
X139304772Y-136609999D01*
X139323657Y-136874027D01*
X139379921Y-137132673D01*
X139379923Y-137132678D01*
X139472426Y-137380689D01*
X139472428Y-137380692D01*
X139599284Y-137613012D01*
X139743521Y-137805690D01*
X139765420Y-137853642D01*
X139765420Y-137906358D01*
X139743521Y-137954310D01*
X139599284Y-138146987D01*
X139522456Y-138287688D01*
X139472426Y-138379311D01*
X139433337Y-138484113D01*
X139379921Y-138627326D01*
X139323657Y-138885972D01*
X139304772Y-139149999D01*
X139323657Y-139414027D01*
X139379921Y-139672673D01*
X139379923Y-139672678D01*
X139472426Y-139920689D01*
X139472428Y-139920692D01*
X139599282Y-140153009D01*
X139650003Y-140220764D01*
X139757913Y-140364915D01*
X139757915Y-140364917D01*
X139844054Y-140451056D01*
X139877539Y-140512379D01*
X139872555Y-140582070D01*
X139816402Y-140732622D01*
X139810000Y-140792176D01*
X139810000Y-141440000D01*
X142510000Y-141440000D01*
X142510000Y-140792176D01*
X142503597Y-140732624D01*
X142447444Y-140582071D01*
X142439661Y-140535786D01*
X142449638Y-140489924D01*
X142475940Y-140451061D01*
X142562087Y-140364915D01*
X142720716Y-140153011D01*
X142847574Y-139920689D01*
X142940077Y-139672678D01*
X142996343Y-139414026D01*
X143015227Y-139150000D01*
X143004036Y-138993539D01*
X143011538Y-138941360D01*
X143040037Y-138897014D01*
X143152719Y-138784332D01*
X143156841Y-138780397D01*
X143213872Y-138728407D01*
X143260405Y-138666786D01*
X143263915Y-138662357D01*
X143293008Y-138627322D01*
X143313226Y-138602975D01*
X143322056Y-138587120D01*
X143331430Y-138572734D01*
X143342366Y-138558255D01*
X143376764Y-138489170D01*
X143379431Y-138484113D01*
X143416978Y-138416703D01*
X143416979Y-138416702D01*
X143422747Y-138399490D01*
X143429317Y-138383631D01*
X143437404Y-138367391D01*
X143457097Y-138298178D01*
X143458528Y-138293147D01*
X143460206Y-138287729D01*
X143484739Y-138214537D01*
X143487245Y-138196560D01*
X143490789Y-138179761D01*
X143495756Y-138162310D01*
X143502876Y-138085455D01*
X143503536Y-138079772D01*
X143503611Y-138079236D01*
X143514195Y-138003362D01*
X143510632Y-137926286D01*
X143510500Y-137920561D01*
X143510500Y-134859454D01*
X143510632Y-134853728D01*
X143510659Y-134853124D01*
X143514196Y-134776638D01*
X143503534Y-134700210D01*
X143502875Y-134694522D01*
X143495756Y-134617694D01*
X143495756Y-134617690D01*
X143490787Y-134600228D01*
X143487245Y-134583436D01*
X143484739Y-134565464D01*
X143460198Y-134492247D01*
X143458533Y-134486869D01*
X143437405Y-134412611D01*
X143429317Y-134396368D01*
X143422744Y-134380500D01*
X143416979Y-134363298D01*
X143379418Y-134295863D01*
X143376770Y-134290838D01*
X143365574Y-134268354D01*
X143342366Y-134221745D01*
X143331434Y-134207270D01*
X143322058Y-134192880D01*
X143313227Y-134177025D01*
X143263921Y-134117649D01*
X143260364Y-134113158D01*
X143213873Y-134051594D01*
X143156829Y-133999591D01*
X143152687Y-133995635D01*
X133307052Y-124149999D01*
X136714644Y-124149999D01*
X136734039Y-124421161D01*
X136791823Y-124686796D01*
X136791825Y-124686801D01*
X136886828Y-124941513D01*
X136886830Y-124941517D01*
X136886831Y-124941519D01*
X137017109Y-125180108D01*
X137072219Y-125253726D01*
X137180029Y-125397742D01*
X137372258Y-125589971D01*
X137588281Y-125751685D01*
X137589891Y-125752890D01*
X137785802Y-125859864D01*
X137828487Y-125883172D01*
X138083199Y-125978175D01*
X138083202Y-125978175D01*
X138083203Y-125978176D01*
X138132852Y-125988976D01*
X138348840Y-126035961D01*
X138620000Y-126055355D01*
X138891160Y-126035961D01*
X139156801Y-125978175D01*
X139411513Y-125883172D01*
X139650113Y-125752887D01*
X139867742Y-125589971D01*
X140059971Y-125397742D01*
X140131380Y-125302351D01*
X147981199Y-125302351D01*
X148011650Y-125326051D01*
X148215700Y-125436477D01*
X148435140Y-125511811D01*
X148663993Y-125550000D01*
X148896007Y-125550000D01*
X149124859Y-125511811D01*
X149344296Y-125436478D01*
X149548353Y-125326048D01*
X149578798Y-125302351D01*
X148780000Y-124503553D01*
X147981199Y-125302351D01*
X140131380Y-125302351D01*
X140222887Y-125180113D01*
X140353172Y-124941513D01*
X140448175Y-124686801D01*
X140505961Y-124421160D01*
X140525355Y-124150000D01*
X140525355Y-124149999D01*
X147375201Y-124149999D01*
X147394361Y-124381217D01*
X147451319Y-124606139D01*
X147544516Y-124818609D01*
X147628812Y-124947633D01*
X148426447Y-124150001D01*
X148426447Y-124150000D01*
X149133553Y-124150000D01*
X149931186Y-124947634D01*
X150015483Y-124818607D01*
X150108680Y-124606138D01*
X150165638Y-124381217D01*
X150184798Y-124149999D01*
X150165638Y-123918782D01*
X150108680Y-123693860D01*
X150015484Y-123481392D01*
X149931186Y-123352364D01*
X149133553Y-124150000D01*
X148426447Y-124150000D01*
X147628812Y-123352365D01*
X147544516Y-123481390D01*
X147451319Y-123693860D01*
X147394361Y-123918782D01*
X147375201Y-124149999D01*
X140525355Y-124149999D01*
X140505961Y-123878840D01*
X140448175Y-123613199D01*
X140353172Y-123358487D01*
X140329864Y-123315802D01*
X140222890Y-123119891D01*
X140131379Y-122997648D01*
X140131378Y-122997647D01*
X147981200Y-122997647D01*
X148780000Y-123796447D01*
X148780001Y-123796447D01*
X149578799Y-122997648D01*
X149578799Y-122997647D01*
X149548349Y-122973948D01*
X149344299Y-122863522D01*
X149124859Y-122788188D01*
X148896007Y-122750000D01*
X148663993Y-122750000D01*
X148435140Y-122788188D01*
X148215703Y-122863521D01*
X148011645Y-122973952D01*
X147981200Y-122997646D01*
X147981200Y-122997647D01*
X140131378Y-122997647D01*
X140059971Y-122902258D01*
X139867742Y-122710029D01*
X139650113Y-122547113D01*
X139650114Y-122547113D01*
X139650108Y-122547109D01*
X139411519Y-122416831D01*
X139411517Y-122416830D01*
X139411513Y-122416828D01*
X139156801Y-122321825D01*
X139156796Y-122321823D01*
X138891161Y-122264039D01*
X138620000Y-122244644D01*
X138348838Y-122264039D01*
X138083203Y-122321823D01*
X137938956Y-122375624D01*
X137828487Y-122416828D01*
X137828484Y-122416829D01*
X137828480Y-122416831D01*
X137589891Y-122547109D01*
X137372255Y-122710031D01*
X137180031Y-122902255D01*
X137017109Y-123119891D01*
X136886831Y-123358480D01*
X136791823Y-123613203D01*
X136734039Y-123878838D01*
X136714644Y-124149999D01*
X133307052Y-124149999D01*
X132870023Y-123712970D01*
X132848871Y-123684715D01*
X132836539Y-123651652D01*
X132828175Y-123613199D01*
X132733172Y-123358487D01*
X132709864Y-123315802D01*
X132602890Y-123119891D01*
X132511379Y-122997648D01*
X132439971Y-122902258D01*
X132247742Y-122710029D01*
X132030113Y-122547113D01*
X132030114Y-122547113D01*
X132030108Y-122547109D01*
X131791519Y-122416831D01*
X131791517Y-122416830D01*
X131791513Y-122416828D01*
X131536801Y-122321825D01*
X131536796Y-122321823D01*
X131271161Y-122264039D01*
X131000000Y-122244644D01*
X130728838Y-122264039D01*
X130463203Y-122321823D01*
X130318956Y-122375624D01*
X130208487Y-122416828D01*
X130208484Y-122416829D01*
X130208480Y-122416831D01*
X129969891Y-122547109D01*
X129752255Y-122710031D01*
X129560031Y-122902255D01*
X129397109Y-123119891D01*
X129266831Y-123358480D01*
X129171823Y-123613203D01*
X129114039Y-123878838D01*
X129094644Y-124149999D01*
X129114039Y-124421162D01*
X129135353Y-124519143D01*
X129134863Y-124574017D01*
X129110738Y-124623307D01*
X129067703Y-124657357D01*
X129014187Y-124669500D01*
X125577914Y-124669500D01*
X125530461Y-124660061D01*
X125490233Y-124633181D01*
X125306821Y-124449769D01*
X125278320Y-124405421D01*
X125270818Y-124353241D01*
X125285355Y-124149999D01*
X125283860Y-124129110D01*
X125265961Y-123878840D01*
X125208175Y-123613199D01*
X125113172Y-123358487D01*
X125089864Y-123315802D01*
X124982890Y-123119891D01*
X124891379Y-122997648D01*
X124819971Y-122902258D01*
X124627742Y-122710029D01*
X124410113Y-122547113D01*
X124410114Y-122547113D01*
X124410108Y-122547109D01*
X124171519Y-122416831D01*
X124171517Y-122416830D01*
X124171513Y-122416828D01*
X123916801Y-122321825D01*
X123916796Y-122321823D01*
X123651161Y-122264039D01*
X123380000Y-122244644D01*
X123108838Y-122264039D01*
X122843203Y-122321823D01*
X122698956Y-122375624D01*
X122588487Y-122416828D01*
X122588484Y-122416829D01*
X122588480Y-122416831D01*
X122349891Y-122547109D01*
X122132255Y-122710031D01*
X121940031Y-122902255D01*
X121777109Y-123119891D01*
X121646831Y-123358480D01*
X121551823Y-123613203D01*
X121494039Y-123878838D01*
X121474644Y-124149999D01*
X119500000Y-124149999D01*
X119500000Y-117004428D01*
X119500316Y-116995582D01*
X119519724Y-116724214D01*
X119522240Y-116706710D01*
X119579130Y-116445192D01*
X119584107Y-116428241D01*
X119677640Y-116177470D01*
X119684985Y-116161388D01*
X119813248Y-115926491D01*
X119822798Y-115911630D01*
X119983195Y-115697366D01*
X119994767Y-115684012D01*
X120184012Y-115494767D01*
X120197366Y-115483195D01*
X120411630Y-115322798D01*
X120426491Y-115313248D01*
X120661388Y-115184985D01*
X120677470Y-115177640D01*
X120928241Y-115084107D01*
X120945192Y-115079130D01*
X121206710Y-115022240D01*
X121224207Y-115019724D01*
X121495581Y-115000316D01*
X121504428Y-115000000D01*
X141510001Y-115000000D01*
X143510000Y-115000000D01*
X143510000Y-107004428D01*
X143510316Y-106995582D01*
X143529724Y-106724214D01*
X143532240Y-106706710D01*
X143589130Y-106445192D01*
X143594107Y-106428241D01*
X143687640Y-106177470D01*
X143694985Y-106161388D01*
X143823248Y-105926491D01*
X143832798Y-105911630D01*
X143993195Y-105697366D01*
X144004767Y-105684012D01*
X144194012Y-105494767D01*
X144207366Y-105483195D01*
X144421630Y-105322798D01*
X144436491Y-105313248D01*
X144671388Y-105184985D01*
X144687470Y-105177640D01*
X144938241Y-105084107D01*
X144955192Y-105079130D01*
X145216710Y-105022240D01*
X145234207Y-105019724D01*
X145505581Y-105000316D01*
X145514428Y-105000000D01*
X162395572Y-105000000D01*
X162404418Y-105000316D01*
G37*
%TD.AperFunction*%
%TD*%
%TA.AperFunction,Conductor*%
%TO.N,/Vout-*%
G36*
X149404418Y-52880316D02*
G01*
X149675790Y-52899724D01*
X149693291Y-52902241D01*
X149954803Y-52959129D01*
X149971762Y-52964108D01*
X150222524Y-53057638D01*
X150238616Y-53064987D01*
X150473501Y-53193244D01*
X150488375Y-53202802D01*
X150702624Y-53363188D01*
X150715994Y-53374774D01*
X150905225Y-53564005D01*
X150916811Y-53577375D01*
X151077193Y-53791619D01*
X151086758Y-53806503D01*
X151215011Y-54041382D01*
X151222361Y-54057475D01*
X151315888Y-54308229D01*
X151320872Y-54325205D01*
X151377757Y-54586702D01*
X151380275Y-54604214D01*
X151399684Y-54875582D01*
X151400000Y-54884428D01*
X151400000Y-80880000D01*
X162395572Y-80880000D01*
X162404418Y-80880316D01*
X162675790Y-80899724D01*
X162693291Y-80902241D01*
X162954803Y-80959129D01*
X162971762Y-80964108D01*
X163222524Y-81057638D01*
X163238616Y-81064987D01*
X163473501Y-81193244D01*
X163488375Y-81202802D01*
X163702624Y-81363188D01*
X163715994Y-81374774D01*
X163905225Y-81564005D01*
X163916811Y-81577375D01*
X164077193Y-81791619D01*
X164086758Y-81806503D01*
X164215011Y-82041382D01*
X164222361Y-82057475D01*
X164315888Y-82308229D01*
X164320872Y-82325205D01*
X164377757Y-82586702D01*
X164380275Y-82604214D01*
X164399684Y-82875582D01*
X164400000Y-82884428D01*
X164400000Y-92995572D01*
X164399684Y-93004418D01*
X164380275Y-93275785D01*
X164377757Y-93293297D01*
X164320872Y-93554794D01*
X164315888Y-93571770D01*
X164222361Y-93822524D01*
X164215011Y-93838617D01*
X164086758Y-94073496D01*
X164077193Y-94088380D01*
X163916811Y-94302624D01*
X163905225Y-94315994D01*
X163715994Y-94505225D01*
X163702624Y-94516811D01*
X163488380Y-94677193D01*
X163473496Y-94686758D01*
X163238617Y-94815011D01*
X163222524Y-94822361D01*
X162971770Y-94915888D01*
X162954794Y-94920872D01*
X162693297Y-94977757D01*
X162675785Y-94980275D01*
X162404418Y-94999684D01*
X162395572Y-95000000D01*
X145514428Y-95000000D01*
X145505582Y-94999684D01*
X145234214Y-94980275D01*
X145216702Y-94977757D01*
X144955205Y-94920872D01*
X144938229Y-94915888D01*
X144687475Y-94822361D01*
X144671382Y-94815011D01*
X144436503Y-94686758D01*
X144421619Y-94677193D01*
X144207375Y-94516811D01*
X144194005Y-94505225D01*
X144004774Y-94315994D01*
X143993188Y-94302624D01*
X143832802Y-94088375D01*
X143823244Y-94073501D01*
X143694987Y-93838616D01*
X143687638Y-93822524D01*
X143594108Y-93571762D01*
X143589129Y-93554803D01*
X143532241Y-93293291D01*
X143529724Y-93275785D01*
X143510316Y-93004418D01*
X143510000Y-92995572D01*
X143510000Y-86999999D01*
X143510000Y-85000000D01*
X141510001Y-85000000D01*
X133504428Y-85000000D01*
X133495582Y-84999684D01*
X133224214Y-84980275D01*
X133206702Y-84977757D01*
X132945205Y-84920872D01*
X132928229Y-84915888D01*
X132677475Y-84822361D01*
X132661382Y-84815011D01*
X132426503Y-84686758D01*
X132411619Y-84677193D01*
X132197375Y-84516811D01*
X132184005Y-84505225D01*
X131994774Y-84315994D01*
X131983188Y-84302624D01*
X131822802Y-84088375D01*
X131813244Y-84073501D01*
X131684987Y-83838616D01*
X131677638Y-83822524D01*
X131584108Y-83571762D01*
X131579129Y-83554803D01*
X131522241Y-83293291D01*
X131519724Y-83275785D01*
X131500316Y-83004418D01*
X131500000Y-82995572D01*
X131500000Y-77817995D01*
X131510012Y-77769182D01*
X131538430Y-77728252D01*
X131580661Y-77701815D01*
X131791513Y-77623172D01*
X132030113Y-77492887D01*
X132247742Y-77329971D01*
X132439971Y-77137742D01*
X132602887Y-76920113D01*
X132733172Y-76681513D01*
X132828175Y-76426801D01*
X132885961Y-76161160D01*
X132905355Y-75890000D01*
X132885961Y-75618840D01*
X132828175Y-75353199D01*
X132733172Y-75098487D01*
X132696561Y-75031439D01*
X132602890Y-74859891D01*
X132535810Y-74770283D01*
X132439971Y-74642258D01*
X132286819Y-74489106D01*
X132259939Y-74448878D01*
X132250500Y-74401425D01*
X132250500Y-72879336D01*
X132259939Y-72831883D01*
X132286819Y-72791655D01*
X134691655Y-70386819D01*
X134731883Y-70359939D01*
X134779336Y-70350500D01*
X136302814Y-70350500D01*
X136316698Y-70351280D01*
X136351826Y-70355238D01*
X136351826Y-70355237D01*
X136351827Y-70355238D01*
X136417934Y-70350780D01*
X136426274Y-70350500D01*
X136436150Y-70350500D01*
X136436155Y-70350500D01*
X136476800Y-70346841D01*
X136479504Y-70346628D01*
X136576412Y-70340096D01*
X136580652Y-70339027D01*
X136599837Y-70335768D01*
X136604188Y-70335377D01*
X136697856Y-70309525D01*
X136700466Y-70308836D01*
X136794683Y-70285096D01*
X136798658Y-70283290D01*
X136816961Y-70276655D01*
X136821167Y-70275494D01*
X136821167Y-70275493D01*
X136821170Y-70275493D01*
X136908739Y-70233321D01*
X136911165Y-70232187D01*
X136999626Y-70192007D01*
X137003209Y-70189524D01*
X137020039Y-70179723D01*
X137023973Y-70177829D01*
X137102607Y-70120697D01*
X137104798Y-70119143D01*
X137174158Y-70071091D01*
X137236430Y-70049301D01*
X137301066Y-70062535D01*
X137349765Y-70107046D01*
X137368741Y-70170235D01*
X137369469Y-70202637D01*
X137369500Y-70205422D01*
X137369500Y-74401425D01*
X137360061Y-74448878D01*
X137333181Y-74489106D01*
X137180031Y-74642255D01*
X137017109Y-74859891D01*
X136886831Y-75098480D01*
X136791823Y-75353203D01*
X136734039Y-75618838D01*
X136714644Y-75890000D01*
X136734039Y-76161161D01*
X136791823Y-76426796D01*
X136791825Y-76426801D01*
X136886828Y-76681513D01*
X136886830Y-76681517D01*
X136886831Y-76681519D01*
X137017109Y-76920108D01*
X137072219Y-76993726D01*
X137180029Y-77137742D01*
X137372258Y-77329971D01*
X137588281Y-77491685D01*
X137589891Y-77492890D01*
X137785802Y-77599864D01*
X137828487Y-77623172D01*
X138083199Y-77718175D01*
X138083202Y-77718175D01*
X138083203Y-77718176D01*
X138129523Y-77728252D01*
X138348840Y-77775961D01*
X138620000Y-77795355D01*
X138891160Y-77775961D01*
X139156801Y-77718175D01*
X139411513Y-77623172D01*
X139496265Y-77576894D01*
X147446658Y-77576894D01*
X147537244Y-77650593D01*
X147788548Y-77803413D01*
X148058323Y-77920593D01*
X148341549Y-77999950D01*
X148632936Y-78040000D01*
X148927064Y-78040000D01*
X149218450Y-77999950D01*
X149501676Y-77920593D01*
X149771451Y-77803413D01*
X150022760Y-77650590D01*
X150113340Y-77576895D01*
X150113341Y-77576894D01*
X148780001Y-76243553D01*
X148780000Y-76243553D01*
X147446658Y-77576894D01*
X139496265Y-77576894D01*
X139650113Y-77492887D01*
X139867742Y-77329971D01*
X140059971Y-77137742D01*
X140222887Y-76920113D01*
X140353172Y-76681513D01*
X140448175Y-76426801D01*
X140505961Y-76161160D01*
X140525355Y-75890000D01*
X140525355Y-75889999D01*
X146624975Y-75889999D01*
X146645048Y-76183446D01*
X146704888Y-76471417D01*
X146803386Y-76748560D01*
X146938705Y-77009716D01*
X147090991Y-77225453D01*
X148426446Y-75890001D01*
X149133553Y-75890001D01*
X150469007Y-77225453D01*
X150621293Y-77009715D01*
X150756613Y-76748560D01*
X150855111Y-76471417D01*
X150914951Y-76183446D01*
X150935024Y-75889999D01*
X150914951Y-75596553D01*
X150855111Y-75308582D01*
X150756613Y-75031439D01*
X150621294Y-74770283D01*
X150469007Y-74554545D01*
X149133553Y-75890000D01*
X149133553Y-75890001D01*
X148426446Y-75890001D01*
X148426446Y-75890000D01*
X147090991Y-74554545D01*
X147090990Y-74554545D01*
X146938707Y-74770280D01*
X146803386Y-75031439D01*
X146704888Y-75308582D01*
X146645048Y-75596553D01*
X146624975Y-75889999D01*
X140525355Y-75889999D01*
X140505961Y-75618840D01*
X140448175Y-75353199D01*
X140353172Y-75098487D01*
X140316561Y-75031439D01*
X140222890Y-74859891D01*
X140155810Y-74770283D01*
X140059971Y-74642258D01*
X139906819Y-74489106D01*
X139879939Y-74448878D01*
X139870500Y-74401425D01*
X139870500Y-74203104D01*
X147446657Y-74203104D01*
X148780000Y-75536446D01*
X148780001Y-75536446D01*
X150113341Y-74203104D01*
X150022755Y-74129406D01*
X149771451Y-73976586D01*
X149501676Y-73859406D01*
X149218450Y-73780049D01*
X148927064Y-73740000D01*
X148632936Y-73740000D01*
X148341549Y-73780049D01*
X148058323Y-73859406D01*
X147788548Y-73976586D01*
X147537241Y-74129409D01*
X147446657Y-74203104D01*
X139870500Y-74203104D01*
X139870500Y-70759336D01*
X139879939Y-70711883D01*
X139906819Y-70671655D01*
X140836311Y-69742163D01*
X142259672Y-68318801D01*
X142270021Y-68309553D01*
X142297666Y-68287508D01*
X142341261Y-68237608D01*
X142346952Y-68231522D01*
X142353945Y-68224530D01*
X142380158Y-68193130D01*
X142381783Y-68191227D01*
X142445765Y-68117996D01*
X142448008Y-68114240D01*
X142459269Y-68098371D01*
X142462068Y-68095019D01*
X142510008Y-68010529D01*
X142511375Y-68008182D01*
X142561214Y-67924765D01*
X142561215Y-67924764D01*
X142562749Y-67920674D01*
X142570998Y-67903041D01*
X142573153Y-67899245D01*
X142605253Y-67807507D01*
X142606153Y-67805023D01*
X142640307Y-67714024D01*
X142641087Y-67709723D01*
X142646052Y-67690913D01*
X142647498Y-67686783D01*
X142662708Y-67590746D01*
X142663144Y-67588181D01*
X142680500Y-67492547D01*
X142680500Y-67488170D01*
X142682027Y-67468771D01*
X142682710Y-67464460D01*
X142680531Y-67367378D01*
X142680500Y-67364596D01*
X142680500Y-64577176D01*
X142681280Y-64563291D01*
X142685237Y-64528171D01*
X142680781Y-64462077D01*
X142680500Y-64453736D01*
X142680500Y-64443847D01*
X142676844Y-64403226D01*
X142676626Y-64400452D01*
X142670096Y-64303588D01*
X142669028Y-64299352D01*
X142665768Y-64280169D01*
X142665377Y-64275812D01*
X142639533Y-64182169D01*
X142638839Y-64179543D01*
X142615096Y-64085316D01*
X142613290Y-64081340D01*
X142606655Y-64063040D01*
X142605493Y-64058830D01*
X142602916Y-64053479D01*
X142563340Y-63971299D01*
X142562189Y-63968839D01*
X142531669Y-63901646D01*
X142522008Y-63880375D01*
X142521062Y-63879010D01*
X142519517Y-63876780D01*
X142509724Y-63859962D01*
X142509343Y-63859172D01*
X142507829Y-63856027D01*
X142450740Y-63777450D01*
X142449162Y-63775228D01*
X142393820Y-63695346D01*
X142390734Y-63692260D01*
X142378091Y-63677458D01*
X142375522Y-63673922D01*
X142305299Y-63606782D01*
X142303310Y-63604836D01*
X141334555Y-62636081D01*
X141303613Y-62584519D01*
X141300568Y-62524463D01*
X141326134Y-62470041D01*
X141339698Y-62453407D01*
X141433909Y-62273049D01*
X141489886Y-62077418D01*
X141500500Y-61958037D01*
X141500499Y-59841964D01*
X141489886Y-59722582D01*
X141433909Y-59526951D01*
X141339698Y-59346593D01*
X141211109Y-59188891D01*
X141053407Y-59060302D01*
X141053406Y-59060301D01*
X140873050Y-58966091D01*
X140775233Y-58938102D01*
X140677418Y-58910114D01*
X140558037Y-58899500D01*
X140558033Y-58899500D01*
X138441966Y-58899500D01*
X138322582Y-58910114D01*
X138126949Y-58966091D01*
X137946593Y-59060301D01*
X137788891Y-59188891D01*
X137660301Y-59346593D01*
X137566091Y-59526949D01*
X137510114Y-59722582D01*
X137499500Y-59841966D01*
X137499500Y-61958033D01*
X137510114Y-62077417D01*
X137566091Y-62273050D01*
X137614122Y-62365000D01*
X137660302Y-62453407D01*
X137788891Y-62611109D01*
X137946593Y-62739698D01*
X138126951Y-62833909D01*
X138219887Y-62860501D01*
X138274842Y-62893443D01*
X138306017Y-62949418D01*
X138314902Y-62984680D01*
X138316712Y-62988664D01*
X138323342Y-63006950D01*
X138324506Y-63011168D01*
X138366657Y-63098699D01*
X138367835Y-63101217D01*
X138407992Y-63189625D01*
X138410483Y-63193220D01*
X138420271Y-63210029D01*
X138422170Y-63213974D01*
X138479258Y-63292548D01*
X138480868Y-63294817D01*
X138536178Y-63374652D01*
X138539268Y-63377742D01*
X138551905Y-63392537D01*
X138554478Y-63396078D01*
X138554479Y-63396079D01*
X138624699Y-63463216D01*
X138626688Y-63465162D01*
X139006159Y-63844633D01*
X139038626Y-63901646D01*
X139037456Y-63967245D01*
X139002978Y-64023065D01*
X138944843Y-64053479D01*
X138934958Y-64055629D01*
X138666836Y-64155634D01*
X138415686Y-64292772D01*
X138186602Y-64464263D01*
X137984261Y-64666604D01*
X137974376Y-64679810D01*
X137930614Y-64716384D01*
X137875109Y-64729500D01*
X131624000Y-64729500D01*
X131562000Y-64712887D01*
X131516613Y-64667500D01*
X131500000Y-64605500D01*
X131500000Y-62095793D01*
X132647757Y-62095793D01*
X132647758Y-62095794D01*
X132690484Y-62129050D01*
X132905473Y-62245396D01*
X133136665Y-62324766D01*
X133377778Y-62365000D01*
X133622222Y-62365000D01*
X133863334Y-62324766D01*
X134094526Y-62245396D01*
X134309515Y-62129050D01*
X134352240Y-62095794D01*
X134352241Y-62095793D01*
X133500000Y-61243553D01*
X132647757Y-62095793D01*
X131500000Y-62095793D01*
X131500000Y-60890000D01*
X132019944Y-60890000D01*
X132040130Y-61133604D01*
X132100139Y-61370574D01*
X132198330Y-61594428D01*
X132294626Y-61741820D01*
X133146447Y-60890001D01*
X133853553Y-60890001D01*
X134705372Y-61741820D01*
X134801668Y-61594429D01*
X134899860Y-61370574D01*
X134959869Y-61133604D01*
X134980055Y-60889999D01*
X134959869Y-60646395D01*
X134899860Y-60409425D01*
X134801669Y-60185571D01*
X134705372Y-60038178D01*
X133853553Y-60890000D01*
X133853553Y-60890001D01*
X133146447Y-60890001D01*
X133146447Y-60890000D01*
X132294625Y-60038178D01*
X132198329Y-60185571D01*
X132100139Y-60409424D01*
X132040130Y-60646395D01*
X132019944Y-60890000D01*
X131500000Y-60890000D01*
X131500000Y-59684205D01*
X132647758Y-59684205D01*
X133500000Y-60536447D01*
X133500001Y-60536447D01*
X134352240Y-59684205D01*
X134309514Y-59650949D01*
X134094526Y-59534603D01*
X133863334Y-59455233D01*
X133622222Y-59415000D01*
X133377778Y-59415000D01*
X133136665Y-59455233D01*
X132905473Y-59534603D01*
X132690485Y-59650949D01*
X132647758Y-59684205D01*
X131500000Y-59684205D01*
X131500000Y-54884428D01*
X131500316Y-54875582D01*
X131519724Y-54604214D01*
X131522240Y-54586710D01*
X131579130Y-54325192D01*
X131584107Y-54308241D01*
X131677640Y-54057470D01*
X131684985Y-54041388D01*
X131813248Y-53806491D01*
X131822798Y-53791630D01*
X131983195Y-53577366D01*
X131994767Y-53564012D01*
X132184012Y-53374767D01*
X132197366Y-53363195D01*
X132411630Y-53202798D01*
X132426491Y-53193248D01*
X132661388Y-53064985D01*
X132677470Y-53057640D01*
X132928241Y-52964107D01*
X132945192Y-52959130D01*
X133206710Y-52902240D01*
X133224207Y-52899724D01*
X133495581Y-52880316D01*
X133504428Y-52880000D01*
X149395572Y-52880000D01*
X149404418Y-52880316D01*
G37*
%TD.AperFunction*%
%TD*%
%TA.AperFunction,Conductor*%
%TO.N,/shielding*%
G36*
X162404418Y-65880316D02*
G01*
X162675790Y-65899724D01*
X162693291Y-65902241D01*
X162954803Y-65959129D01*
X162971762Y-65964108D01*
X163222524Y-66057638D01*
X163238616Y-66064987D01*
X163473501Y-66193244D01*
X163488375Y-66202802D01*
X163702624Y-66363188D01*
X163715994Y-66374774D01*
X163905225Y-66564005D01*
X163916811Y-66577375D01*
X164077193Y-66791619D01*
X164086758Y-66806503D01*
X164215011Y-67041382D01*
X164222361Y-67057475D01*
X164315888Y-67308229D01*
X164320872Y-67325205D01*
X164377757Y-67586702D01*
X164380275Y-67604214D01*
X164399684Y-67875582D01*
X164400000Y-67884428D01*
X164400000Y-77875572D01*
X164399684Y-77884418D01*
X164380275Y-78155785D01*
X164377757Y-78173297D01*
X164320872Y-78434794D01*
X164315888Y-78451770D01*
X164222361Y-78702524D01*
X164215011Y-78718617D01*
X164086758Y-78953496D01*
X164077193Y-78968380D01*
X163916811Y-79182624D01*
X163905225Y-79195994D01*
X163715994Y-79385225D01*
X163702624Y-79396811D01*
X163488380Y-79557193D01*
X163473496Y-79566758D01*
X163238617Y-79695011D01*
X163222524Y-79702361D01*
X162971770Y-79795888D01*
X162954794Y-79800872D01*
X162693297Y-79857757D01*
X162675785Y-79860275D01*
X162404418Y-79879684D01*
X162395572Y-79880000D01*
X154404428Y-79880000D01*
X154395582Y-79879684D01*
X154124214Y-79860275D01*
X154106702Y-79857757D01*
X153845205Y-79800872D01*
X153828229Y-79795888D01*
X153577475Y-79702361D01*
X153561382Y-79695011D01*
X153326503Y-79566758D01*
X153311619Y-79557193D01*
X153097375Y-79396811D01*
X153084005Y-79385225D01*
X152894774Y-79195994D01*
X152883188Y-79182624D01*
X152722802Y-78968375D01*
X152713244Y-78953501D01*
X152584987Y-78718616D01*
X152577638Y-78702524D01*
X152548684Y-78624895D01*
X152484108Y-78451762D01*
X152479129Y-78434803D01*
X152422241Y-78173291D01*
X152419724Y-78155785D01*
X152413893Y-78074261D01*
X154569289Y-78074261D01*
X154569290Y-78074262D01*
X154695216Y-78179926D01*
X154972584Y-78362355D01*
X155269257Y-78511350D01*
X155581220Y-78624895D01*
X155904265Y-78701458D01*
X156234009Y-78740000D01*
X156565991Y-78740000D01*
X156895734Y-78701458D01*
X157218779Y-78624895D01*
X157530742Y-78511350D01*
X157827415Y-78362355D01*
X158104783Y-78179927D01*
X158230708Y-78074262D01*
X158230709Y-78074261D01*
X156400000Y-76243553D01*
X154569289Y-78074261D01*
X152413893Y-78074261D01*
X152400316Y-77884418D01*
X152400000Y-77875572D01*
X152400000Y-75890000D01*
X153545169Y-75890000D01*
X153564473Y-76221426D01*
X153622120Y-76548363D01*
X153717338Y-76866409D01*
X153848832Y-77171247D01*
X154014823Y-77458754D01*
X154212358Y-77724088D01*
X156046447Y-75890000D01*
X156753553Y-75890000D01*
X158587640Y-77724088D01*
X158785176Y-77458754D01*
X158951167Y-77171247D01*
X159082661Y-76866409D01*
X159177879Y-76548363D01*
X159235526Y-76221426D01*
X159254830Y-75890000D01*
X159235526Y-75558573D01*
X159177879Y-75231636D01*
X159082661Y-74913590D01*
X158951167Y-74608752D01*
X158785176Y-74321245D01*
X158587640Y-74055910D01*
X156753553Y-75890000D01*
X156046447Y-75890000D01*
X154212357Y-74055910D01*
X154014826Y-74321241D01*
X153848832Y-74608752D01*
X153717338Y-74913590D01*
X153622120Y-75231636D01*
X153564473Y-75558573D01*
X153545169Y-75890000D01*
X152400000Y-75890000D01*
X152400000Y-73705736D01*
X154569289Y-73705736D01*
X156400000Y-75536447D01*
X156400001Y-75536447D01*
X158230709Y-73705737D01*
X158230708Y-73705736D01*
X158104783Y-73600073D01*
X157827415Y-73417644D01*
X157530742Y-73268649D01*
X157218779Y-73155104D01*
X156895734Y-73078541D01*
X156565991Y-73040000D01*
X156234009Y-73040000D01*
X155904265Y-73078541D01*
X155581220Y-73155104D01*
X155269257Y-73268649D01*
X154972584Y-73417644D01*
X154695216Y-73600072D01*
X154569289Y-73705736D01*
X152400000Y-73705736D01*
X152400000Y-67884428D01*
X152400316Y-67875582D01*
X152419724Y-67604214D01*
X152422240Y-67586710D01*
X152479130Y-67325192D01*
X152484107Y-67308241D01*
X152577640Y-67057470D01*
X152584985Y-67041388D01*
X152713248Y-66806491D01*
X152722798Y-66791630D01*
X152883195Y-66577366D01*
X152894767Y-66564012D01*
X153084012Y-66374767D01*
X153097366Y-66363195D01*
X153311630Y-66202798D01*
X153326491Y-66193248D01*
X153561388Y-66064985D01*
X153577470Y-66057640D01*
X153828241Y-65964107D01*
X153845192Y-65959130D01*
X154106710Y-65902240D01*
X154124207Y-65899724D01*
X154395581Y-65880316D01*
X154404428Y-65880000D01*
X162395572Y-65880000D01*
X162404418Y-65880316D01*
G37*
%TD.AperFunction*%
%TD*%
%TA.AperFunction,Conductor*%
%TO.N,/Vin*%
G36*
X128504418Y-129950316D02*
G01*
X128775790Y-129969724D01*
X128793291Y-129972241D01*
X129054803Y-130029129D01*
X129071762Y-130034108D01*
X129320639Y-130126935D01*
X129322524Y-130127638D01*
X129338616Y-130134987D01*
X129573501Y-130263244D01*
X129588375Y-130272802D01*
X129800143Y-130431331D01*
X129802624Y-130433188D01*
X129815994Y-130444774D01*
X130005225Y-130634005D01*
X130016811Y-130647375D01*
X130177193Y-130861619D01*
X130186758Y-130876503D01*
X130315011Y-131111382D01*
X130322361Y-131127475D01*
X130415888Y-131378229D01*
X130420872Y-131395205D01*
X130477757Y-131656702D01*
X130480275Y-131674214D01*
X130499684Y-131945582D01*
X130500000Y-131954428D01*
X130500000Y-145145572D01*
X130499684Y-145154418D01*
X130480275Y-145425785D01*
X130477757Y-145443297D01*
X130420872Y-145704794D01*
X130415888Y-145721770D01*
X130322361Y-145972524D01*
X130315011Y-145988617D01*
X130186758Y-146223496D01*
X130177193Y-146238380D01*
X130016811Y-146452624D01*
X130005225Y-146465994D01*
X129815994Y-146655225D01*
X129802624Y-146666811D01*
X129588380Y-146827193D01*
X129573496Y-146836758D01*
X129338617Y-146965011D01*
X129322524Y-146972361D01*
X129071770Y-147065888D01*
X129054794Y-147070872D01*
X128793297Y-147127757D01*
X128775785Y-147130275D01*
X128504418Y-147149684D01*
X128495572Y-147150000D01*
X112596626Y-147150000D01*
X112587802Y-147149686D01*
X112317096Y-147130373D01*
X112299626Y-147127867D01*
X112038744Y-147071261D01*
X112021807Y-147066301D01*
X111771605Y-146973233D01*
X111755544Y-146965919D01*
X111521082Y-146838271D01*
X111506222Y-146828751D01*
X111446507Y-146784198D01*
X111292250Y-146669107D01*
X111278900Y-146657579D01*
X111089760Y-146469176D01*
X111078178Y-146455867D01*
X110917707Y-146242531D01*
X110908136Y-146227721D01*
X110779561Y-145993738D01*
X110772189Y-145977714D01*
X110754236Y-145930021D01*
X110678142Y-145727871D01*
X110673120Y-145710972D01*
X110615489Y-145450284D01*
X110612919Y-145432839D01*
X110600350Y-145265850D01*
X110600000Y-145256543D01*
X110600000Y-141192375D01*
X110602744Y-141166435D01*
X110655194Y-140921344D01*
X110660127Y-140904345D01*
X110753132Y-140652671D01*
X110760446Y-140636535D01*
X110888404Y-140400706D01*
X110897944Y-140385780D01*
X110920284Y-140355793D01*
X127647757Y-140355793D01*
X127647758Y-140355794D01*
X127690484Y-140389050D01*
X127905473Y-140505396D01*
X128136665Y-140584766D01*
X128377778Y-140625000D01*
X128622222Y-140625000D01*
X128863334Y-140584766D01*
X129094526Y-140505396D01*
X129309515Y-140389050D01*
X129352240Y-140355794D01*
X129352241Y-140355793D01*
X128500000Y-139503553D01*
X127647757Y-140355793D01*
X110920284Y-140355793D01*
X111058231Y-140170629D01*
X111069814Y-140157204D01*
X111259154Y-139967123D01*
X111272529Y-139955492D01*
X111487052Y-139794367D01*
X111501944Y-139784766D01*
X111737280Y-139655882D01*
X111753376Y-139648511D01*
X112004674Y-139554528D01*
X112021679Y-139549522D01*
X112283810Y-139492352D01*
X112301352Y-139489822D01*
X112573406Y-139470317D01*
X112582275Y-139470000D01*
X117476297Y-139470000D01*
X119470000Y-139470000D01*
X119471008Y-139150000D01*
X127019944Y-139150000D01*
X127040130Y-139393604D01*
X127100139Y-139630574D01*
X127198330Y-139854428D01*
X127294626Y-140001820D01*
X128146447Y-139150001D01*
X128146447Y-139150000D01*
X128853553Y-139150000D01*
X129705372Y-140001820D01*
X129801668Y-139854429D01*
X129899860Y-139630574D01*
X129959869Y-139393604D01*
X129980055Y-139149999D01*
X129959869Y-138906395D01*
X129899860Y-138669425D01*
X129801669Y-138445571D01*
X129705372Y-138298178D01*
X128853553Y-139150000D01*
X128146447Y-139150000D01*
X127294625Y-138298178D01*
X127198329Y-138445571D01*
X127100139Y-138669424D01*
X127040130Y-138906395D01*
X127019944Y-139150000D01*
X119471008Y-139150000D01*
X119474808Y-137944205D01*
X127647758Y-137944205D01*
X128500000Y-138796447D01*
X128500001Y-138796447D01*
X129352240Y-137944205D01*
X129309514Y-137910949D01*
X129094526Y-137794603D01*
X128863334Y-137715233D01*
X128622222Y-137675000D01*
X128377778Y-137675000D01*
X128136665Y-137715233D01*
X127905473Y-137794603D01*
X127690485Y-137910949D01*
X127647758Y-137944205D01*
X119474808Y-137944205D01*
X119493703Y-131948122D01*
X119494045Y-131939297D01*
X119514230Y-131668526D01*
X119516793Y-131651056D01*
X119574276Y-131390231D01*
X119579292Y-131373309D01*
X119673242Y-131123277D01*
X119680605Y-131107253D01*
X119809118Y-130873096D01*
X119818680Y-130858283D01*
X119979150Y-130644749D01*
X119990727Y-130631436D01*
X120179885Y-130442873D01*
X120193234Y-130431338D01*
X120407274Y-130271540D01*
X120422120Y-130262024D01*
X120655327Y-130134988D01*
X120656671Y-130134256D01*
X120672730Y-130126937D01*
X120923063Y-130033773D01*
X120939973Y-130028818D01*
X121201009Y-129972150D01*
X121218470Y-129969646D01*
X121453920Y-129952839D01*
X121489295Y-129950315D01*
X121498123Y-129950000D01*
X128495572Y-129950000D01*
X128504418Y-129950316D01*
G37*
%TD.AperFunction*%
%TD*%
%TA.AperFunction,Conductor*%
%TO.N,/shielding*%
G36*
X107604418Y-65880316D02*
G01*
X107875790Y-65899724D01*
X107893291Y-65902241D01*
X108154803Y-65959129D01*
X108171762Y-65964108D01*
X108422524Y-66057638D01*
X108438616Y-66064987D01*
X108673501Y-66193244D01*
X108688375Y-66202802D01*
X108902624Y-66363188D01*
X108915994Y-66374774D01*
X109105225Y-66564005D01*
X109116811Y-66577375D01*
X109277193Y-66791619D01*
X109286758Y-66806503D01*
X109415011Y-67041382D01*
X109422361Y-67057475D01*
X109515888Y-67308229D01*
X109520872Y-67325205D01*
X109577757Y-67586702D01*
X109580275Y-67604214D01*
X109599684Y-67875582D01*
X109600000Y-67884428D01*
X109600000Y-77875572D01*
X109599684Y-77884418D01*
X109580275Y-78155785D01*
X109577757Y-78173297D01*
X109520872Y-78434794D01*
X109515888Y-78451770D01*
X109422361Y-78702524D01*
X109415011Y-78718617D01*
X109286758Y-78953496D01*
X109277193Y-78968380D01*
X109116811Y-79182624D01*
X109105225Y-79195994D01*
X108915994Y-79385225D01*
X108902624Y-79396811D01*
X108688380Y-79557193D01*
X108673496Y-79566758D01*
X108438617Y-79695011D01*
X108422524Y-79702361D01*
X108171770Y-79795888D01*
X108154794Y-79800872D01*
X107893297Y-79857757D01*
X107875785Y-79860275D01*
X107604418Y-79879684D01*
X107595572Y-79880000D01*
X99604428Y-79880000D01*
X99595582Y-79879684D01*
X99324214Y-79860275D01*
X99306702Y-79857757D01*
X99045205Y-79800872D01*
X99028229Y-79795888D01*
X98777475Y-79702361D01*
X98761382Y-79695011D01*
X98526503Y-79566758D01*
X98511619Y-79557193D01*
X98297375Y-79396811D01*
X98284005Y-79385225D01*
X98094774Y-79195994D01*
X98083188Y-79182624D01*
X97922802Y-78968375D01*
X97913244Y-78953501D01*
X97784987Y-78718616D01*
X97777638Y-78702524D01*
X97748684Y-78624895D01*
X97684108Y-78451762D01*
X97679129Y-78434803D01*
X97622241Y-78173291D01*
X97619724Y-78155785D01*
X97613893Y-78074261D01*
X103769289Y-78074261D01*
X103769290Y-78074262D01*
X103895216Y-78179926D01*
X104172584Y-78362355D01*
X104469257Y-78511350D01*
X104781220Y-78624895D01*
X105104265Y-78701458D01*
X105434009Y-78740000D01*
X105765991Y-78740000D01*
X106095734Y-78701458D01*
X106418779Y-78624895D01*
X106730742Y-78511350D01*
X107027415Y-78362355D01*
X107304783Y-78179927D01*
X107430708Y-78074262D01*
X107430709Y-78074261D01*
X105600000Y-76243553D01*
X103769289Y-78074261D01*
X97613893Y-78074261D01*
X97600316Y-77884418D01*
X97600000Y-77875572D01*
X97600000Y-75889999D01*
X102745169Y-75889999D01*
X102764473Y-76221426D01*
X102822120Y-76548363D01*
X102917338Y-76866409D01*
X103048832Y-77171247D01*
X103214823Y-77458754D01*
X103412358Y-77724088D01*
X105246447Y-75890000D01*
X105953553Y-75890000D01*
X107787640Y-77724088D01*
X107985176Y-77458754D01*
X108151167Y-77171247D01*
X108282661Y-76866409D01*
X108377879Y-76548363D01*
X108435526Y-76221426D01*
X108454830Y-75889999D01*
X108435526Y-75558573D01*
X108377879Y-75231636D01*
X108282661Y-74913590D01*
X108151167Y-74608752D01*
X107985176Y-74321245D01*
X107787640Y-74055910D01*
X105953553Y-75890000D01*
X105246447Y-75890000D01*
X103412357Y-74055910D01*
X103214826Y-74321241D01*
X103048832Y-74608752D01*
X102917338Y-74913590D01*
X102822120Y-75231636D01*
X102764473Y-75558573D01*
X102745169Y-75889999D01*
X97600000Y-75889999D01*
X97600000Y-73705736D01*
X103769289Y-73705736D01*
X105600000Y-75536447D01*
X105600001Y-75536447D01*
X107430709Y-73705737D01*
X107430708Y-73705736D01*
X107304783Y-73600073D01*
X107027415Y-73417644D01*
X106730742Y-73268649D01*
X106418779Y-73155104D01*
X106095734Y-73078541D01*
X105765991Y-73040000D01*
X105434009Y-73040000D01*
X105104265Y-73078541D01*
X104781220Y-73155104D01*
X104469257Y-73268649D01*
X104172584Y-73417644D01*
X103895216Y-73600072D01*
X103769289Y-73705736D01*
X97600000Y-73705736D01*
X97600000Y-67884428D01*
X97600316Y-67875582D01*
X97619724Y-67604214D01*
X97622240Y-67586710D01*
X97679130Y-67325192D01*
X97684107Y-67308241D01*
X97777640Y-67057470D01*
X97784985Y-67041388D01*
X97913248Y-66806491D01*
X97922798Y-66791630D01*
X98083195Y-66577366D01*
X98094767Y-66564012D01*
X98284012Y-66374767D01*
X98297366Y-66363195D01*
X98511630Y-66202798D01*
X98526491Y-66193248D01*
X98761388Y-66064985D01*
X98777470Y-66057640D01*
X99028241Y-65964107D01*
X99045192Y-65959130D01*
X99306710Y-65902240D01*
X99324207Y-65899724D01*
X99595581Y-65880316D01*
X99604428Y-65880000D01*
X107595572Y-65880000D01*
X107604418Y-65880316D01*
G37*
%TD.AperFunction*%
%TD*%
%TA.AperFunction,Conductor*%
%TO.N,/shielding*%
G36*
X162404418Y-120150316D02*
G01*
X162675790Y-120169724D01*
X162693291Y-120172241D01*
X162954803Y-120229129D01*
X162971762Y-120234108D01*
X163222524Y-120327638D01*
X163238616Y-120334987D01*
X163473501Y-120463244D01*
X163488375Y-120472802D01*
X163702624Y-120633188D01*
X163715994Y-120644774D01*
X163905225Y-120834005D01*
X163916811Y-120847375D01*
X164077193Y-121061619D01*
X164086758Y-121076503D01*
X164215011Y-121311382D01*
X164222361Y-121327475D01*
X164315888Y-121578229D01*
X164320872Y-121595205D01*
X164377757Y-121856702D01*
X164380275Y-121874214D01*
X164399684Y-122145582D01*
X164400000Y-122154428D01*
X164400000Y-132145572D01*
X164399684Y-132154418D01*
X164380275Y-132425785D01*
X164377757Y-132443297D01*
X164320872Y-132704794D01*
X164315888Y-132721770D01*
X164222361Y-132972524D01*
X164215011Y-132988617D01*
X164086758Y-133223496D01*
X164077193Y-133238380D01*
X163916811Y-133452624D01*
X163905225Y-133465994D01*
X163715994Y-133655225D01*
X163702624Y-133666811D01*
X163488380Y-133827193D01*
X163473496Y-133836758D01*
X163238617Y-133965011D01*
X163222524Y-133972361D01*
X162971770Y-134065888D01*
X162954794Y-134070872D01*
X162693297Y-134127757D01*
X162675785Y-134130275D01*
X162404418Y-134149684D01*
X162395572Y-134150000D01*
X154404428Y-134150000D01*
X154395582Y-134149684D01*
X154124214Y-134130275D01*
X154106702Y-134127757D01*
X153845205Y-134070872D01*
X153828229Y-134065888D01*
X153577475Y-133972361D01*
X153561382Y-133965011D01*
X153326503Y-133836758D01*
X153311619Y-133827193D01*
X153097375Y-133666811D01*
X153084005Y-133655225D01*
X152894774Y-133465994D01*
X152883188Y-133452624D01*
X152722802Y-133238375D01*
X152713244Y-133223501D01*
X152584987Y-132988616D01*
X152577638Y-132972524D01*
X152484108Y-132721762D01*
X152479129Y-132704803D01*
X152422241Y-132443291D01*
X152419724Y-132425785D01*
X152400316Y-132154418D01*
X152400000Y-132145572D01*
X152400000Y-126334261D01*
X154569289Y-126334261D01*
X154569290Y-126334262D01*
X154695216Y-126439926D01*
X154972584Y-126622355D01*
X155269257Y-126771350D01*
X155581220Y-126884895D01*
X155904265Y-126961458D01*
X156234009Y-127000000D01*
X156565991Y-127000000D01*
X156895734Y-126961458D01*
X157218779Y-126884895D01*
X157530742Y-126771350D01*
X157827415Y-126622355D01*
X158104783Y-126439927D01*
X158230708Y-126334262D01*
X158230709Y-126334261D01*
X156400000Y-124503553D01*
X154569289Y-126334261D01*
X152400000Y-126334261D01*
X152400000Y-124149999D01*
X153545169Y-124149999D01*
X153564473Y-124481426D01*
X153622120Y-124808363D01*
X153717338Y-125126409D01*
X153848832Y-125431247D01*
X154014823Y-125718754D01*
X154212358Y-125984088D01*
X156046447Y-124150000D01*
X156753553Y-124150000D01*
X158587640Y-125984088D01*
X158785176Y-125718754D01*
X158951167Y-125431247D01*
X159082661Y-125126409D01*
X159177879Y-124808363D01*
X159235526Y-124481426D01*
X159254830Y-124149999D01*
X159235526Y-123818573D01*
X159177879Y-123491636D01*
X159082661Y-123173590D01*
X158951167Y-122868752D01*
X158785176Y-122581245D01*
X158587640Y-122315910D01*
X156753553Y-124150000D01*
X156046447Y-124150000D01*
X154212357Y-122315910D01*
X154014826Y-122581241D01*
X153848832Y-122868752D01*
X153717338Y-123173590D01*
X153622120Y-123491636D01*
X153564473Y-123818573D01*
X153545169Y-124149999D01*
X152400000Y-124149999D01*
X152400000Y-122154428D01*
X152400316Y-122145582D01*
X152401131Y-122134180D01*
X152413178Y-121965736D01*
X154569289Y-121965736D01*
X156400000Y-123796447D01*
X156400001Y-123796447D01*
X158230709Y-121965737D01*
X158230708Y-121965736D01*
X158104783Y-121860073D01*
X157827415Y-121677644D01*
X157530742Y-121528649D01*
X157218779Y-121415104D01*
X156895734Y-121338541D01*
X156565991Y-121300000D01*
X156234009Y-121300000D01*
X155904265Y-121338541D01*
X155581220Y-121415104D01*
X155269257Y-121528649D01*
X154972584Y-121677644D01*
X154695216Y-121860072D01*
X154569289Y-121965736D01*
X152413178Y-121965736D01*
X152419724Y-121874207D01*
X152422240Y-121856710D01*
X152479130Y-121595192D01*
X152484107Y-121578241D01*
X152577640Y-121327470D01*
X152584985Y-121311388D01*
X152713248Y-121076491D01*
X152722798Y-121061630D01*
X152883195Y-120847366D01*
X152894767Y-120834012D01*
X153084012Y-120644767D01*
X153097366Y-120633195D01*
X153311630Y-120472798D01*
X153326491Y-120463248D01*
X153561388Y-120334985D01*
X153577470Y-120327640D01*
X153828241Y-120234107D01*
X153845192Y-120229130D01*
X154106710Y-120172240D01*
X154124207Y-120169724D01*
X154395581Y-120150316D01*
X154404428Y-120150000D01*
X162395572Y-120150000D01*
X162404418Y-120150316D01*
G37*
%TD.AperFunction*%
%TD*%
%TA.AperFunction,Conductor*%
%TO.N,/Vout+*%
G36*
X128504418Y-52880316D02*
G01*
X128775790Y-52899724D01*
X128793291Y-52902241D01*
X129054803Y-52959129D01*
X129071762Y-52964108D01*
X129322524Y-53057638D01*
X129338616Y-53064987D01*
X129573501Y-53193244D01*
X129588375Y-53202802D01*
X129802624Y-53363188D01*
X129815994Y-53374774D01*
X130005225Y-53564005D01*
X130016811Y-53577375D01*
X130177193Y-53791619D01*
X130186758Y-53806503D01*
X130315011Y-54041382D01*
X130322361Y-54057475D01*
X130415888Y-54308229D01*
X130420872Y-54325205D01*
X130477757Y-54586702D01*
X130480275Y-54604214D01*
X130499684Y-54875582D01*
X130500000Y-54884428D01*
X130500000Y-64605500D01*
X130483387Y-64667500D01*
X130438000Y-64712887D01*
X130376000Y-64729500D01*
X128329337Y-64729500D01*
X128281884Y-64720061D01*
X128241656Y-64693181D01*
X125644267Y-62095793D01*
X127647757Y-62095793D01*
X127647758Y-62095794D01*
X127690484Y-62129050D01*
X127905473Y-62245396D01*
X128136665Y-62324766D01*
X128377778Y-62365000D01*
X128622222Y-62365000D01*
X128863334Y-62324766D01*
X129094526Y-62245396D01*
X129309515Y-62129050D01*
X129352240Y-62095794D01*
X129352241Y-62095793D01*
X128500000Y-61243553D01*
X127647757Y-62095793D01*
X125644267Y-62095793D01*
X124529824Y-60981350D01*
X124501323Y-60937002D01*
X124494565Y-60889999D01*
X127019944Y-60889999D01*
X127040130Y-61133604D01*
X127100139Y-61370574D01*
X127198330Y-61594428D01*
X127294626Y-61741820D01*
X128146447Y-60890001D01*
X128146447Y-60890000D01*
X128853553Y-60890000D01*
X129705372Y-61741820D01*
X129801668Y-61594429D01*
X129899860Y-61370574D01*
X129959869Y-61133604D01*
X129980055Y-60889999D01*
X129959869Y-60646395D01*
X129899860Y-60409425D01*
X129801669Y-60185571D01*
X129705372Y-60038178D01*
X128853553Y-60890000D01*
X128146447Y-60890000D01*
X127294625Y-60038178D01*
X127198329Y-60185571D01*
X127100139Y-60409424D01*
X127040130Y-60646395D01*
X127019944Y-60889999D01*
X124494565Y-60889999D01*
X124493821Y-60884822D01*
X124505610Y-60719999D01*
X124492482Y-60536447D01*
X124485196Y-60434572D01*
X124424369Y-60154954D01*
X124324367Y-59886839D01*
X124213720Y-59684205D01*
X127647758Y-59684205D01*
X128500000Y-60536447D01*
X128500001Y-60536447D01*
X129352240Y-59684205D01*
X129309514Y-59650949D01*
X129094526Y-59534603D01*
X128863334Y-59455233D01*
X128622222Y-59415000D01*
X128377778Y-59415000D01*
X128136665Y-59455233D01*
X127905473Y-59534603D01*
X127690485Y-59650949D01*
X127647758Y-59684205D01*
X124213720Y-59684205D01*
X124187226Y-59635685D01*
X124015739Y-59406605D01*
X123813395Y-59204261D01*
X123698854Y-59118517D01*
X123584313Y-59032772D01*
X123333163Y-58895634D01*
X123333162Y-58895633D01*
X123333161Y-58895633D01*
X123065046Y-58795631D01*
X123065041Y-58795629D01*
X122785429Y-58734804D01*
X122500000Y-58714389D01*
X122214570Y-58734804D01*
X121934958Y-58795629D01*
X121666836Y-58895634D01*
X121415686Y-59032772D01*
X121186602Y-59204263D01*
X120984263Y-59406602D01*
X120812772Y-59635686D01*
X120675634Y-59886836D01*
X120575629Y-60154958D01*
X120514804Y-60434570D01*
X120494389Y-60720000D01*
X120514804Y-61005429D01*
X120575629Y-61285041D01*
X120675634Y-61553163D01*
X120812772Y-61804313D01*
X120898517Y-61918854D01*
X120984261Y-62033395D01*
X121186605Y-62235739D01*
X121358414Y-62364354D01*
X121415686Y-62407227D01*
X121555435Y-62483535D01*
X121666839Y-62544367D01*
X121934954Y-62644369D01*
X121934957Y-62644369D01*
X121934958Y-62644370D01*
X121987217Y-62655738D01*
X122214572Y-62705196D01*
X122478012Y-62724037D01*
X122499999Y-62725610D01*
X122499999Y-62725609D01*
X122500000Y-62725610D01*
X122664822Y-62713821D01*
X122717002Y-62721323D01*
X122761350Y-62749824D01*
X123599345Y-63587819D01*
X123629595Y-63637182D01*
X123634137Y-63694898D01*
X123611982Y-63748385D01*
X123567959Y-63785985D01*
X123511664Y-63799500D01*
X121441966Y-63799500D01*
X121322582Y-63810114D01*
X121126949Y-63866091D01*
X120946593Y-63960301D01*
X120788891Y-64088891D01*
X120660301Y-64246593D01*
X120566091Y-64426949D01*
X120515002Y-64605500D01*
X120510114Y-64622582D01*
X120506121Y-64667500D01*
X120499500Y-64741966D01*
X120499500Y-66858033D01*
X120508966Y-66964508D01*
X120510114Y-66977418D01*
X120533743Y-67059997D01*
X120566091Y-67173050D01*
X120660301Y-67353406D01*
X120660302Y-67353407D01*
X120788891Y-67511109D01*
X120946593Y-67639698D01*
X121126951Y-67733909D01*
X121322582Y-67789886D01*
X121441963Y-67800500D01*
X122005500Y-67800500D01*
X122067500Y-67817113D01*
X122112887Y-67862500D01*
X122129500Y-67924500D01*
X122129500Y-74401425D01*
X122120061Y-74448878D01*
X122093181Y-74489106D01*
X121940031Y-74642255D01*
X121777109Y-74859891D01*
X121646831Y-75098480D01*
X121551823Y-75353203D01*
X121494039Y-75618838D01*
X121474644Y-75890000D01*
X121494039Y-76161161D01*
X121551823Y-76426796D01*
X121551825Y-76426801D01*
X121646828Y-76681513D01*
X121646830Y-76681517D01*
X121646831Y-76681519D01*
X121777109Y-76920108D01*
X121832219Y-76993726D01*
X121940029Y-77137742D01*
X122132258Y-77329971D01*
X122348281Y-77491685D01*
X122349891Y-77492890D01*
X122545802Y-77599864D01*
X122588487Y-77623172D01*
X122843199Y-77718175D01*
X122843202Y-77718175D01*
X122843203Y-77718176D01*
X122889523Y-77728252D01*
X123108840Y-77775961D01*
X123380000Y-77795355D01*
X123651160Y-77775961D01*
X123916801Y-77718175D01*
X124171513Y-77623172D01*
X124410113Y-77492887D01*
X124627742Y-77329971D01*
X124819971Y-77137742D01*
X124982887Y-76920113D01*
X125113172Y-76681513D01*
X125208175Y-76426801D01*
X125265961Y-76161160D01*
X125285355Y-75890000D01*
X125265961Y-75618840D01*
X125208175Y-75353199D01*
X125113172Y-75098487D01*
X125076561Y-75031439D01*
X124982890Y-74859891D01*
X124915810Y-74770283D01*
X124819971Y-74642258D01*
X124666819Y-74489106D01*
X124639939Y-74448878D01*
X124630500Y-74401425D01*
X124630500Y-66757186D01*
X124631280Y-66743302D01*
X124635238Y-66708173D01*
X124630781Y-66642068D01*
X124630500Y-66633726D01*
X124630500Y-66623850D01*
X124630500Y-66623845D01*
X124626839Y-66583178D01*
X124626630Y-66580516D01*
X124620096Y-66483588D01*
X124619028Y-66479352D01*
X124615768Y-66460169D01*
X124615377Y-66455812D01*
X124589527Y-66362152D01*
X124588832Y-66359514D01*
X124565097Y-66265322D01*
X124565096Y-66265317D01*
X124563285Y-66261331D01*
X124556656Y-66243046D01*
X124555493Y-66238830D01*
X124513323Y-66151262D01*
X124512179Y-66148816D01*
X124511580Y-66147497D01*
X124500499Y-66096259D01*
X124500499Y-64788335D01*
X124514014Y-64732040D01*
X124551614Y-64688017D01*
X124605101Y-64665862D01*
X124662817Y-64670404D01*
X124712180Y-64700654D01*
X126821182Y-66809656D01*
X126830448Y-66820024D01*
X126852493Y-66847667D01*
X126902394Y-66891265D01*
X126908494Y-66896968D01*
X126915467Y-66903942D01*
X126946740Y-66930051D01*
X126948853Y-66931856D01*
X127001003Y-66977417D01*
X127022004Y-66995765D01*
X127025760Y-66998009D01*
X127041624Y-67009266D01*
X127044978Y-67012066D01*
X127044979Y-67012067D01*
X127044981Y-67012068D01*
X127125629Y-67057829D01*
X127129450Y-67059997D01*
X127131854Y-67061397D01*
X127215236Y-67111215D01*
X127215239Y-67111216D01*
X127219323Y-67112749D01*
X127236953Y-67120996D01*
X127240753Y-67123152D01*
X127240755Y-67123153D01*
X127332468Y-67155245D01*
X127334998Y-67156162D01*
X127425976Y-67190307D01*
X127429972Y-67191032D01*
X127430269Y-67191086D01*
X127449088Y-67196053D01*
X127453217Y-67197498D01*
X127549251Y-67212707D01*
X127551847Y-67213149D01*
X127615369Y-67224677D01*
X127647452Y-67230500D01*
X127647453Y-67230500D01*
X127651830Y-67230500D01*
X127671226Y-67232026D01*
X127675540Y-67232710D01*
X127770299Y-67230583D01*
X127772622Y-67230531D01*
X127775404Y-67230500D01*
X130376000Y-67230500D01*
X130438000Y-67247113D01*
X130483387Y-67292500D01*
X130500000Y-67354500D01*
X130500000Y-70990163D01*
X130490561Y-71037616D01*
X130463681Y-71077844D01*
X130170343Y-71371181D01*
X130159980Y-71380443D01*
X130132335Y-71402491D01*
X130088735Y-71452392D01*
X130083050Y-71458473D01*
X130076059Y-71465464D01*
X130049928Y-71496764D01*
X130048124Y-71498876D01*
X129984235Y-71572003D01*
X129981986Y-71575767D01*
X129970739Y-71591617D01*
X129967932Y-71594979D01*
X129919978Y-71679490D01*
X129918604Y-71681849D01*
X129869719Y-71763671D01*
X129868782Y-71765241D01*
X129867246Y-71769335D01*
X129859009Y-71786944D01*
X129856847Y-71790753D01*
X129824762Y-71882444D01*
X129823814Y-71885057D01*
X129789691Y-71975978D01*
X129788910Y-71980282D01*
X129783950Y-71999077D01*
X129782501Y-72003217D01*
X129767304Y-72099166D01*
X129766838Y-72101907D01*
X129749500Y-72197450D01*
X129749500Y-72201830D01*
X129747973Y-72221229D01*
X129747290Y-72225539D01*
X129749469Y-72322640D01*
X129749500Y-72325422D01*
X129749500Y-74401425D01*
X129740061Y-74448878D01*
X129713181Y-74489106D01*
X129560031Y-74642255D01*
X129397109Y-74859891D01*
X129266831Y-75098480D01*
X129171823Y-75353203D01*
X129114039Y-75618838D01*
X129094644Y-75890000D01*
X129114039Y-76161161D01*
X129171823Y-76426796D01*
X129171825Y-76426801D01*
X129266828Y-76681513D01*
X129266830Y-76681517D01*
X129266831Y-76681519D01*
X129397109Y-76920108D01*
X129452219Y-76993726D01*
X129560029Y-77137742D01*
X129752258Y-77329971D01*
X129968281Y-77491685D01*
X129969891Y-77492890D01*
X130165802Y-77599864D01*
X130208487Y-77623172D01*
X130419338Y-77701815D01*
X130461570Y-77728252D01*
X130489988Y-77769182D01*
X130500000Y-77817995D01*
X130500000Y-83005572D01*
X130499684Y-83014418D01*
X130480275Y-83285785D01*
X130477757Y-83303297D01*
X130420872Y-83564794D01*
X130415888Y-83581770D01*
X130322361Y-83832524D01*
X130315011Y-83848617D01*
X130186758Y-84083496D01*
X130177193Y-84098380D01*
X130016811Y-84312624D01*
X130005225Y-84325994D01*
X129815994Y-84515225D01*
X129802624Y-84526811D01*
X129588380Y-84687193D01*
X129573496Y-84696758D01*
X129338617Y-84825011D01*
X129322524Y-84832361D01*
X129071770Y-84925888D01*
X129054794Y-84930872D01*
X128793297Y-84987757D01*
X128775785Y-84990275D01*
X128504418Y-85009684D01*
X128495572Y-85010000D01*
X118500000Y-85010000D01*
X118500000Y-87009999D01*
X118500000Y-92985572D01*
X118499684Y-92994418D01*
X118480275Y-93265785D01*
X118477757Y-93283297D01*
X118420872Y-93544794D01*
X118415888Y-93561770D01*
X118322361Y-93812524D01*
X118315011Y-93828617D01*
X118186758Y-94063496D01*
X118177193Y-94078380D01*
X118016811Y-94292624D01*
X118005225Y-94305994D01*
X117815994Y-94495225D01*
X117802624Y-94506811D01*
X117588380Y-94667193D01*
X117573496Y-94676758D01*
X117338617Y-94805011D01*
X117322524Y-94812361D01*
X117071770Y-94905888D01*
X117054794Y-94910872D01*
X116793297Y-94967757D01*
X116775785Y-94970275D01*
X116504418Y-94989684D01*
X116495572Y-94990000D01*
X99604428Y-94990000D01*
X99595582Y-94989684D01*
X99324214Y-94970275D01*
X99306702Y-94967757D01*
X99045205Y-94910872D01*
X99028229Y-94905888D01*
X98777475Y-94812361D01*
X98761382Y-94805011D01*
X98526503Y-94676758D01*
X98511619Y-94667193D01*
X98297375Y-94506811D01*
X98284005Y-94495225D01*
X98094774Y-94305994D01*
X98083188Y-94292624D01*
X97922802Y-94078375D01*
X97913244Y-94063501D01*
X97784987Y-93828616D01*
X97777638Y-93812524D01*
X97684108Y-93561762D01*
X97679129Y-93544803D01*
X97622241Y-93283291D01*
X97619724Y-93265785D01*
X97600316Y-92994418D01*
X97600000Y-92985572D01*
X97600000Y-82884428D01*
X97600316Y-82875582D01*
X97619724Y-82604214D01*
X97622240Y-82586710D01*
X97679130Y-82325192D01*
X97684107Y-82308241D01*
X97777640Y-82057470D01*
X97784985Y-82041388D01*
X97913248Y-81806491D01*
X97922798Y-81791630D01*
X98083195Y-81577366D01*
X98094767Y-81564012D01*
X98284012Y-81374767D01*
X98297366Y-81363195D01*
X98511630Y-81202798D01*
X98526491Y-81193248D01*
X98761388Y-81064985D01*
X98777470Y-81057640D01*
X99028241Y-80964107D01*
X99045192Y-80959130D01*
X99306710Y-80902240D01*
X99324207Y-80899724D01*
X99595581Y-80880316D01*
X99604428Y-80880000D01*
X108600001Y-80880000D01*
X110600000Y-80880000D01*
X110600000Y-77576894D01*
X111886658Y-77576894D01*
X111977244Y-77650593D01*
X112228548Y-77803413D01*
X112498323Y-77920593D01*
X112781549Y-77999950D01*
X113072936Y-78040000D01*
X113367064Y-78040000D01*
X113658450Y-77999950D01*
X113941676Y-77920593D01*
X114211451Y-77803413D01*
X114462760Y-77650590D01*
X114553340Y-77576895D01*
X114553341Y-77576894D01*
X113220001Y-76243553D01*
X113220000Y-76243553D01*
X111886658Y-77576894D01*
X110600000Y-77576894D01*
X110600000Y-75889999D01*
X111064975Y-75889999D01*
X111085048Y-76183446D01*
X111144888Y-76471417D01*
X111243386Y-76748560D01*
X111378705Y-77009716D01*
X111530991Y-77225453D01*
X112866446Y-75890001D01*
X113573553Y-75890001D01*
X114909007Y-77225453D01*
X115061293Y-77009715D01*
X115196613Y-76748560D01*
X115295111Y-76471417D01*
X115354951Y-76183446D01*
X115375024Y-75889999D01*
X115354951Y-75596553D01*
X115295111Y-75308582D01*
X115196613Y-75031439D01*
X115061294Y-74770283D01*
X114909007Y-74554545D01*
X113573553Y-75890000D01*
X113573553Y-75890001D01*
X112866446Y-75890001D01*
X112866446Y-75890000D01*
X111530991Y-74554545D01*
X111530990Y-74554545D01*
X111378707Y-74770280D01*
X111243386Y-75031439D01*
X111144888Y-75308582D01*
X111085048Y-75596553D01*
X111064975Y-75889999D01*
X110600000Y-75889999D01*
X110600000Y-74203104D01*
X111886657Y-74203104D01*
X113220000Y-75536446D01*
X113220001Y-75536446D01*
X114553341Y-74203104D01*
X114462755Y-74129406D01*
X114211451Y-73976586D01*
X113941676Y-73859406D01*
X113658450Y-73780049D01*
X113367064Y-73740000D01*
X113072936Y-73740000D01*
X112781549Y-73780049D01*
X112498323Y-73859406D01*
X112228548Y-73976586D01*
X111977241Y-74129409D01*
X111886657Y-74203104D01*
X110600000Y-74203104D01*
X110600000Y-54884428D01*
X110600316Y-54875582D01*
X110619724Y-54604214D01*
X110622240Y-54586710D01*
X110679130Y-54325192D01*
X110684107Y-54308241D01*
X110777640Y-54057470D01*
X110784985Y-54041388D01*
X110913248Y-53806491D01*
X110922798Y-53791630D01*
X111083195Y-53577366D01*
X111094767Y-53564012D01*
X111284012Y-53374767D01*
X111297366Y-53363195D01*
X111511630Y-53202798D01*
X111526491Y-53193248D01*
X111761388Y-53064985D01*
X111777470Y-53057640D01*
X112028241Y-52964107D01*
X112045192Y-52959130D01*
X112306710Y-52902240D01*
X112324207Y-52899724D01*
X112595581Y-52880316D01*
X112604428Y-52880000D01*
X128495572Y-52880000D01*
X128504418Y-52880316D01*
G37*
%TD.AperFunction*%
%TD*%
M02*
