M48
; DRILL file {KiCad 7.0.1} date Thu May  4 12:41:53 2023
; FORMAT={-:-/ absolute / inch / decimal}
; #@! TF.CreationDate,2023-05-04T12:41:53+02:00
; #@! TF.GenerationSoftware,Kicad,Pcbnew,7.0.1
; #@! TF.FileFunction,Plated,1,2,PTH
FMAT,2
INCH
; #@! TA.AperFunction,Plated,PTH,ComponentDrill
T1C0.0394
; #@! TA.AperFunction,Plated,PTH,ComponentDrill
T2C0.0433
; #@! TA.AperFunction,Plated,PTH,ComponentDrill
T3C0.0472
; #@! TA.AperFunction,Plated,PTH,ComponentDrill
T4C0.0512
; #@! TA.AperFunction,Plated,PTH,ComponentDrill
T5C0.0866
; #@! TA.AperFunction,Plated,PTH,ComponentDrill
T6C0.1260
%
G90
G05
T1
X5.5575Y-5.3783
X5.5575Y-5.4783
X5.5575Y-5.5783
T2
X4.8228Y-2.3906
X4.8228Y-2.5906
X5.4921Y-2.3976
X5.4921Y-2.5976
T3
X4.4575Y-4.8878
X4.8575Y-2.9878
X4.8575Y-4.8878
X5.1575Y-2.9878
X5.1575Y-4.8878
X5.4575Y-2.9878
X5.4575Y-4.8878
X5.8575Y-4.8878
T4
X5.0591Y-2.3972
X5.0591Y-5.4783
X5.2559Y-2.3972
X5.2559Y-5.4783
T5
X4.4575Y-2.9878
X5.8575Y-2.9878
T6
X4.1575Y-2.9878
X4.1575Y-4.8878
X6.1575Y-2.9878
X6.1575Y-4.8878
T0
M30
