%TF.GenerationSoftware,KiCad,Pcbnew,7.0.1*%
%TF.CreationDate,2023-05-04T12:41:58+02:00*%
%TF.ProjectId,traco_breakout_minimal,74726163-6f5f-4627-9265-616b6f75745f,rev?*%
%TF.SameCoordinates,Original*%
%TF.FileFunction,Drillmap*%
%TF.FilePolarity,Positive*%
%FSLAX45Y45*%
G04 Gerber Fmt 4.5, Leading zero omitted, Abs format (unit mm)*
G04 Created by KiCad (PCBNEW 7.0.1) date 2023-05-04 12:41:58*
%MOMM*%
%LPD*%
G01*
G04 APERTURE LIST*
%ADD10C,0.100000*%
%ADD11C,0.200000*%
%ADD12C,0.320000*%
G04 APERTURE END LIST*
D10*
X9560000Y-5089000D02*
X16640000Y-5089000D01*
X16640000Y-14915000D02*
X9560000Y-14915000D01*
X16640000Y-5089000D02*
X16640000Y-14915000D01*
X9560000Y-14915000D02*
X9560000Y-5089000D01*
D11*
D12*
X10400000Y-5929000D02*
X10720000Y-6249000D01*
X10720000Y-5929000D02*
X10400000Y-6249000D01*
X10400000Y-13755000D02*
X10720000Y-14075000D01*
X10720000Y-13755000D02*
X10400000Y-14075000D01*
X15480000Y-5929000D02*
X15800000Y-6249000D01*
X15800000Y-5929000D02*
X15480000Y-6249000D01*
X15480000Y-13755000D02*
X15800000Y-14075000D01*
X15800000Y-13755000D02*
X15480000Y-14075000D01*
D11*
X9802619Y-15232524D02*
X9802619Y-15032524D01*
X9802619Y-15032524D02*
X9850238Y-15032524D01*
X9850238Y-15032524D02*
X9878810Y-15042048D01*
X9878810Y-15042048D02*
X9897857Y-15061095D01*
X9897857Y-15061095D02*
X9907381Y-15080143D01*
X9907381Y-15080143D02*
X9916905Y-15118238D01*
X9916905Y-15118238D02*
X9916905Y-15146809D01*
X9916905Y-15146809D02*
X9907381Y-15184905D01*
X9907381Y-15184905D02*
X9897857Y-15203952D01*
X9897857Y-15203952D02*
X9878810Y-15223000D01*
X9878810Y-15223000D02*
X9850238Y-15232524D01*
X9850238Y-15232524D02*
X9802619Y-15232524D01*
X10002619Y-15232524D02*
X10002619Y-15099190D01*
X10002619Y-15137286D02*
X10012143Y-15118238D01*
X10012143Y-15118238D02*
X10021667Y-15108714D01*
X10021667Y-15108714D02*
X10040714Y-15099190D01*
X10040714Y-15099190D02*
X10059762Y-15099190D01*
X10126429Y-15232524D02*
X10126429Y-15099190D01*
X10126429Y-15032524D02*
X10116905Y-15042048D01*
X10116905Y-15042048D02*
X10126429Y-15051571D01*
X10126429Y-15051571D02*
X10135952Y-15042048D01*
X10135952Y-15042048D02*
X10126429Y-15032524D01*
X10126429Y-15032524D02*
X10126429Y-15051571D01*
X10250238Y-15232524D02*
X10231190Y-15223000D01*
X10231190Y-15223000D02*
X10221667Y-15203952D01*
X10221667Y-15203952D02*
X10221667Y-15032524D01*
X10355000Y-15232524D02*
X10335952Y-15223000D01*
X10335952Y-15223000D02*
X10326429Y-15203952D01*
X10326429Y-15203952D02*
X10326429Y-15032524D01*
X10583571Y-15232524D02*
X10583571Y-15032524D01*
X10583571Y-15032524D02*
X10650238Y-15175381D01*
X10650238Y-15175381D02*
X10716905Y-15032524D01*
X10716905Y-15032524D02*
X10716905Y-15232524D01*
X10897857Y-15232524D02*
X10897857Y-15127762D01*
X10897857Y-15127762D02*
X10888333Y-15108714D01*
X10888333Y-15108714D02*
X10869286Y-15099190D01*
X10869286Y-15099190D02*
X10831190Y-15099190D01*
X10831190Y-15099190D02*
X10812143Y-15108714D01*
X10897857Y-15223000D02*
X10878810Y-15232524D01*
X10878810Y-15232524D02*
X10831190Y-15232524D01*
X10831190Y-15232524D02*
X10812143Y-15223000D01*
X10812143Y-15223000D02*
X10802619Y-15203952D01*
X10802619Y-15203952D02*
X10802619Y-15184905D01*
X10802619Y-15184905D02*
X10812143Y-15165857D01*
X10812143Y-15165857D02*
X10831190Y-15156333D01*
X10831190Y-15156333D02*
X10878810Y-15156333D01*
X10878810Y-15156333D02*
X10897857Y-15146809D01*
X10993095Y-15099190D02*
X10993095Y-15299190D01*
X10993095Y-15108714D02*
X11012143Y-15099190D01*
X11012143Y-15099190D02*
X11050238Y-15099190D01*
X11050238Y-15099190D02*
X11069286Y-15108714D01*
X11069286Y-15108714D02*
X11078810Y-15118238D01*
X11078810Y-15118238D02*
X11088333Y-15137286D01*
X11088333Y-15137286D02*
X11088333Y-15194428D01*
X11088333Y-15194428D02*
X11078810Y-15213476D01*
X11078810Y-15213476D02*
X11069286Y-15223000D01*
X11069286Y-15223000D02*
X11050238Y-15232524D01*
X11050238Y-15232524D02*
X11012143Y-15232524D01*
X11012143Y-15232524D02*
X10993095Y-15223000D01*
X11174048Y-15213476D02*
X11183571Y-15223000D01*
X11183571Y-15223000D02*
X11174048Y-15232524D01*
X11174048Y-15232524D02*
X11164524Y-15223000D01*
X11164524Y-15223000D02*
X11174048Y-15213476D01*
X11174048Y-15213476D02*
X11174048Y-15232524D01*
X11174048Y-15108714D02*
X11183571Y-15118238D01*
X11183571Y-15118238D02*
X11174048Y-15127762D01*
X11174048Y-15127762D02*
X11164524Y-15118238D01*
X11164524Y-15118238D02*
X11174048Y-15108714D01*
X11174048Y-15108714D02*
X11174048Y-15127762D01*
X9355000Y-15460000D02*
X9555000Y-15660000D01*
X9555000Y-15460000D02*
X9355000Y-15660000D01*
X9783571Y-15452524D02*
X9907381Y-15452524D01*
X9907381Y-15452524D02*
X9840714Y-15528714D01*
X9840714Y-15528714D02*
X9869286Y-15528714D01*
X9869286Y-15528714D02*
X9888333Y-15538238D01*
X9888333Y-15538238D02*
X9897857Y-15547762D01*
X9897857Y-15547762D02*
X9907381Y-15566809D01*
X9907381Y-15566809D02*
X9907381Y-15614428D01*
X9907381Y-15614428D02*
X9897857Y-15633476D01*
X9897857Y-15633476D02*
X9888333Y-15643000D01*
X9888333Y-15643000D02*
X9869286Y-15652524D01*
X9869286Y-15652524D02*
X9812143Y-15652524D01*
X9812143Y-15652524D02*
X9793095Y-15643000D01*
X9793095Y-15643000D02*
X9783571Y-15633476D01*
X9993095Y-15633476D02*
X10002619Y-15643000D01*
X10002619Y-15643000D02*
X9993095Y-15652524D01*
X9993095Y-15652524D02*
X9983571Y-15643000D01*
X9983571Y-15643000D02*
X9993095Y-15633476D01*
X9993095Y-15633476D02*
X9993095Y-15652524D01*
X10078810Y-15471571D02*
X10088333Y-15462048D01*
X10088333Y-15462048D02*
X10107381Y-15452524D01*
X10107381Y-15452524D02*
X10155000Y-15452524D01*
X10155000Y-15452524D02*
X10174048Y-15462048D01*
X10174048Y-15462048D02*
X10183571Y-15471571D01*
X10183571Y-15471571D02*
X10193095Y-15490619D01*
X10193095Y-15490619D02*
X10193095Y-15509667D01*
X10193095Y-15509667D02*
X10183571Y-15538238D01*
X10183571Y-15538238D02*
X10069286Y-15652524D01*
X10069286Y-15652524D02*
X10193095Y-15652524D01*
X10316905Y-15452524D02*
X10335952Y-15452524D01*
X10335952Y-15452524D02*
X10355000Y-15462048D01*
X10355000Y-15462048D02*
X10364524Y-15471571D01*
X10364524Y-15471571D02*
X10374048Y-15490619D01*
X10374048Y-15490619D02*
X10383571Y-15528714D01*
X10383571Y-15528714D02*
X10383571Y-15576333D01*
X10383571Y-15576333D02*
X10374048Y-15614428D01*
X10374048Y-15614428D02*
X10364524Y-15633476D01*
X10364524Y-15633476D02*
X10355000Y-15643000D01*
X10355000Y-15643000D02*
X10335952Y-15652524D01*
X10335952Y-15652524D02*
X10316905Y-15652524D01*
X10316905Y-15652524D02*
X10297857Y-15643000D01*
X10297857Y-15643000D02*
X10288333Y-15633476D01*
X10288333Y-15633476D02*
X10278810Y-15614428D01*
X10278810Y-15614428D02*
X10269286Y-15576333D01*
X10269286Y-15576333D02*
X10269286Y-15528714D01*
X10269286Y-15528714D02*
X10278810Y-15490619D01*
X10278810Y-15490619D02*
X10288333Y-15471571D01*
X10288333Y-15471571D02*
X10297857Y-15462048D01*
X10297857Y-15462048D02*
X10316905Y-15452524D01*
X10507381Y-15452524D02*
X10526429Y-15452524D01*
X10526429Y-15452524D02*
X10545476Y-15462048D01*
X10545476Y-15462048D02*
X10555000Y-15471571D01*
X10555000Y-15471571D02*
X10564524Y-15490619D01*
X10564524Y-15490619D02*
X10574048Y-15528714D01*
X10574048Y-15528714D02*
X10574048Y-15576333D01*
X10574048Y-15576333D02*
X10564524Y-15614428D01*
X10564524Y-15614428D02*
X10555000Y-15633476D01*
X10555000Y-15633476D02*
X10545476Y-15643000D01*
X10545476Y-15643000D02*
X10526429Y-15652524D01*
X10526429Y-15652524D02*
X10507381Y-15652524D01*
X10507381Y-15652524D02*
X10488333Y-15643000D01*
X10488333Y-15643000D02*
X10478810Y-15633476D01*
X10478810Y-15633476D02*
X10469286Y-15614428D01*
X10469286Y-15614428D02*
X10459762Y-15576333D01*
X10459762Y-15576333D02*
X10459762Y-15528714D01*
X10459762Y-15528714D02*
X10469286Y-15490619D01*
X10469286Y-15490619D02*
X10478810Y-15471571D01*
X10478810Y-15471571D02*
X10488333Y-15462048D01*
X10488333Y-15462048D02*
X10507381Y-15452524D01*
X10659762Y-15652524D02*
X10659762Y-15519190D01*
X10659762Y-15538238D02*
X10669286Y-15528714D01*
X10669286Y-15528714D02*
X10688333Y-15519190D01*
X10688333Y-15519190D02*
X10716905Y-15519190D01*
X10716905Y-15519190D02*
X10735952Y-15528714D01*
X10735952Y-15528714D02*
X10745476Y-15547762D01*
X10745476Y-15547762D02*
X10745476Y-15652524D01*
X10745476Y-15547762D02*
X10755000Y-15528714D01*
X10755000Y-15528714D02*
X10774048Y-15519190D01*
X10774048Y-15519190D02*
X10802619Y-15519190D01*
X10802619Y-15519190D02*
X10821667Y-15528714D01*
X10821667Y-15528714D02*
X10831191Y-15547762D01*
X10831191Y-15547762D02*
X10831191Y-15652524D01*
X10926429Y-15652524D02*
X10926429Y-15519190D01*
X10926429Y-15538238D02*
X10935952Y-15528714D01*
X10935952Y-15528714D02*
X10955000Y-15519190D01*
X10955000Y-15519190D02*
X10983572Y-15519190D01*
X10983572Y-15519190D02*
X11002619Y-15528714D01*
X11002619Y-15528714D02*
X11012143Y-15547762D01*
X11012143Y-15547762D02*
X11012143Y-15652524D01*
X11012143Y-15547762D02*
X11021667Y-15528714D01*
X11021667Y-15528714D02*
X11040714Y-15519190D01*
X11040714Y-15519190D02*
X11069286Y-15519190D01*
X11069286Y-15519190D02*
X11088333Y-15528714D01*
X11088333Y-15528714D02*
X11097857Y-15547762D01*
X11097857Y-15547762D02*
X11097857Y-15652524D01*
X11488333Y-15443000D02*
X11316905Y-15700143D01*
X11745476Y-15452524D02*
X11764524Y-15452524D01*
X11764524Y-15452524D02*
X11783572Y-15462048D01*
X11783572Y-15462048D02*
X11793095Y-15471571D01*
X11793095Y-15471571D02*
X11802619Y-15490619D01*
X11802619Y-15490619D02*
X11812143Y-15528714D01*
X11812143Y-15528714D02*
X11812143Y-15576333D01*
X11812143Y-15576333D02*
X11802619Y-15614428D01*
X11802619Y-15614428D02*
X11793095Y-15633476D01*
X11793095Y-15633476D02*
X11783572Y-15643000D01*
X11783572Y-15643000D02*
X11764524Y-15652524D01*
X11764524Y-15652524D02*
X11745476Y-15652524D01*
X11745476Y-15652524D02*
X11726429Y-15643000D01*
X11726429Y-15643000D02*
X11716905Y-15633476D01*
X11716905Y-15633476D02*
X11707381Y-15614428D01*
X11707381Y-15614428D02*
X11697857Y-15576333D01*
X11697857Y-15576333D02*
X11697857Y-15528714D01*
X11697857Y-15528714D02*
X11707381Y-15490619D01*
X11707381Y-15490619D02*
X11716905Y-15471571D01*
X11716905Y-15471571D02*
X11726429Y-15462048D01*
X11726429Y-15462048D02*
X11745476Y-15452524D01*
X11897857Y-15633476D02*
X11907381Y-15643000D01*
X11907381Y-15643000D02*
X11897857Y-15652524D01*
X11897857Y-15652524D02*
X11888333Y-15643000D01*
X11888333Y-15643000D02*
X11897857Y-15633476D01*
X11897857Y-15633476D02*
X11897857Y-15652524D01*
X12097857Y-15652524D02*
X11983572Y-15652524D01*
X12040714Y-15652524D02*
X12040714Y-15452524D01*
X12040714Y-15452524D02*
X12021667Y-15481095D01*
X12021667Y-15481095D02*
X12002619Y-15500143D01*
X12002619Y-15500143D02*
X11983572Y-15509667D01*
X12174048Y-15471571D02*
X12183572Y-15462048D01*
X12183572Y-15462048D02*
X12202619Y-15452524D01*
X12202619Y-15452524D02*
X12250238Y-15452524D01*
X12250238Y-15452524D02*
X12269286Y-15462048D01*
X12269286Y-15462048D02*
X12278810Y-15471571D01*
X12278810Y-15471571D02*
X12288333Y-15490619D01*
X12288333Y-15490619D02*
X12288333Y-15509667D01*
X12288333Y-15509667D02*
X12278810Y-15538238D01*
X12278810Y-15538238D02*
X12164524Y-15652524D01*
X12164524Y-15652524D02*
X12288333Y-15652524D01*
X12459762Y-15452524D02*
X12421667Y-15452524D01*
X12421667Y-15452524D02*
X12402619Y-15462048D01*
X12402619Y-15462048D02*
X12393095Y-15471571D01*
X12393095Y-15471571D02*
X12374048Y-15500143D01*
X12374048Y-15500143D02*
X12364524Y-15538238D01*
X12364524Y-15538238D02*
X12364524Y-15614428D01*
X12364524Y-15614428D02*
X12374048Y-15633476D01*
X12374048Y-15633476D02*
X12383572Y-15643000D01*
X12383572Y-15643000D02*
X12402619Y-15652524D01*
X12402619Y-15652524D02*
X12440714Y-15652524D01*
X12440714Y-15652524D02*
X12459762Y-15643000D01*
X12459762Y-15643000D02*
X12469286Y-15633476D01*
X12469286Y-15633476D02*
X12478810Y-15614428D01*
X12478810Y-15614428D02*
X12478810Y-15566809D01*
X12478810Y-15566809D02*
X12469286Y-15547762D01*
X12469286Y-15547762D02*
X12459762Y-15538238D01*
X12459762Y-15538238D02*
X12440714Y-15528714D01*
X12440714Y-15528714D02*
X12402619Y-15528714D01*
X12402619Y-15528714D02*
X12383572Y-15538238D01*
X12383572Y-15538238D02*
X12374048Y-15547762D01*
X12374048Y-15547762D02*
X12364524Y-15566809D01*
X12602619Y-15452524D02*
X12621667Y-15452524D01*
X12621667Y-15452524D02*
X12640714Y-15462048D01*
X12640714Y-15462048D02*
X12650238Y-15471571D01*
X12650238Y-15471571D02*
X12659762Y-15490619D01*
X12659762Y-15490619D02*
X12669286Y-15528714D01*
X12669286Y-15528714D02*
X12669286Y-15576333D01*
X12669286Y-15576333D02*
X12659762Y-15614428D01*
X12659762Y-15614428D02*
X12650238Y-15633476D01*
X12650238Y-15633476D02*
X12640714Y-15643000D01*
X12640714Y-15643000D02*
X12621667Y-15652524D01*
X12621667Y-15652524D02*
X12602619Y-15652524D01*
X12602619Y-15652524D02*
X12583572Y-15643000D01*
X12583572Y-15643000D02*
X12574048Y-15633476D01*
X12574048Y-15633476D02*
X12564524Y-15614428D01*
X12564524Y-15614428D02*
X12555000Y-15576333D01*
X12555000Y-15576333D02*
X12555000Y-15528714D01*
X12555000Y-15528714D02*
X12564524Y-15490619D01*
X12564524Y-15490619D02*
X12574048Y-15471571D01*
X12574048Y-15471571D02*
X12583572Y-15462048D01*
X12583572Y-15462048D02*
X12602619Y-15452524D01*
X12745476Y-15452524D02*
X12745476Y-15490619D01*
X12821667Y-15452524D02*
X12821667Y-15490619D01*
X13116905Y-15728714D02*
X13107381Y-15719190D01*
X13107381Y-15719190D02*
X13088334Y-15690619D01*
X13088334Y-15690619D02*
X13078810Y-15671571D01*
X13078810Y-15671571D02*
X13069286Y-15643000D01*
X13069286Y-15643000D02*
X13059762Y-15595381D01*
X13059762Y-15595381D02*
X13059762Y-15557286D01*
X13059762Y-15557286D02*
X13069286Y-15509667D01*
X13069286Y-15509667D02*
X13078810Y-15481095D01*
X13078810Y-15481095D02*
X13088334Y-15462048D01*
X13088334Y-15462048D02*
X13107381Y-15433476D01*
X13107381Y-15433476D02*
X13116905Y-15423952D01*
X13278810Y-15519190D02*
X13278810Y-15652524D01*
X13231191Y-15443000D02*
X13183572Y-15585857D01*
X13183572Y-15585857D02*
X13307381Y-15585857D01*
X13535953Y-15652524D02*
X13535953Y-15452524D01*
X13621667Y-15652524D02*
X13621667Y-15547762D01*
X13621667Y-15547762D02*
X13612143Y-15528714D01*
X13612143Y-15528714D02*
X13593096Y-15519190D01*
X13593096Y-15519190D02*
X13564524Y-15519190D01*
X13564524Y-15519190D02*
X13545476Y-15528714D01*
X13545476Y-15528714D02*
X13535953Y-15538238D01*
X13745476Y-15652524D02*
X13726429Y-15643000D01*
X13726429Y-15643000D02*
X13716905Y-15633476D01*
X13716905Y-15633476D02*
X13707381Y-15614428D01*
X13707381Y-15614428D02*
X13707381Y-15557286D01*
X13707381Y-15557286D02*
X13716905Y-15538238D01*
X13716905Y-15538238D02*
X13726429Y-15528714D01*
X13726429Y-15528714D02*
X13745476Y-15519190D01*
X13745476Y-15519190D02*
X13774048Y-15519190D01*
X13774048Y-15519190D02*
X13793096Y-15528714D01*
X13793096Y-15528714D02*
X13802619Y-15538238D01*
X13802619Y-15538238D02*
X13812143Y-15557286D01*
X13812143Y-15557286D02*
X13812143Y-15614428D01*
X13812143Y-15614428D02*
X13802619Y-15633476D01*
X13802619Y-15633476D02*
X13793096Y-15643000D01*
X13793096Y-15643000D02*
X13774048Y-15652524D01*
X13774048Y-15652524D02*
X13745476Y-15652524D01*
X13926429Y-15652524D02*
X13907381Y-15643000D01*
X13907381Y-15643000D02*
X13897857Y-15623952D01*
X13897857Y-15623952D02*
X13897857Y-15452524D01*
X14078810Y-15643000D02*
X14059762Y-15652524D01*
X14059762Y-15652524D02*
X14021667Y-15652524D01*
X14021667Y-15652524D02*
X14002619Y-15643000D01*
X14002619Y-15643000D02*
X13993096Y-15623952D01*
X13993096Y-15623952D02*
X13993096Y-15547762D01*
X13993096Y-15547762D02*
X14002619Y-15528714D01*
X14002619Y-15528714D02*
X14021667Y-15519190D01*
X14021667Y-15519190D02*
X14059762Y-15519190D01*
X14059762Y-15519190D02*
X14078810Y-15528714D01*
X14078810Y-15528714D02*
X14088334Y-15547762D01*
X14088334Y-15547762D02*
X14088334Y-15566809D01*
X14088334Y-15566809D02*
X13993096Y-15585857D01*
X14164524Y-15643000D02*
X14183572Y-15652524D01*
X14183572Y-15652524D02*
X14221667Y-15652524D01*
X14221667Y-15652524D02*
X14240715Y-15643000D01*
X14240715Y-15643000D02*
X14250238Y-15623952D01*
X14250238Y-15623952D02*
X14250238Y-15614428D01*
X14250238Y-15614428D02*
X14240715Y-15595381D01*
X14240715Y-15595381D02*
X14221667Y-15585857D01*
X14221667Y-15585857D02*
X14193096Y-15585857D01*
X14193096Y-15585857D02*
X14174048Y-15576333D01*
X14174048Y-15576333D02*
X14164524Y-15557286D01*
X14164524Y-15557286D02*
X14164524Y-15547762D01*
X14164524Y-15547762D02*
X14174048Y-15528714D01*
X14174048Y-15528714D02*
X14193096Y-15519190D01*
X14193096Y-15519190D02*
X14221667Y-15519190D01*
X14221667Y-15519190D02*
X14240715Y-15528714D01*
X14316905Y-15728714D02*
X14326429Y-15719190D01*
X14326429Y-15719190D02*
X14345477Y-15690619D01*
X14345477Y-15690619D02*
X14355000Y-15671571D01*
X14355000Y-15671571D02*
X14364524Y-15643000D01*
X14364524Y-15643000D02*
X14374048Y-15595381D01*
X14374048Y-15595381D02*
X14374048Y-15557286D01*
X14374048Y-15557286D02*
X14364524Y-15509667D01*
X14364524Y-15509667D02*
X14355000Y-15481095D01*
X14355000Y-15481095D02*
X14345477Y-15462048D01*
X14345477Y-15462048D02*
X14326429Y-15433476D01*
X14326429Y-15433476D02*
X14316905Y-15423952D01*
X14678810Y-15728714D02*
X14669286Y-15719190D01*
X14669286Y-15719190D02*
X14650238Y-15690619D01*
X14650238Y-15690619D02*
X14640715Y-15671571D01*
X14640715Y-15671571D02*
X14631191Y-15643000D01*
X14631191Y-15643000D02*
X14621667Y-15595381D01*
X14621667Y-15595381D02*
X14621667Y-15557286D01*
X14621667Y-15557286D02*
X14631191Y-15509667D01*
X14631191Y-15509667D02*
X14640715Y-15481095D01*
X14640715Y-15481095D02*
X14650238Y-15462048D01*
X14650238Y-15462048D02*
X14669286Y-15433476D01*
X14669286Y-15433476D02*
X14678810Y-15423952D01*
X14755000Y-15519190D02*
X14755000Y-15652524D01*
X14755000Y-15538238D02*
X14764524Y-15528714D01*
X14764524Y-15528714D02*
X14783572Y-15519190D01*
X14783572Y-15519190D02*
X14812143Y-15519190D01*
X14812143Y-15519190D02*
X14831191Y-15528714D01*
X14831191Y-15528714D02*
X14840715Y-15547762D01*
X14840715Y-15547762D02*
X14840715Y-15652524D01*
X14964524Y-15652524D02*
X14945477Y-15643000D01*
X14945477Y-15643000D02*
X14935953Y-15633476D01*
X14935953Y-15633476D02*
X14926429Y-15614428D01*
X14926429Y-15614428D02*
X14926429Y-15557286D01*
X14926429Y-15557286D02*
X14935953Y-15538238D01*
X14935953Y-15538238D02*
X14945477Y-15528714D01*
X14945477Y-15528714D02*
X14964524Y-15519190D01*
X14964524Y-15519190D02*
X14993096Y-15519190D01*
X14993096Y-15519190D02*
X15012143Y-15528714D01*
X15012143Y-15528714D02*
X15021667Y-15538238D01*
X15021667Y-15538238D02*
X15031191Y-15557286D01*
X15031191Y-15557286D02*
X15031191Y-15614428D01*
X15031191Y-15614428D02*
X15021667Y-15633476D01*
X15021667Y-15633476D02*
X15012143Y-15643000D01*
X15012143Y-15643000D02*
X14993096Y-15652524D01*
X14993096Y-15652524D02*
X14964524Y-15652524D01*
X15088334Y-15519190D02*
X15164524Y-15519190D01*
X15116905Y-15452524D02*
X15116905Y-15623952D01*
X15116905Y-15623952D02*
X15126429Y-15643000D01*
X15126429Y-15643000D02*
X15145477Y-15652524D01*
X15145477Y-15652524D02*
X15164524Y-15652524D01*
X15383572Y-15519190D02*
X15383572Y-15719190D01*
X15383572Y-15528714D02*
X15402619Y-15519190D01*
X15402619Y-15519190D02*
X15440715Y-15519190D01*
X15440715Y-15519190D02*
X15459762Y-15528714D01*
X15459762Y-15528714D02*
X15469286Y-15538238D01*
X15469286Y-15538238D02*
X15478810Y-15557286D01*
X15478810Y-15557286D02*
X15478810Y-15614428D01*
X15478810Y-15614428D02*
X15469286Y-15633476D01*
X15469286Y-15633476D02*
X15459762Y-15643000D01*
X15459762Y-15643000D02*
X15440715Y-15652524D01*
X15440715Y-15652524D02*
X15402619Y-15652524D01*
X15402619Y-15652524D02*
X15383572Y-15643000D01*
X15593096Y-15652524D02*
X15574048Y-15643000D01*
X15574048Y-15643000D02*
X15564524Y-15623952D01*
X15564524Y-15623952D02*
X15564524Y-15452524D01*
X15755000Y-15652524D02*
X15755000Y-15547762D01*
X15755000Y-15547762D02*
X15745477Y-15528714D01*
X15745477Y-15528714D02*
X15726429Y-15519190D01*
X15726429Y-15519190D02*
X15688334Y-15519190D01*
X15688334Y-15519190D02*
X15669286Y-15528714D01*
X15755000Y-15643000D02*
X15735953Y-15652524D01*
X15735953Y-15652524D02*
X15688334Y-15652524D01*
X15688334Y-15652524D02*
X15669286Y-15643000D01*
X15669286Y-15643000D02*
X15659762Y-15623952D01*
X15659762Y-15623952D02*
X15659762Y-15604905D01*
X15659762Y-15604905D02*
X15669286Y-15585857D01*
X15669286Y-15585857D02*
X15688334Y-15576333D01*
X15688334Y-15576333D02*
X15735953Y-15576333D01*
X15735953Y-15576333D02*
X15755000Y-15566809D01*
X15821667Y-15519190D02*
X15897858Y-15519190D01*
X15850239Y-15452524D02*
X15850239Y-15623952D01*
X15850239Y-15623952D02*
X15859762Y-15643000D01*
X15859762Y-15643000D02*
X15878810Y-15652524D01*
X15878810Y-15652524D02*
X15897858Y-15652524D01*
X16040715Y-15643000D02*
X16021667Y-15652524D01*
X16021667Y-15652524D02*
X15983572Y-15652524D01*
X15983572Y-15652524D02*
X15964524Y-15643000D01*
X15964524Y-15643000D02*
X15955000Y-15623952D01*
X15955000Y-15623952D02*
X15955000Y-15547762D01*
X15955000Y-15547762D02*
X15964524Y-15528714D01*
X15964524Y-15528714D02*
X15983572Y-15519190D01*
X15983572Y-15519190D02*
X16021667Y-15519190D01*
X16021667Y-15519190D02*
X16040715Y-15528714D01*
X16040715Y-15528714D02*
X16050239Y-15547762D01*
X16050239Y-15547762D02*
X16050239Y-15566809D01*
X16050239Y-15566809D02*
X15955000Y-15585857D01*
X16221667Y-15652524D02*
X16221667Y-15452524D01*
X16221667Y-15643000D02*
X16202620Y-15652524D01*
X16202620Y-15652524D02*
X16164524Y-15652524D01*
X16164524Y-15652524D02*
X16145477Y-15643000D01*
X16145477Y-15643000D02*
X16135953Y-15633476D01*
X16135953Y-15633476D02*
X16126429Y-15614428D01*
X16126429Y-15614428D02*
X16126429Y-15557286D01*
X16126429Y-15557286D02*
X16135953Y-15538238D01*
X16135953Y-15538238D02*
X16145477Y-15528714D01*
X16145477Y-15528714D02*
X16164524Y-15519190D01*
X16164524Y-15519190D02*
X16202620Y-15519190D01*
X16202620Y-15519190D02*
X16221667Y-15528714D01*
X16297858Y-15728714D02*
X16307381Y-15719190D01*
X16307381Y-15719190D02*
X16326429Y-15690619D01*
X16326429Y-15690619D02*
X16335953Y-15671571D01*
X16335953Y-15671571D02*
X16345477Y-15643000D01*
X16345477Y-15643000D02*
X16355000Y-15595381D01*
X16355000Y-15595381D02*
X16355000Y-15557286D01*
X16355000Y-15557286D02*
X16345477Y-15509667D01*
X16345477Y-15509667D02*
X16335953Y-15481095D01*
X16335953Y-15481095D02*
X16326429Y-15462048D01*
X16326429Y-15462048D02*
X16307381Y-15433476D01*
X16307381Y-15433476D02*
X16297858Y-15423952D01*
M02*
