%TF.GenerationSoftware,KiCad,Pcbnew,7.0.1*%
%TF.CreationDate,2023-05-04T12:42:05+02:00*%
%TF.ProjectId,traco_breakout_minimal,74726163-6f5f-4627-9265-616b6f75745f,rev?*%
%TF.SameCoordinates,Original*%
%TF.FileFunction,Copper,L2,Bot*%
%TF.FilePolarity,Positive*%
%FSLAX46Y46*%
G04 Gerber Fmt 4.6, Leading zero omitted, Abs format (unit mm)*
G04 Created by KiCad (PCBNEW 7.0.1) date 2023-05-04 12:42:05*
%MOMM*%
%LPD*%
G01*
G04 APERTURE LIST*
%TA.AperFunction,ComponentPad*%
%ADD10R,1.700000X1.700000*%
%TD*%
%TA.AperFunction,ComponentPad*%
%ADD11O,1.700000X1.700000*%
%TD*%
%TA.AperFunction,ComponentPad*%
%ADD12C,1.950000*%
%TD*%
%TA.AperFunction,ComponentPad*%
%ADD13C,1.800000*%
%TD*%
%TA.AperFunction,ComponentPad*%
%ADD14C,3.300000*%
%TD*%
%TA.AperFunction,ComponentPad*%
%ADD15C,4.700000*%
%TD*%
%TA.AperFunction,ComponentPad*%
%ADD16R,2.000000X2.000000*%
%TD*%
%TA.AperFunction,ComponentPad*%
%ADD17O,2.000000X2.000000*%
%TD*%
G04 APERTURE END LIST*
D10*
%TO.P,J2,1,Pin_1*%
%TO.N,/GND*%
X141160000Y-141690000D03*
D11*
%TO.P,J2,2,Pin_2*%
%TO.N,/SYNC*%
X141160000Y-139150000D03*
%TO.P,J2,3,Pin_3*%
%TO.N,/REMOTE*%
X141160000Y-136610000D03*
%TD*%
D12*
%TO.P,J3,1,1*%
%TO.N,/Vout+*%
X128500000Y-60890000D03*
%TO.P,J3,2,2*%
%TO.N,/Vout-*%
X133500000Y-60890000D03*
%TD*%
%TO.P,J1,1,1*%
%TO.N,/GND*%
X133500000Y-139150000D03*
%TO.P,J1,2,2*%
%TO.N,/Vin*%
X128500000Y-139150000D03*
%TD*%
D13*
%TO.P,PS1,1,-VIN_(GND)*%
%TO.N,/GND*%
X148780000Y-124150000D03*
%TO.P,PS1,2,CASE*%
%TO.N,/shielding*%
X138620000Y-124150000D03*
%TO.P,PS1,3,REMOTE*%
%TO.N,/REMOTE*%
X123380000Y-124150000D03*
%TO.P,PS1,4,+VIN_(VCC)*%
%TO.N,/Vin_fuse*%
X113220000Y-124150000D03*
D14*
%TO.P,PS1,5,-VOUT*%
%TO.N,/Vout-*%
X148780000Y-75890000D03*
D13*
%TO.P,PS1,6,-SENSE*%
%TO.N,Net-(PS1--SENSE)*%
X138620000Y-75890000D03*
%TO.P,PS1,7,TRIM*%
%TO.N,Net-(PS1-TRIM)*%
X131000000Y-75890000D03*
%TO.P,PS1,8,+SENSE*%
%TO.N,Net-(PS1-+SENSE)*%
X123380000Y-75890000D03*
D14*
%TO.P,PS1,9,+VOUT*%
%TO.N,/Vout+*%
X113220000Y-75890000D03*
D13*
%TO.P,PS1,10,SYNC_(ON_DEMAND)*%
%TO.N,/SYNC*%
X131000000Y-124150000D03*
D15*
%TO.P,PS1,MH1,MH1*%
%TO.N,/shielding*%
X156400000Y-124150000D03*
%TO.P,PS1,MH2,MH2*%
X105600000Y-124150000D03*
%TO.P,PS1,MH3,MH3*%
X105600000Y-75890000D03*
%TO.P,PS1,MH4,MH4*%
X156400000Y-75890000D03*
%TD*%
D16*
%TO.P,R1,1*%
%TO.N,Net-(PS1-+SENSE)*%
X122500000Y-65800000D03*
D17*
%TO.P,R1,2*%
%TO.N,Net-(PS1-TRIM)*%
X122500000Y-60720000D03*
%TD*%
D16*
%TO.P,R2,1*%
%TO.N,Net-(PS1--SENSE)*%
X139500000Y-60900000D03*
D17*
%TO.P,R2,2*%
%TO.N,Net-(PS1-TRIM)*%
X139500000Y-65980000D03*
%TD*%
%TA.AperFunction,Conductor*%
%TO.N,/shielding*%
G36*
X162404418Y-52890316D02*
G01*
X162675790Y-52909724D01*
X162693291Y-52912241D01*
X162954803Y-52969129D01*
X162971762Y-52974108D01*
X163222524Y-53067638D01*
X163238616Y-53074987D01*
X163473501Y-53203244D01*
X163488375Y-53212802D01*
X163702624Y-53373188D01*
X163715994Y-53384774D01*
X163905225Y-53574005D01*
X163916811Y-53587375D01*
X164077193Y-53801619D01*
X164086758Y-53816503D01*
X164215011Y-54051382D01*
X164222361Y-54067475D01*
X164315888Y-54318229D01*
X164320872Y-54335205D01*
X164377757Y-54596702D01*
X164380275Y-54614214D01*
X164399684Y-54885582D01*
X164400000Y-54894428D01*
X164400000Y-145145572D01*
X164399684Y-145154418D01*
X164380275Y-145425785D01*
X164377757Y-145443297D01*
X164320872Y-145704794D01*
X164315888Y-145721770D01*
X164222361Y-145972524D01*
X164215011Y-145988617D01*
X164086758Y-146223496D01*
X164077193Y-146238380D01*
X163916811Y-146452624D01*
X163905225Y-146465994D01*
X163715994Y-146655225D01*
X163702624Y-146666811D01*
X163488380Y-146827193D01*
X163473496Y-146836758D01*
X163238617Y-146965011D01*
X163222524Y-146972361D01*
X162971770Y-147065888D01*
X162954794Y-147070872D01*
X162693297Y-147127757D01*
X162675785Y-147130275D01*
X162404418Y-147149684D01*
X162395572Y-147150000D01*
X99604428Y-147150000D01*
X99595582Y-147149684D01*
X99324214Y-147130275D01*
X99306702Y-147127757D01*
X99045205Y-147070872D01*
X99028229Y-147065888D01*
X98777475Y-146972361D01*
X98761382Y-146965011D01*
X98526503Y-146836758D01*
X98511619Y-146827193D01*
X98297375Y-146666811D01*
X98284005Y-146655225D01*
X98094774Y-146465994D01*
X98083188Y-146452624D01*
X97922802Y-146238375D01*
X97913244Y-146223501D01*
X97784987Y-145988616D01*
X97777638Y-145972524D01*
X97684108Y-145721762D01*
X97679129Y-145704803D01*
X97622241Y-145443291D01*
X97619724Y-145425785D01*
X97600316Y-145154418D01*
X97600000Y-145145572D01*
X97600000Y-139217764D01*
X103745787Y-139217764D01*
X103775413Y-139487016D01*
X103775414Y-139487018D01*
X103843928Y-139749088D01*
X103938974Y-139972749D01*
X103949871Y-139998392D01*
X104090982Y-140229611D01*
X104180253Y-140336881D01*
X104264255Y-140437820D01*
X104465998Y-140618582D01*
X104691910Y-140768044D01*
X104794508Y-140816140D01*
X104937177Y-140883021D01*
X105196562Y-140961058D01*
X105196569Y-140961060D01*
X105464561Y-141000500D01*
X105667631Y-141000500D01*
X105667634Y-141000500D01*
X105870156Y-140985677D01*
X105870155Y-140985677D01*
X106134553Y-140926780D01*
X106387558Y-140830014D01*
X106623777Y-140697441D01*
X106838177Y-140531888D01*
X107026186Y-140336881D01*
X107183799Y-140116579D01*
X107307656Y-139875675D01*
X107395118Y-139619305D01*
X107444319Y-139352933D01*
X107451735Y-139149999D01*
X126519453Y-139149999D01*
X126539613Y-139431861D01*
X126599678Y-139707979D01*
X126599680Y-139707984D01*
X126698432Y-139972749D01*
X126782999Y-140127621D01*
X126833859Y-140220765D01*
X126996343Y-140437818D01*
X127003203Y-140446982D01*
X127203018Y-140646797D01*
X127270669Y-140697440D01*
X127429234Y-140816140D01*
X127429236Y-140816141D01*
X127677251Y-140951568D01*
X127942016Y-141050320D01*
X127942019Y-141050320D01*
X127942020Y-141050321D01*
X127981320Y-141058870D01*
X128218139Y-141110387D01*
X128500000Y-141130546D01*
X128781861Y-141110387D01*
X129057984Y-141050320D01*
X129322749Y-140951568D01*
X129570764Y-140816141D01*
X129796982Y-140646797D01*
X129996797Y-140446982D01*
X130166141Y-140220764D01*
X130301568Y-139972749D01*
X130400320Y-139707984D01*
X130460387Y-139431861D01*
X130480546Y-139150000D01*
X130480546Y-139149999D01*
X131519453Y-139149999D01*
X131539613Y-139431861D01*
X131599678Y-139707979D01*
X131599680Y-139707984D01*
X131698432Y-139972749D01*
X131782999Y-140127621D01*
X131833859Y-140220765D01*
X131996343Y-140437818D01*
X132003203Y-140446982D01*
X132203018Y-140646797D01*
X132270669Y-140697440D01*
X132429234Y-140816140D01*
X132429236Y-140816141D01*
X132677251Y-140951568D01*
X132942016Y-141050320D01*
X132942019Y-141050320D01*
X132942020Y-141050321D01*
X132981320Y-141058870D01*
X133218139Y-141110387D01*
X133500000Y-141130546D01*
X133781861Y-141110387D01*
X134057984Y-141050320D01*
X134322749Y-140951568D01*
X134570764Y-140816141D01*
X134796982Y-140646797D01*
X134996797Y-140446982D01*
X135166141Y-140220764D01*
X135301568Y-139972749D01*
X135400320Y-139707984D01*
X135460387Y-139431861D01*
X135480546Y-139150000D01*
X135480546Y-139149999D01*
X139304772Y-139149999D01*
X139323657Y-139414027D01*
X139379921Y-139672673D01*
X139472427Y-139920691D01*
X139551282Y-140065102D01*
X139565765Y-140111510D01*
X139561292Y-140159920D01*
X139538552Y-140202889D01*
X139470302Y-140286590D01*
X139376091Y-140466949D01*
X139332704Y-140618582D01*
X139320114Y-140662582D01*
X139310738Y-140768045D01*
X139309500Y-140781966D01*
X139309500Y-142598033D01*
X139320114Y-142717417D01*
X139376091Y-142913050D01*
X139470301Y-143093406D01*
X139470302Y-143093407D01*
X139598891Y-143251109D01*
X139756593Y-143379698D01*
X139936951Y-143473909D01*
X140132582Y-143529886D01*
X140251963Y-143540500D01*
X142068036Y-143540499D01*
X142187418Y-143529886D01*
X142383049Y-143473909D01*
X142563407Y-143379698D01*
X142721109Y-143251109D01*
X142849698Y-143093407D01*
X142943909Y-142913049D01*
X142999886Y-142717418D01*
X143010500Y-142598037D01*
X143010499Y-140781964D01*
X142999886Y-140662582D01*
X142943909Y-140466951D01*
X142849698Y-140286593D01*
X142803235Y-140229611D01*
X142781447Y-140202889D01*
X142758707Y-140159920D01*
X142754234Y-140111510D01*
X142768715Y-140065105D01*
X142847574Y-139920689D01*
X142940077Y-139672678D01*
X142996343Y-139414026D01*
X143010380Y-139217764D01*
X154545787Y-139217764D01*
X154575413Y-139487016D01*
X154575414Y-139487018D01*
X154643928Y-139749088D01*
X154738974Y-139972749D01*
X154749871Y-139998392D01*
X154890982Y-140229611D01*
X154980253Y-140336881D01*
X155064255Y-140437820D01*
X155265998Y-140618582D01*
X155491910Y-140768044D01*
X155594508Y-140816140D01*
X155737177Y-140883021D01*
X155996562Y-140961058D01*
X155996569Y-140961060D01*
X156264561Y-141000500D01*
X156467631Y-141000500D01*
X156467634Y-141000500D01*
X156670156Y-140985677D01*
X156670155Y-140985677D01*
X156934553Y-140926780D01*
X157187558Y-140830014D01*
X157423777Y-140697441D01*
X157638177Y-140531888D01*
X157826186Y-140336881D01*
X157983799Y-140116579D01*
X158107656Y-139875675D01*
X158195118Y-139619305D01*
X158244319Y-139352933D01*
X158254212Y-139082235D01*
X158224586Y-138812982D01*
X158156072Y-138550912D01*
X158050130Y-138301610D01*
X157914417Y-138079236D01*
X157909017Y-138070388D01*
X157735746Y-137862181D01*
X157725519Y-137853018D01*
X157534002Y-137681418D01*
X157308090Y-137531956D01*
X157308086Y-137531954D01*
X157062822Y-137416978D01*
X156803437Y-137338941D01*
X156803431Y-137338940D01*
X156535439Y-137299500D01*
X156332369Y-137299500D01*
X156332366Y-137299500D01*
X156129843Y-137314322D01*
X155865449Y-137373219D01*
X155612441Y-137469986D01*
X155376223Y-137602559D01*
X155161825Y-137768109D01*
X154973813Y-137963120D01*
X154816201Y-138183420D01*
X154692342Y-138424329D01*
X154604881Y-138680695D01*
X154555680Y-138947066D01*
X154545787Y-139217764D01*
X143010380Y-139217764D01*
X143015227Y-139150000D01*
X142996343Y-138885974D01*
X142940077Y-138627322D01*
X142847574Y-138379311D01*
X142720716Y-138146989D01*
X142576475Y-137954306D01*
X142554579Y-137906358D01*
X142554579Y-137853642D01*
X142576475Y-137805693D01*
X142720716Y-137613011D01*
X142847574Y-137380689D01*
X142940077Y-137132678D01*
X142996343Y-136874026D01*
X143015227Y-136610000D01*
X142996343Y-136345974D01*
X142940077Y-136087322D01*
X142847574Y-135839311D01*
X142720716Y-135606989D01*
X142562087Y-135395085D01*
X142374915Y-135207913D01*
X142268963Y-135128598D01*
X142163009Y-135049282D01*
X141996898Y-134958579D01*
X141930689Y-134922426D01*
X141682678Y-134829923D01*
X141682673Y-134829921D01*
X141424027Y-134773657D01*
X141160000Y-134754772D01*
X140895972Y-134773657D01*
X140637326Y-134829921D01*
X140513316Y-134876174D01*
X140389311Y-134922426D01*
X140389308Y-134922427D01*
X140389307Y-134922428D01*
X140156990Y-135049282D01*
X139945082Y-135207915D01*
X139757915Y-135395082D01*
X139599282Y-135606990D01*
X139472428Y-135839307D01*
X139472426Y-135839311D01*
X139426174Y-135963316D01*
X139379921Y-136087326D01*
X139323657Y-136345972D01*
X139304772Y-136609999D01*
X139323657Y-136874027D01*
X139379921Y-137132673D01*
X139379923Y-137132678D01*
X139472426Y-137380689D01*
X139521186Y-137469986D01*
X139599284Y-137613012D01*
X139743521Y-137805690D01*
X139765420Y-137853642D01*
X139765420Y-137906358D01*
X139743521Y-137954310D01*
X139599284Y-138146987D01*
X139500853Y-138327251D01*
X139472426Y-138379311D01*
X139426174Y-138503316D01*
X139379921Y-138627326D01*
X139323657Y-138885972D01*
X139304772Y-139149999D01*
X135480546Y-139149999D01*
X135460387Y-138868139D01*
X135400320Y-138592016D01*
X135301568Y-138327251D01*
X135166141Y-138079236D01*
X135159517Y-138070388D01*
X135003656Y-137862181D01*
X134996797Y-137853018D01*
X134796982Y-137653203D01*
X134743288Y-137613008D01*
X134570765Y-137483859D01*
X134477621Y-137432999D01*
X134322749Y-137348432D01*
X134057984Y-137249680D01*
X134057979Y-137249678D01*
X133781861Y-137189613D01*
X133500000Y-137169453D01*
X133218138Y-137189613D01*
X132942020Y-137249678D01*
X132845179Y-137285798D01*
X132677251Y-137348432D01*
X132618177Y-137380689D01*
X132429234Y-137483859D01*
X132203017Y-137653203D01*
X132003203Y-137853017D01*
X131833859Y-138079234D01*
X131776970Y-138183420D01*
X131698432Y-138327251D01*
X131662224Y-138424329D01*
X131599678Y-138592020D01*
X131539613Y-138868138D01*
X131519453Y-139149999D01*
X130480546Y-139149999D01*
X130460387Y-138868139D01*
X130400320Y-138592016D01*
X130301568Y-138327251D01*
X130166141Y-138079236D01*
X130159517Y-138070388D01*
X130003656Y-137862181D01*
X129996797Y-137853018D01*
X129796982Y-137653203D01*
X129743288Y-137613008D01*
X129570765Y-137483859D01*
X129477621Y-137432999D01*
X129322749Y-137348432D01*
X129057984Y-137249680D01*
X129057979Y-137249678D01*
X128781861Y-137189613D01*
X128500000Y-137169453D01*
X128218138Y-137189613D01*
X127942020Y-137249678D01*
X127845179Y-137285798D01*
X127677251Y-137348432D01*
X127618177Y-137380689D01*
X127429234Y-137483859D01*
X127203017Y-137653203D01*
X127003203Y-137853017D01*
X126833859Y-138079234D01*
X126776970Y-138183420D01*
X126698432Y-138327251D01*
X126662224Y-138424329D01*
X126599678Y-138592020D01*
X126539613Y-138868138D01*
X126519453Y-139149999D01*
X107451735Y-139149999D01*
X107454212Y-139082235D01*
X107424586Y-138812982D01*
X107356072Y-138550912D01*
X107250130Y-138301610D01*
X107114417Y-138079236D01*
X107109017Y-138070388D01*
X106935746Y-137862181D01*
X106925519Y-137853018D01*
X106734002Y-137681418D01*
X106508090Y-137531956D01*
X106508086Y-137531954D01*
X106262822Y-137416978D01*
X106003437Y-137338941D01*
X106003431Y-137338940D01*
X105735439Y-137299500D01*
X105532369Y-137299500D01*
X105532366Y-137299500D01*
X105329843Y-137314322D01*
X105065449Y-137373219D01*
X104812441Y-137469986D01*
X104576223Y-137602559D01*
X104361825Y-137768109D01*
X104173813Y-137963120D01*
X104016201Y-138183420D01*
X103892342Y-138424329D01*
X103804881Y-138680695D01*
X103755680Y-138947066D01*
X103745787Y-139217764D01*
X97600000Y-139217764D01*
X97600000Y-126334261D01*
X103769289Y-126334261D01*
X103769290Y-126334262D01*
X103895216Y-126439926D01*
X104172584Y-126622355D01*
X104469257Y-126771350D01*
X104781220Y-126884895D01*
X105104265Y-126961458D01*
X105434009Y-127000000D01*
X105765991Y-127000000D01*
X106095734Y-126961458D01*
X106418779Y-126884895D01*
X106730742Y-126771350D01*
X107027415Y-126622355D01*
X107304783Y-126439927D01*
X107430708Y-126334262D01*
X107430709Y-126334261D01*
X154569289Y-126334261D01*
X154569290Y-126334262D01*
X154695216Y-126439926D01*
X154972584Y-126622355D01*
X155269257Y-126771350D01*
X155581220Y-126884895D01*
X155904265Y-126961458D01*
X156234009Y-127000000D01*
X156565991Y-127000000D01*
X156895734Y-126961458D01*
X157218779Y-126884895D01*
X157530742Y-126771350D01*
X157827415Y-126622355D01*
X158104783Y-126439927D01*
X158230708Y-126334262D01*
X158230709Y-126334261D01*
X156400000Y-124503553D01*
X154569289Y-126334261D01*
X107430709Y-126334261D01*
X105600000Y-124503553D01*
X103769289Y-126334261D01*
X97600000Y-126334261D01*
X97600000Y-124150000D01*
X102745169Y-124150000D01*
X102764473Y-124481426D01*
X102822120Y-124808363D01*
X102917338Y-125126409D01*
X103048832Y-125431247D01*
X103214823Y-125718754D01*
X103412358Y-125984088D01*
X105246447Y-124150000D01*
X105953553Y-124150000D01*
X107787640Y-125984088D01*
X107985176Y-125718754D01*
X108151167Y-125431247D01*
X108282661Y-125126409D01*
X108377879Y-124808363D01*
X108435526Y-124481426D01*
X108454830Y-124150000D01*
X108454830Y-124149999D01*
X111314644Y-124149999D01*
X111334039Y-124421161D01*
X111391823Y-124686796D01*
X111391825Y-124686801D01*
X111486828Y-124941513D01*
X111486830Y-124941517D01*
X111486831Y-124941519D01*
X111617109Y-125180108D01*
X111617113Y-125180113D01*
X111780029Y-125397742D01*
X111972258Y-125589971D01*
X112144291Y-125718754D01*
X112189891Y-125752890D01*
X112385802Y-125859864D01*
X112428487Y-125883172D01*
X112683199Y-125978175D01*
X112683202Y-125978175D01*
X112683203Y-125978176D01*
X112710381Y-125984088D01*
X112948840Y-126035961D01*
X113220000Y-126055355D01*
X113491160Y-126035961D01*
X113756801Y-125978175D01*
X114011513Y-125883172D01*
X114250113Y-125752887D01*
X114467742Y-125589971D01*
X114659971Y-125397742D01*
X114822887Y-125180113D01*
X114852212Y-125126409D01*
X114858266Y-125115319D01*
X114953172Y-124941513D01*
X115048175Y-124686801D01*
X115105961Y-124421160D01*
X115125355Y-124150000D01*
X115125355Y-124149999D01*
X121474644Y-124149999D01*
X121494039Y-124421161D01*
X121551823Y-124686796D01*
X121551825Y-124686801D01*
X121646828Y-124941513D01*
X121646830Y-124941517D01*
X121646831Y-124941519D01*
X121777109Y-125180108D01*
X121777113Y-125180113D01*
X121940029Y-125397742D01*
X122132258Y-125589971D01*
X122304291Y-125718754D01*
X122349891Y-125752890D01*
X122545802Y-125859864D01*
X122588487Y-125883172D01*
X122843199Y-125978175D01*
X122843202Y-125978175D01*
X122843203Y-125978176D01*
X122870381Y-125984088D01*
X123108840Y-126035961D01*
X123380000Y-126055355D01*
X123651160Y-126035961D01*
X123916801Y-125978175D01*
X124171513Y-125883172D01*
X124410113Y-125752887D01*
X124627742Y-125589971D01*
X124819971Y-125397742D01*
X124982887Y-125180113D01*
X125012212Y-125126409D01*
X125018266Y-125115319D01*
X125113172Y-124941513D01*
X125208175Y-124686801D01*
X125265961Y-124421160D01*
X125285355Y-124150000D01*
X125285355Y-124149999D01*
X129094644Y-124149999D01*
X129114039Y-124421161D01*
X129171823Y-124686796D01*
X129171825Y-124686801D01*
X129266828Y-124941513D01*
X129266830Y-124941517D01*
X129266831Y-124941519D01*
X129397109Y-125180108D01*
X129397113Y-125180113D01*
X129560029Y-125397742D01*
X129752258Y-125589971D01*
X129924291Y-125718754D01*
X129969891Y-125752890D01*
X130165802Y-125859864D01*
X130208487Y-125883172D01*
X130463199Y-125978175D01*
X130463202Y-125978175D01*
X130463203Y-125978176D01*
X130490381Y-125984088D01*
X130728840Y-126035961D01*
X131000000Y-126055355D01*
X131271160Y-126035961D01*
X131536801Y-125978175D01*
X131791513Y-125883172D01*
X132030113Y-125752887D01*
X132247742Y-125589971D01*
X132439971Y-125397742D01*
X132511380Y-125302351D01*
X137821199Y-125302351D01*
X137851650Y-125326051D01*
X138055700Y-125436477D01*
X138275140Y-125511811D01*
X138503993Y-125550000D01*
X138736007Y-125550000D01*
X138964859Y-125511811D01*
X139184296Y-125436478D01*
X139388353Y-125326048D01*
X139418798Y-125302351D01*
X138620000Y-124503553D01*
X137821199Y-125302351D01*
X132511380Y-125302351D01*
X132602887Y-125180113D01*
X132632212Y-125126409D01*
X132638266Y-125115319D01*
X132733172Y-124941513D01*
X132828175Y-124686801D01*
X132885961Y-124421160D01*
X132905355Y-124150000D01*
X132905355Y-124149999D01*
X137215201Y-124149999D01*
X137234361Y-124381217D01*
X137291319Y-124606139D01*
X137384516Y-124818609D01*
X137468812Y-124947633D01*
X138266444Y-124150001D01*
X138973553Y-124150001D01*
X139771186Y-124947634D01*
X139855483Y-124818607D01*
X139948680Y-124606138D01*
X140005638Y-124381217D01*
X140024798Y-124150000D01*
X140024798Y-124149999D01*
X146874644Y-124149999D01*
X146894039Y-124421161D01*
X146951823Y-124686796D01*
X146951825Y-124686801D01*
X147046828Y-124941513D01*
X147046830Y-124941517D01*
X147046831Y-124941519D01*
X147177109Y-125180108D01*
X147177113Y-125180113D01*
X147340029Y-125397742D01*
X147532258Y-125589971D01*
X147704291Y-125718754D01*
X147749891Y-125752890D01*
X147945802Y-125859864D01*
X147988487Y-125883172D01*
X148243199Y-125978175D01*
X148243202Y-125978175D01*
X148243203Y-125978176D01*
X148270381Y-125984088D01*
X148508840Y-126035961D01*
X148780000Y-126055355D01*
X149051160Y-126035961D01*
X149316801Y-125978175D01*
X149571513Y-125883172D01*
X149810113Y-125752887D01*
X150027742Y-125589971D01*
X150219971Y-125397742D01*
X150382887Y-125180113D01*
X150412212Y-125126409D01*
X150418266Y-125115319D01*
X150513172Y-124941513D01*
X150608175Y-124686801D01*
X150665961Y-124421160D01*
X150685355Y-124150000D01*
X150685355Y-124149999D01*
X153545169Y-124149999D01*
X153564473Y-124481426D01*
X153622120Y-124808363D01*
X153717338Y-125126409D01*
X153848832Y-125431247D01*
X154014823Y-125718754D01*
X154212358Y-125984088D01*
X156046447Y-124150000D01*
X156753553Y-124150000D01*
X158587640Y-125984088D01*
X158785176Y-125718754D01*
X158951167Y-125431247D01*
X159082661Y-125126409D01*
X159177879Y-124808363D01*
X159235526Y-124481426D01*
X159254830Y-124149999D01*
X159235526Y-123818573D01*
X159177879Y-123491636D01*
X159082661Y-123173590D01*
X158951167Y-122868752D01*
X158785176Y-122581245D01*
X158587640Y-122315910D01*
X156753553Y-124150000D01*
X156046447Y-124150000D01*
X154212357Y-122315910D01*
X154014826Y-122581241D01*
X153848832Y-122868752D01*
X153717338Y-123173590D01*
X153622120Y-123491636D01*
X153564473Y-123818573D01*
X153545169Y-124149999D01*
X150685355Y-124149999D01*
X150665961Y-123878840D01*
X150608175Y-123613199D01*
X150513172Y-123358487D01*
X150489864Y-123315802D01*
X150382890Y-123119891D01*
X150291379Y-122997648D01*
X150219971Y-122902258D01*
X150027742Y-122710029D01*
X149855708Y-122581245D01*
X149810108Y-122547109D01*
X149571519Y-122416831D01*
X149571517Y-122416830D01*
X149571513Y-122416828D01*
X149316801Y-122321825D01*
X149316796Y-122321823D01*
X149051161Y-122264039D01*
X148780000Y-122244644D01*
X148508838Y-122264039D01*
X148243203Y-122321823D01*
X148098956Y-122375624D01*
X147988487Y-122416828D01*
X147988484Y-122416829D01*
X147988480Y-122416831D01*
X147749891Y-122547109D01*
X147532255Y-122710031D01*
X147340031Y-122902255D01*
X147177109Y-123119891D01*
X147046831Y-123358480D01*
X146951823Y-123613203D01*
X146894039Y-123878838D01*
X146874644Y-124149999D01*
X140024798Y-124149999D01*
X140005638Y-123918782D01*
X139948680Y-123693860D01*
X139855484Y-123481392D01*
X139771186Y-123352364D01*
X138973553Y-124150000D01*
X138973553Y-124150001D01*
X138266444Y-124150001D01*
X138266446Y-124149999D01*
X137468812Y-123352365D01*
X137384516Y-123481390D01*
X137291319Y-123693860D01*
X137234361Y-123918782D01*
X137215201Y-124149999D01*
X132905355Y-124149999D01*
X132885961Y-123878840D01*
X132828175Y-123613199D01*
X132733172Y-123358487D01*
X132709864Y-123315802D01*
X132602890Y-123119891D01*
X132511379Y-122997648D01*
X132511378Y-122997647D01*
X137821200Y-122997647D01*
X138620000Y-123796447D01*
X138620001Y-123796447D01*
X139418799Y-122997648D01*
X139418799Y-122997647D01*
X139388349Y-122973948D01*
X139184299Y-122863522D01*
X138964859Y-122788188D01*
X138736007Y-122750000D01*
X138503993Y-122750000D01*
X138275140Y-122788188D01*
X138055703Y-122863521D01*
X137851645Y-122973952D01*
X137821200Y-122997646D01*
X137821200Y-122997647D01*
X132511378Y-122997647D01*
X132439971Y-122902258D01*
X132247742Y-122710029D01*
X132075708Y-122581245D01*
X132030108Y-122547109D01*
X131791519Y-122416831D01*
X131791517Y-122416830D01*
X131791513Y-122416828D01*
X131536801Y-122321825D01*
X131536796Y-122321823D01*
X131271161Y-122264039D01*
X131000000Y-122244644D01*
X130728838Y-122264039D01*
X130463203Y-122321823D01*
X130318956Y-122375624D01*
X130208487Y-122416828D01*
X130208484Y-122416829D01*
X130208480Y-122416831D01*
X129969891Y-122547109D01*
X129752255Y-122710031D01*
X129560031Y-122902255D01*
X129397109Y-123119891D01*
X129266831Y-123358480D01*
X129171823Y-123613203D01*
X129114039Y-123878838D01*
X129094644Y-124149999D01*
X125285355Y-124149999D01*
X125265961Y-123878840D01*
X125208175Y-123613199D01*
X125113172Y-123358487D01*
X125089864Y-123315802D01*
X124982890Y-123119891D01*
X124891379Y-122997648D01*
X124819971Y-122902258D01*
X124627742Y-122710029D01*
X124455708Y-122581245D01*
X124410108Y-122547109D01*
X124171519Y-122416831D01*
X124171517Y-122416830D01*
X124171513Y-122416828D01*
X123916801Y-122321825D01*
X123916796Y-122321823D01*
X123651161Y-122264039D01*
X123380000Y-122244644D01*
X123108838Y-122264039D01*
X122843203Y-122321823D01*
X122698956Y-122375624D01*
X122588487Y-122416828D01*
X122588484Y-122416829D01*
X122588480Y-122416831D01*
X122349891Y-122547109D01*
X122132255Y-122710031D01*
X121940031Y-122902255D01*
X121777109Y-123119891D01*
X121646831Y-123358480D01*
X121551823Y-123613203D01*
X121494039Y-123878838D01*
X121474644Y-124149999D01*
X115125355Y-124149999D01*
X115105961Y-123878840D01*
X115048175Y-123613199D01*
X114953172Y-123358487D01*
X114929864Y-123315802D01*
X114822890Y-123119891D01*
X114731379Y-122997648D01*
X114659971Y-122902258D01*
X114467742Y-122710029D01*
X114295708Y-122581245D01*
X114250108Y-122547109D01*
X114011519Y-122416831D01*
X114011517Y-122416830D01*
X114011513Y-122416828D01*
X113756801Y-122321825D01*
X113756796Y-122321823D01*
X113491161Y-122264039D01*
X113220000Y-122244644D01*
X112948838Y-122264039D01*
X112683203Y-122321823D01*
X112538956Y-122375624D01*
X112428487Y-122416828D01*
X112428484Y-122416829D01*
X112428480Y-122416831D01*
X112189891Y-122547109D01*
X111972255Y-122710031D01*
X111780031Y-122902255D01*
X111617109Y-123119891D01*
X111486831Y-123358480D01*
X111391823Y-123613203D01*
X111334039Y-123878838D01*
X111314644Y-124149999D01*
X108454830Y-124149999D01*
X108435526Y-123818573D01*
X108377879Y-123491636D01*
X108282661Y-123173590D01*
X108151167Y-122868752D01*
X107985176Y-122581245D01*
X107787640Y-122315910D01*
X105953553Y-124150000D01*
X105246447Y-124150000D01*
X103412357Y-122315910D01*
X103214826Y-122581241D01*
X103048832Y-122868752D01*
X102917338Y-123173590D01*
X102822120Y-123491636D01*
X102764473Y-123818573D01*
X102745169Y-124150000D01*
X97600000Y-124150000D01*
X97600000Y-121965736D01*
X103769289Y-121965736D01*
X105600000Y-123796447D01*
X105600001Y-123796447D01*
X107430709Y-121965737D01*
X107430708Y-121965736D01*
X154569289Y-121965736D01*
X156400000Y-123796447D01*
X156400001Y-123796447D01*
X158230709Y-121965737D01*
X158230708Y-121965736D01*
X158104783Y-121860073D01*
X157827415Y-121677644D01*
X157530742Y-121528649D01*
X157218779Y-121415104D01*
X156895734Y-121338541D01*
X156565991Y-121300000D01*
X156234009Y-121300000D01*
X155904265Y-121338541D01*
X155581220Y-121415104D01*
X155269257Y-121528649D01*
X154972584Y-121677644D01*
X154695216Y-121860072D01*
X154569289Y-121965736D01*
X107430708Y-121965736D01*
X107304783Y-121860073D01*
X107027415Y-121677644D01*
X106730742Y-121528649D01*
X106418779Y-121415104D01*
X106095734Y-121338541D01*
X105765991Y-121300000D01*
X105434009Y-121300000D01*
X105104265Y-121338541D01*
X104781220Y-121415104D01*
X104469257Y-121528649D01*
X104172584Y-121677644D01*
X103895216Y-121860072D01*
X103769289Y-121965736D01*
X97600000Y-121965736D01*
X97600000Y-78074261D01*
X103769289Y-78074261D01*
X103769290Y-78074262D01*
X103895216Y-78179926D01*
X104172584Y-78362355D01*
X104469257Y-78511350D01*
X104781220Y-78624895D01*
X105104265Y-78701458D01*
X105434009Y-78740000D01*
X105765991Y-78740000D01*
X106095734Y-78701458D01*
X106418779Y-78624895D01*
X106730742Y-78511350D01*
X107027415Y-78362355D01*
X107304783Y-78179927D01*
X107430708Y-78074262D01*
X107430709Y-78074261D01*
X105600000Y-76243553D01*
X103769289Y-78074261D01*
X97600000Y-78074261D01*
X97600000Y-75889999D01*
X102745169Y-75889999D01*
X102764473Y-76221426D01*
X102822120Y-76548363D01*
X102917338Y-76866409D01*
X103048832Y-77171247D01*
X103214823Y-77458754D01*
X103412358Y-77724088D01*
X105246447Y-75890000D01*
X105953553Y-75890000D01*
X107787640Y-77724088D01*
X107985176Y-77458754D01*
X108151167Y-77171247D01*
X108282661Y-76866409D01*
X108377879Y-76548363D01*
X108435526Y-76221426D01*
X108454830Y-75889999D01*
X110564654Y-75889999D01*
X110584015Y-76210066D01*
X110641815Y-76525471D01*
X110737207Y-76831596D01*
X110868807Y-77123997D01*
X111034693Y-77398408D01*
X111232448Y-77650822D01*
X111459177Y-77877551D01*
X111711591Y-78075306D01*
X111986002Y-78241192D01*
X112278403Y-78372792D01*
X112535800Y-78453000D01*
X112584534Y-78468186D01*
X112899934Y-78525985D01*
X113220000Y-78545345D01*
X113540066Y-78525985D01*
X113855466Y-78468186D01*
X114020715Y-78416692D01*
X114161596Y-78372792D01*
X114226479Y-78343589D01*
X114454000Y-78241191D01*
X114728408Y-78075306D01*
X114980819Y-77877554D01*
X115207554Y-77650819D01*
X115405306Y-77398408D01*
X115571191Y-77124000D01*
X115702791Y-76831598D01*
X115798186Y-76525466D01*
X115855985Y-76210066D01*
X115875345Y-75890000D01*
X121474644Y-75890000D01*
X121494039Y-76161161D01*
X121551823Y-76426796D01*
X121551825Y-76426801D01*
X121646828Y-76681513D01*
X121646830Y-76681517D01*
X121646831Y-76681519D01*
X121777109Y-76920108D01*
X121777113Y-76920113D01*
X121940029Y-77137742D01*
X122132258Y-77329971D01*
X122223679Y-77398408D01*
X122349891Y-77492890D01*
X122545802Y-77599864D01*
X122588487Y-77623172D01*
X122843199Y-77718175D01*
X122843202Y-77718175D01*
X122843203Y-77718176D01*
X122870381Y-77724088D01*
X123108840Y-77775961D01*
X123380000Y-77795355D01*
X123651160Y-77775961D01*
X123916801Y-77718175D01*
X124171513Y-77623172D01*
X124410113Y-77492887D01*
X124627742Y-77329971D01*
X124819971Y-77137742D01*
X124982887Y-76920113D01*
X125012212Y-76866409D01*
X125031221Y-76831596D01*
X125113172Y-76681513D01*
X125208175Y-76426801D01*
X125265961Y-76161160D01*
X125285355Y-75890000D01*
X129094644Y-75890000D01*
X129114039Y-76161161D01*
X129171823Y-76426796D01*
X129171825Y-76426801D01*
X129266828Y-76681513D01*
X129266830Y-76681517D01*
X129266831Y-76681519D01*
X129397109Y-76920108D01*
X129397113Y-76920113D01*
X129560029Y-77137742D01*
X129752258Y-77329971D01*
X129843679Y-77398408D01*
X129969891Y-77492890D01*
X130165802Y-77599864D01*
X130208487Y-77623172D01*
X130463199Y-77718175D01*
X130463202Y-77718175D01*
X130463203Y-77718176D01*
X130490381Y-77724088D01*
X130728840Y-77775961D01*
X131000000Y-77795355D01*
X131271160Y-77775961D01*
X131536801Y-77718175D01*
X131791513Y-77623172D01*
X132030113Y-77492887D01*
X132247742Y-77329971D01*
X132439971Y-77137742D01*
X132602887Y-76920113D01*
X132632212Y-76866409D01*
X132651221Y-76831596D01*
X132733172Y-76681513D01*
X132828175Y-76426801D01*
X132885961Y-76161160D01*
X132905355Y-75890000D01*
X136714644Y-75890000D01*
X136734039Y-76161161D01*
X136791823Y-76426796D01*
X136791825Y-76426801D01*
X136886828Y-76681513D01*
X136886830Y-76681517D01*
X136886831Y-76681519D01*
X137017109Y-76920108D01*
X137017113Y-76920113D01*
X137180029Y-77137742D01*
X137372258Y-77329971D01*
X137463679Y-77398408D01*
X137589891Y-77492890D01*
X137785802Y-77599864D01*
X137828487Y-77623172D01*
X138083199Y-77718175D01*
X138083202Y-77718175D01*
X138083203Y-77718176D01*
X138110381Y-77724088D01*
X138348840Y-77775961D01*
X138620000Y-77795355D01*
X138891160Y-77775961D01*
X139156801Y-77718175D01*
X139411513Y-77623172D01*
X139650113Y-77492887D01*
X139867742Y-77329971D01*
X140059971Y-77137742D01*
X140222887Y-76920113D01*
X140252212Y-76866409D01*
X140271221Y-76831596D01*
X140353172Y-76681513D01*
X140448175Y-76426801D01*
X140505961Y-76161160D01*
X140525355Y-75890000D01*
X146124654Y-75890000D01*
X146144015Y-76210066D01*
X146201815Y-76525471D01*
X146297207Y-76831596D01*
X146428807Y-77123997D01*
X146594693Y-77398408D01*
X146792448Y-77650822D01*
X147019177Y-77877551D01*
X147271591Y-78075306D01*
X147546002Y-78241192D01*
X147838403Y-78372792D01*
X148095800Y-78453000D01*
X148144534Y-78468186D01*
X148459934Y-78525985D01*
X148780000Y-78545345D01*
X149100066Y-78525985D01*
X149415466Y-78468186D01*
X149580715Y-78416692D01*
X149721596Y-78372792D01*
X149786479Y-78343589D01*
X150014000Y-78241191D01*
X150288408Y-78075306D01*
X150289742Y-78074261D01*
X154569289Y-78074261D01*
X154569290Y-78074262D01*
X154695216Y-78179926D01*
X154972584Y-78362355D01*
X155269257Y-78511350D01*
X155581220Y-78624895D01*
X155904265Y-78701458D01*
X156234009Y-78740000D01*
X156565991Y-78740000D01*
X156895734Y-78701458D01*
X157218779Y-78624895D01*
X157530742Y-78511350D01*
X157827415Y-78362355D01*
X158104783Y-78179927D01*
X158230708Y-78074262D01*
X158230709Y-78074261D01*
X156400000Y-76243553D01*
X154569289Y-78074261D01*
X150289742Y-78074261D01*
X150540819Y-77877554D01*
X150767554Y-77650819D01*
X150965306Y-77398408D01*
X151131191Y-77124000D01*
X151262791Y-76831598D01*
X151358186Y-76525466D01*
X151415985Y-76210066D01*
X151435345Y-75890000D01*
X153545169Y-75890000D01*
X153564473Y-76221426D01*
X153622120Y-76548363D01*
X153717338Y-76866409D01*
X153848832Y-77171247D01*
X154014823Y-77458754D01*
X154212358Y-77724088D01*
X156046447Y-75890000D01*
X156753553Y-75890000D01*
X158587640Y-77724088D01*
X158785176Y-77458754D01*
X158951167Y-77171247D01*
X159082661Y-76866409D01*
X159177879Y-76548363D01*
X159235526Y-76221426D01*
X159254830Y-75890000D01*
X159235526Y-75558573D01*
X159177879Y-75231636D01*
X159082661Y-74913590D01*
X158951167Y-74608752D01*
X158785176Y-74321245D01*
X158587640Y-74055910D01*
X156753553Y-75890000D01*
X156046447Y-75890000D01*
X154212357Y-74055910D01*
X154014826Y-74321241D01*
X153848832Y-74608752D01*
X153717338Y-74913590D01*
X153622120Y-75231636D01*
X153564473Y-75558573D01*
X153545169Y-75890000D01*
X151435345Y-75890000D01*
X151415985Y-75569934D01*
X151358186Y-75254534D01*
X151309560Y-75098487D01*
X151262792Y-74948403D01*
X151131192Y-74656002D01*
X150965306Y-74381591D01*
X150767551Y-74129177D01*
X150540822Y-73902448D01*
X150289739Y-73705736D01*
X154569289Y-73705736D01*
X156400000Y-75536447D01*
X156400001Y-75536447D01*
X158230709Y-73705737D01*
X158230708Y-73705736D01*
X158104783Y-73600073D01*
X157827415Y-73417644D01*
X157530742Y-73268649D01*
X157218779Y-73155104D01*
X156895734Y-73078541D01*
X156565991Y-73040000D01*
X156234009Y-73040000D01*
X155904265Y-73078541D01*
X155581220Y-73155104D01*
X155269257Y-73268649D01*
X154972584Y-73417644D01*
X154695216Y-73600072D01*
X154569289Y-73705736D01*
X150289739Y-73705736D01*
X150288408Y-73704693D01*
X150013997Y-73538807D01*
X149721596Y-73407207D01*
X149415471Y-73311815D01*
X149100066Y-73254015D01*
X148780000Y-73234654D01*
X148459933Y-73254015D01*
X148144528Y-73311815D01*
X147838403Y-73407207D01*
X147546002Y-73538807D01*
X147271591Y-73704693D01*
X147019177Y-73902448D01*
X146792448Y-74129177D01*
X146594693Y-74381591D01*
X146428807Y-74656002D01*
X146297207Y-74948403D01*
X146201815Y-75254528D01*
X146144015Y-75569933D01*
X146124654Y-75890000D01*
X140525355Y-75890000D01*
X140505961Y-75618840D01*
X140448175Y-75353199D01*
X140353172Y-75098487D01*
X140329864Y-75055802D01*
X140222890Y-74859891D01*
X140221685Y-74858281D01*
X140059971Y-74642258D01*
X139867742Y-74450029D01*
X139695708Y-74321245D01*
X139650108Y-74287109D01*
X139411519Y-74156831D01*
X139411517Y-74156830D01*
X139411513Y-74156828D01*
X139156801Y-74061825D01*
X139156796Y-74061823D01*
X138891161Y-74004039D01*
X138620000Y-73984644D01*
X138348838Y-74004039D01*
X138083203Y-74061823D01*
X137938956Y-74115624D01*
X137828487Y-74156828D01*
X137828484Y-74156829D01*
X137828480Y-74156831D01*
X137589891Y-74287109D01*
X137372255Y-74450031D01*
X137180031Y-74642255D01*
X137017109Y-74859891D01*
X136886831Y-75098480D01*
X136791823Y-75353203D01*
X136734039Y-75618838D01*
X136714644Y-75890000D01*
X132905355Y-75890000D01*
X132885961Y-75618840D01*
X132828175Y-75353199D01*
X132733172Y-75098487D01*
X132709864Y-75055802D01*
X132602890Y-74859891D01*
X132601685Y-74858281D01*
X132439971Y-74642258D01*
X132247742Y-74450029D01*
X132075708Y-74321245D01*
X132030108Y-74287109D01*
X131791519Y-74156831D01*
X131791517Y-74156830D01*
X131791513Y-74156828D01*
X131536801Y-74061825D01*
X131536796Y-74061823D01*
X131271161Y-74004039D01*
X131000000Y-73984644D01*
X130728838Y-74004039D01*
X130463203Y-74061823D01*
X130318956Y-74115624D01*
X130208487Y-74156828D01*
X130208484Y-74156829D01*
X130208480Y-74156831D01*
X129969891Y-74287109D01*
X129752255Y-74450031D01*
X129560031Y-74642255D01*
X129397109Y-74859891D01*
X129266831Y-75098480D01*
X129171823Y-75353203D01*
X129114039Y-75618838D01*
X129094644Y-75890000D01*
X125285355Y-75890000D01*
X125265961Y-75618840D01*
X125208175Y-75353199D01*
X125113172Y-75098487D01*
X125089864Y-75055802D01*
X124982890Y-74859891D01*
X124981685Y-74858281D01*
X124819971Y-74642258D01*
X124627742Y-74450029D01*
X124455708Y-74321245D01*
X124410108Y-74287109D01*
X124171519Y-74156831D01*
X124171517Y-74156830D01*
X124171513Y-74156828D01*
X123916801Y-74061825D01*
X123916796Y-74061823D01*
X123651161Y-74004039D01*
X123380000Y-73984644D01*
X123108838Y-74004039D01*
X122843203Y-74061823D01*
X122698956Y-74115624D01*
X122588487Y-74156828D01*
X122588484Y-74156829D01*
X122588480Y-74156831D01*
X122349891Y-74287109D01*
X122132255Y-74450031D01*
X121940031Y-74642255D01*
X121777109Y-74859891D01*
X121646831Y-75098480D01*
X121551823Y-75353203D01*
X121494039Y-75618838D01*
X121474644Y-75890000D01*
X115875345Y-75890000D01*
X115855985Y-75569934D01*
X115798186Y-75254534D01*
X115749560Y-75098487D01*
X115702792Y-74948403D01*
X115571192Y-74656002D01*
X115405306Y-74381591D01*
X115207551Y-74129177D01*
X114980822Y-73902448D01*
X114728408Y-73704693D01*
X114453997Y-73538807D01*
X114161596Y-73407207D01*
X113855471Y-73311815D01*
X113540066Y-73254015D01*
X113220000Y-73234654D01*
X112899933Y-73254015D01*
X112584528Y-73311815D01*
X112278403Y-73407207D01*
X111986002Y-73538807D01*
X111711591Y-73704693D01*
X111459177Y-73902448D01*
X111232448Y-74129177D01*
X111034693Y-74381591D01*
X110868807Y-74656002D01*
X110737207Y-74948403D01*
X110641815Y-75254528D01*
X110584015Y-75569933D01*
X110564654Y-75889999D01*
X108454830Y-75889999D01*
X108435526Y-75558573D01*
X108377879Y-75231636D01*
X108282661Y-74913590D01*
X108151167Y-74608752D01*
X107985176Y-74321245D01*
X107787640Y-74055910D01*
X105953553Y-75890000D01*
X105246447Y-75890000D01*
X103412357Y-74055910D01*
X103214826Y-74321241D01*
X103048832Y-74608752D01*
X102917338Y-74913590D01*
X102822120Y-75231636D01*
X102764473Y-75558573D01*
X102745169Y-75889999D01*
X97600000Y-75889999D01*
X97600000Y-73705736D01*
X103769289Y-73705736D01*
X105600000Y-75536447D01*
X105600001Y-75536447D01*
X107430709Y-73705737D01*
X107430708Y-73705736D01*
X107304783Y-73600073D01*
X107027415Y-73417644D01*
X106730742Y-73268649D01*
X106418779Y-73155104D01*
X106095734Y-73078541D01*
X105765991Y-73040000D01*
X105434009Y-73040000D01*
X105104265Y-73078541D01*
X104781220Y-73155104D01*
X104469257Y-73268649D01*
X104172584Y-73417644D01*
X103895216Y-73600072D01*
X103769289Y-73705736D01*
X97600000Y-73705736D01*
X97600000Y-66858033D01*
X120499500Y-66858033D01*
X120510114Y-66977417D01*
X120566091Y-67173050D01*
X120628954Y-67293395D01*
X120660302Y-67353407D01*
X120788891Y-67511109D01*
X120946593Y-67639698D01*
X121126951Y-67733909D01*
X121322582Y-67789886D01*
X121441963Y-67800500D01*
X123558036Y-67800499D01*
X123677418Y-67789886D01*
X123873049Y-67733909D01*
X124053407Y-67639698D01*
X124211109Y-67511109D01*
X124339698Y-67353407D01*
X124433909Y-67173049D01*
X124489886Y-66977418D01*
X124500500Y-66858037D01*
X124500500Y-65980000D01*
X137494389Y-65980000D01*
X137514804Y-66265429D01*
X137575629Y-66545041D01*
X137675634Y-66813163D01*
X137812772Y-67064313D01*
X137894171Y-67173049D01*
X137984261Y-67293395D01*
X138186605Y-67495739D01*
X138358414Y-67624354D01*
X138415686Y-67667227D01*
X138537803Y-67733908D01*
X138666839Y-67804367D01*
X138934954Y-67904369D01*
X138934957Y-67904369D01*
X138934958Y-67904370D01*
X138987217Y-67915738D01*
X139214572Y-67965196D01*
X139478012Y-67984037D01*
X139499999Y-67985610D01*
X139499999Y-67985609D01*
X139500000Y-67985610D01*
X139785428Y-67965196D01*
X140065046Y-67904369D01*
X140333161Y-67804367D01*
X140584315Y-67667226D01*
X140813395Y-67495739D01*
X141015739Y-67293395D01*
X141187226Y-67064315D01*
X141324367Y-66813161D01*
X141424369Y-66545046D01*
X141485196Y-66265428D01*
X141505610Y-65980000D01*
X141485196Y-65694572D01*
X141424369Y-65414954D01*
X141324367Y-65146839D01*
X141187226Y-64895685D01*
X141015739Y-64666605D01*
X140813395Y-64464261D01*
X140698854Y-64378517D01*
X140584313Y-64292772D01*
X140333163Y-64155634D01*
X140333162Y-64155633D01*
X140333161Y-64155633D01*
X140065046Y-64055631D01*
X140065041Y-64055629D01*
X139785429Y-63994804D01*
X139500000Y-63974389D01*
X139214570Y-63994804D01*
X138934958Y-64055629D01*
X138666836Y-64155634D01*
X138415686Y-64292772D01*
X138186602Y-64464263D01*
X137984263Y-64666602D01*
X137812772Y-64895686D01*
X137675634Y-65146836D01*
X137575629Y-65414958D01*
X137514804Y-65694570D01*
X137494389Y-65980000D01*
X124500500Y-65980000D01*
X124500499Y-64741964D01*
X124489886Y-64622582D01*
X124433909Y-64426951D01*
X124339698Y-64246593D01*
X124211109Y-64088891D01*
X124053407Y-63960302D01*
X124053406Y-63960301D01*
X123873050Y-63866091D01*
X123775233Y-63838102D01*
X123677418Y-63810114D01*
X123558037Y-63799500D01*
X123558033Y-63799500D01*
X121441966Y-63799500D01*
X121322582Y-63810114D01*
X121126949Y-63866091D01*
X120946593Y-63960301D01*
X120788891Y-64088891D01*
X120660301Y-64246593D01*
X120566091Y-64426949D01*
X120510114Y-64622582D01*
X120499500Y-64741966D01*
X120499500Y-66858033D01*
X97600000Y-66858033D01*
X97600000Y-60957764D01*
X103745787Y-60957764D01*
X103775413Y-61227016D01*
X103843928Y-61489087D01*
X103949871Y-61738392D01*
X104090982Y-61969611D01*
X104180253Y-62076881D01*
X104264255Y-62177820D01*
X104465998Y-62358582D01*
X104691910Y-62508044D01*
X104769390Y-62544365D01*
X104937177Y-62623021D01*
X105196562Y-62701058D01*
X105196569Y-62701060D01*
X105464561Y-62740500D01*
X105667631Y-62740500D01*
X105667634Y-62740500D01*
X105870156Y-62725677D01*
X105870457Y-62725610D01*
X106134553Y-62666780D01*
X106387558Y-62570014D01*
X106623777Y-62437441D01*
X106838177Y-62271888D01*
X107026186Y-62076881D01*
X107183799Y-61856579D01*
X107307656Y-61615675D01*
X107395118Y-61359305D01*
X107444319Y-61092933D01*
X107454212Y-60822235D01*
X107442963Y-60720000D01*
X120494389Y-60720000D01*
X120514804Y-61005429D01*
X120575629Y-61285041D01*
X120675634Y-61553163D01*
X120812772Y-61804313D01*
X120851898Y-61856579D01*
X120984261Y-62033395D01*
X121186605Y-62235739D01*
X121350704Y-62358582D01*
X121415686Y-62407227D01*
X121471019Y-62437441D01*
X121666839Y-62544367D01*
X121934954Y-62644369D01*
X121934957Y-62644369D01*
X121934958Y-62644370D01*
X121987217Y-62655738D01*
X122214572Y-62705196D01*
X122500000Y-62725610D01*
X122785428Y-62705196D01*
X123065046Y-62644369D01*
X123333161Y-62544367D01*
X123584315Y-62407226D01*
X123813395Y-62235739D01*
X124015739Y-62033395D01*
X124187226Y-61804315D01*
X124324367Y-61553161D01*
X124424369Y-61285046D01*
X124485196Y-61005428D01*
X124493452Y-60889999D01*
X126519453Y-60889999D01*
X126539613Y-61171861D01*
X126599678Y-61447979D01*
X126599680Y-61447984D01*
X126698432Y-61712749D01*
X126782999Y-61867621D01*
X126833859Y-61960765D01*
X126996343Y-62177818D01*
X127003203Y-62186982D01*
X127203018Y-62386797D01*
X127270669Y-62437440D01*
X127429234Y-62556140D01*
X127429236Y-62556141D01*
X127677251Y-62691568D01*
X127942016Y-62790320D01*
X127942019Y-62790320D01*
X127942020Y-62790321D01*
X127981320Y-62798870D01*
X128218139Y-62850387D01*
X128500000Y-62870546D01*
X128781861Y-62850387D01*
X129057984Y-62790320D01*
X129322749Y-62691568D01*
X129570764Y-62556141D01*
X129796982Y-62386797D01*
X129996797Y-62186982D01*
X130166141Y-61960764D01*
X130301568Y-61712749D01*
X130400320Y-61447984D01*
X130460387Y-61171861D01*
X130480546Y-60890000D01*
X131519453Y-60890000D01*
X131539613Y-61171861D01*
X131599678Y-61447979D01*
X131599680Y-61447984D01*
X131698432Y-61712749D01*
X131782999Y-61867621D01*
X131833859Y-61960765D01*
X131996343Y-62177818D01*
X132003203Y-62186982D01*
X132203018Y-62386797D01*
X132270669Y-62437440D01*
X132429234Y-62556140D01*
X132429236Y-62556141D01*
X132677251Y-62691568D01*
X132942016Y-62790320D01*
X132942019Y-62790320D01*
X132942020Y-62790321D01*
X132981320Y-62798870D01*
X133218139Y-62850387D01*
X133500000Y-62870546D01*
X133781861Y-62850387D01*
X134057984Y-62790320D01*
X134322749Y-62691568D01*
X134570764Y-62556141D01*
X134796982Y-62386797D01*
X134996797Y-62186982D01*
X135166141Y-61960764D01*
X135167632Y-61958033D01*
X137499500Y-61958033D01*
X137510114Y-62077417D01*
X137566091Y-62273050D01*
X137651962Y-62437441D01*
X137660302Y-62453407D01*
X137788891Y-62611109D01*
X137946593Y-62739698D01*
X138126951Y-62833909D01*
X138322582Y-62889886D01*
X138441963Y-62900500D01*
X140558036Y-62900499D01*
X140677418Y-62889886D01*
X140873049Y-62833909D01*
X141053407Y-62739698D01*
X141211109Y-62611109D01*
X141339698Y-62453407D01*
X141433909Y-62273049D01*
X141489886Y-62077418D01*
X141500500Y-61958037D01*
X141500500Y-60957764D01*
X154545787Y-60957764D01*
X154575413Y-61227016D01*
X154643928Y-61489087D01*
X154749871Y-61738392D01*
X154890982Y-61969611D01*
X154980253Y-62076881D01*
X155064255Y-62177820D01*
X155265998Y-62358582D01*
X155491910Y-62508044D01*
X155569390Y-62544365D01*
X155737177Y-62623021D01*
X155996562Y-62701058D01*
X155996569Y-62701060D01*
X156264561Y-62740500D01*
X156467631Y-62740500D01*
X156467634Y-62740500D01*
X156670156Y-62725677D01*
X156670457Y-62725610D01*
X156934553Y-62666780D01*
X157187558Y-62570014D01*
X157423777Y-62437441D01*
X157638177Y-62271888D01*
X157826186Y-62076881D01*
X157983799Y-61856579D01*
X158107656Y-61615675D01*
X158195118Y-61359305D01*
X158244319Y-61092933D01*
X158254212Y-60822235D01*
X158224586Y-60552982D01*
X158156072Y-60290912D01*
X158050130Y-60041610D01*
X157955674Y-59886839D01*
X157909017Y-59810388D01*
X157735746Y-59602181D01*
X157725519Y-59593018D01*
X157534002Y-59421418D01*
X157308090Y-59271956D01*
X157308086Y-59271954D01*
X157062822Y-59156978D01*
X156803437Y-59078941D01*
X156803431Y-59078940D01*
X156535439Y-59039500D01*
X156332369Y-59039500D01*
X156332366Y-59039500D01*
X156129843Y-59054322D01*
X155865449Y-59113219D01*
X155612441Y-59209986D01*
X155376223Y-59342559D01*
X155161825Y-59508109D01*
X154973813Y-59703120D01*
X154816201Y-59923420D01*
X154692342Y-60164329D01*
X154604881Y-60420695D01*
X154555680Y-60687066D01*
X154545787Y-60957764D01*
X141500500Y-60957764D01*
X141500499Y-59841964D01*
X141489886Y-59722582D01*
X141433909Y-59526951D01*
X141339698Y-59346593D01*
X141211109Y-59188891D01*
X141053407Y-59060302D01*
X141053406Y-59060301D01*
X140873050Y-58966091D01*
X140745564Y-58929613D01*
X140677418Y-58910114D01*
X140558037Y-58899500D01*
X140558033Y-58899500D01*
X138441966Y-58899500D01*
X138322582Y-58910114D01*
X138126949Y-58966091D01*
X137946593Y-59060301D01*
X137788891Y-59188891D01*
X137660301Y-59346593D01*
X137566091Y-59526949D01*
X137510114Y-59722582D01*
X137499500Y-59841966D01*
X137499500Y-61958033D01*
X135167632Y-61958033D01*
X135301568Y-61712749D01*
X135400320Y-61447984D01*
X135460387Y-61171861D01*
X135480546Y-60890000D01*
X135460387Y-60608139D01*
X135400320Y-60332016D01*
X135301568Y-60067251D01*
X135166141Y-59819236D01*
X135159517Y-59810388D01*
X135003656Y-59602181D01*
X134996797Y-59593018D01*
X134796982Y-59393203D01*
X134734718Y-59346593D01*
X134570765Y-59223859D01*
X134477621Y-59172999D01*
X134322749Y-59088432D01*
X134057984Y-58989680D01*
X134057979Y-58989678D01*
X133781861Y-58929613D01*
X133500000Y-58909453D01*
X133218138Y-58929613D01*
X132942020Y-58989678D01*
X132845179Y-59025798D01*
X132677251Y-59088432D01*
X132615520Y-59122139D01*
X132429234Y-59223859D01*
X132203017Y-59393203D01*
X132003203Y-59593017D01*
X131833859Y-59819234D01*
X131776970Y-59923420D01*
X131698432Y-60067251D01*
X131662224Y-60164329D01*
X131599678Y-60332020D01*
X131539613Y-60608138D01*
X131519453Y-60890000D01*
X130480546Y-60890000D01*
X130460387Y-60608139D01*
X130400320Y-60332016D01*
X130301568Y-60067251D01*
X130166141Y-59819236D01*
X130159517Y-59810388D01*
X130003656Y-59602181D01*
X129996797Y-59593018D01*
X129796982Y-59393203D01*
X129734718Y-59346593D01*
X129570765Y-59223859D01*
X129477621Y-59172999D01*
X129322749Y-59088432D01*
X129057984Y-58989680D01*
X129057979Y-58989678D01*
X128781861Y-58929613D01*
X128500000Y-58909453D01*
X128218138Y-58929613D01*
X127942020Y-58989678D01*
X127845179Y-59025798D01*
X127677251Y-59088432D01*
X127615520Y-59122139D01*
X127429234Y-59223859D01*
X127203017Y-59393203D01*
X127003203Y-59593017D01*
X126833859Y-59819234D01*
X126776970Y-59923420D01*
X126698432Y-60067251D01*
X126662224Y-60164329D01*
X126599678Y-60332020D01*
X126539613Y-60608138D01*
X126519453Y-60889999D01*
X124493452Y-60889999D01*
X124505610Y-60720000D01*
X124485196Y-60434572D01*
X124435738Y-60207217D01*
X124424370Y-60154958D01*
X124391656Y-60067248D01*
X124324367Y-59886839D01*
X124234676Y-59722582D01*
X124187227Y-59635686D01*
X124091724Y-59508109D01*
X124015739Y-59406605D01*
X123813395Y-59204261D01*
X123658668Y-59088434D01*
X123584313Y-59032772D01*
X123333163Y-58895634D01*
X123333162Y-58895633D01*
X123333161Y-58895633D01*
X123065046Y-58795631D01*
X123065041Y-58795629D01*
X122785429Y-58734804D01*
X122500000Y-58714389D01*
X122214570Y-58734804D01*
X121934958Y-58795629D01*
X121666836Y-58895634D01*
X121415686Y-59032772D01*
X121186602Y-59204263D01*
X120984263Y-59406602D01*
X120812772Y-59635686D01*
X120675634Y-59886836D01*
X120575629Y-60154958D01*
X120514804Y-60434570D01*
X120494389Y-60720000D01*
X107442963Y-60720000D01*
X107424586Y-60552982D01*
X107356072Y-60290912D01*
X107250130Y-60041610D01*
X107155674Y-59886839D01*
X107109017Y-59810388D01*
X106935746Y-59602181D01*
X106925519Y-59593018D01*
X106734002Y-59421418D01*
X106508090Y-59271956D01*
X106508086Y-59271954D01*
X106262822Y-59156978D01*
X106003437Y-59078941D01*
X106003431Y-59078940D01*
X105735439Y-59039500D01*
X105532369Y-59039500D01*
X105532366Y-59039500D01*
X105329843Y-59054322D01*
X105065449Y-59113219D01*
X104812441Y-59209986D01*
X104576223Y-59342559D01*
X104361825Y-59508109D01*
X104173813Y-59703120D01*
X104016201Y-59923420D01*
X103892342Y-60164329D01*
X103804881Y-60420695D01*
X103755680Y-60687066D01*
X103745787Y-60957764D01*
X97600000Y-60957764D01*
X97600000Y-54894428D01*
X97600316Y-54885582D01*
X97619724Y-54614214D01*
X97622240Y-54596710D01*
X97679130Y-54335192D01*
X97684107Y-54318241D01*
X97777640Y-54067470D01*
X97784985Y-54051388D01*
X97913248Y-53816491D01*
X97922798Y-53801630D01*
X98083195Y-53587366D01*
X98094767Y-53574012D01*
X98284012Y-53384767D01*
X98297366Y-53373195D01*
X98511630Y-53212798D01*
X98526491Y-53203248D01*
X98761388Y-53074985D01*
X98777470Y-53067640D01*
X99028241Y-52974107D01*
X99045192Y-52969130D01*
X99306710Y-52912240D01*
X99324207Y-52909724D01*
X99595581Y-52890316D01*
X99604428Y-52890000D01*
X162395572Y-52890000D01*
X162404418Y-52890316D01*
G37*
%TD.AperFunction*%
%TD*%
M02*
